<?xml version="1.0" encoding="utf-8"?>
<!-- Generator: Adobe Illustrator 17.1.0, SVG Export Plug-In . SVG Version: 6.00 Build 0)  -->
<!DOCTYPE svg PUBLIC "-//W3C//DTD SVG 1.1//EN" "http://www.w3.org/Graphics/SVG/1.1/DTD/svg11.dtd">
<svg version="1.1" id="Layer_1" xmlns="http://www.w3.org/2000/svg" xmlns:xlink="http://www.w3.org/1999/xlink" x="0px" y="0px"
	 viewBox="0 0 51 51" enable-background="new 0 0 51 51" xml:space="preserve">
<g>
	<g>
		<circle fill="#C2B59B" cx="25.5" cy="25.5" r="25"/>
		<path fill="#C2B59B" d="M25.5,51C11.4,51,0,39.6,0,25.5S11.4,0,25.5,0S51,11.4,51,25.5S39.6,51,25.5,51z M25.5,1C12,1,1,12,1,25.5
			S12,50,25.5,50S50,39,50,25.5S39,1,25.5,1z"/>
	</g>
	<polygon fill="#E4E1CE" points="17.5,36.5 16.1,35.1 25.7,25.5 16.1,15.9 17.5,14.5 28.5,25.5 	"/>
	<polygon fill="#E4E1CE" points="27.6,36.5 26.2,35.1 35.8,25.5 26.2,15.9 27.6,14.5 38.6,25.5 	"/>
</g>
</svg>
