<?xml version="1.0" encoding="utf-8"?>
<!-- Generator: Adobe Illustrator 17.1.0, SVG Export Plug-In . SVG Version: 6.00 Build 0)  -->
<!DOCTYPE svg PUBLIC "-//W3C//DTD SVG 1.1//EN" "http://www.w3.org/Graphics/SVG/1.1/DTD/svg11.dtd">
<svg version="1.1" id="Layer_1" xmlns="http://www.w3.org/2000/svg" xmlns:xlink="http://www.w3.org/1999/xlink" x="0px" y="0px"
	 viewBox="0 0 603.5 228.5" enable-background="new 0 0 603.5 228.5" xml:space="preserve">
<g>
	<line fill="#90918D" stroke="#90918D" stroke-width="1.5" stroke-miterlimit="10" x1="67.2" y1="3.5" x2="533.3" y2="3.5"/>
	<line fill="#90918D" stroke="#90918D" stroke-width="1.5" stroke-miterlimit="10" x1="67.2" y1="7.7" x2="533.3" y2="7.7"/>
</g>
<g>
	<line fill="#90918D" stroke="#90918D" stroke-width="1.5" stroke-miterlimit="10" x1="67.2" y1="73.7" x2="533.3" y2="73.7"/>
	<line fill="#90918D" stroke="#90918D" stroke-width="1.5" stroke-miterlimit="10" x1="67.2" y1="77.9" x2="533.3" y2="77.9"/>
</g>
<g>
	<path fill="#90918D" d="M95.3,47.4v6c0,3.7-0.9,6.5-2.7,8.4c-1.8,1.9-4.4,2.9-7.9,2.9c-3.5,0-6.1-1-7.9-2.9c-1.8-2-2.7-4.8-2.7-8.4
		V29.8c0-3.7,0.9-6.5,2.7-8.4c1.8-2,4.4-2.9,7.9-2.9c3.5,0,6.1,1,7.9,2.9c1.8,2,2.7,4.8,2.7,8.4v4.4h-6.7v-4.9c0-1.6-0.3-2.8-1-3.5
		c-0.7-0.7-1.6-1-2.7-1c-1.1,0-2,0.3-2.7,1c-0.7,0.7-1,1.8-1,3.5v24.5c0,1.6,0.3,2.8,1,3.4c0.7,0.6,1.6,1,2.7,1c1.1,0,2-0.3,2.7-1
		c0.7-0.6,1-1.8,1-3.4v-6.5H95.3z"/>
	<path fill="#90918D" d="M111.2,18.9c3.6,0,6.2,0.9,8,2.8c1.7,1.9,2.6,4.7,2.6,8.3V36c0,3.7-0.9,6.4-2.6,8.3c-1.7,1.9-4.4,2.8-8,2.8
		h-3.4v17h-7.1V18.9H111.2z M107.9,25.4v15.3h3.4c1.1,0,2-0.3,2.6-0.9c0.6-0.6,0.9-1.7,0.9-3.4v-6.8c0-1.6-0.3-2.8-0.9-3.4
		c-0.6-0.6-1.5-0.9-2.6-0.9H107.9z"/>
	<path fill="#90918D" d="M126.3,29.8c0-3.7,0.9-6.5,2.8-8.4c1.9-2,4.5-2.9,8-2.9s6.2,1,8,2.9c1.9,2,2.8,4.8,2.8,8.4v23.5
		c0,3.7-0.9,6.5-2.8,8.4c-1.9,2-4.5,2.9-8,2.9s-6.2-1-8-2.9c-1.9-2-2.8-4.8-2.8-8.4V29.8z M133.4,53.8c0,1.6,0.3,2.8,1,3.5
		c0.7,0.7,1.6,1,2.7,1c1.1,0,2-0.3,2.7-1c0.7-0.7,1-1.8,1-3.5V29.3c0-1.6-0.3-2.8-1-3.5c-0.7-0.7-1.6-1-2.7-1c-1.1,0-2,0.3-2.7,1
		c-0.7,0.7-1,1.8-1,3.5V53.8z"/>
	<path fill="#90918D" d="M159.6,18.9v17.5c0,1.6,0.3,2.8,1,3.4c0.7,0.6,1.6,1,2.7,1c1.1,0,1.9-0.3,2.6-0.9c0.6-0.6,1-1.6,1.1-3v-18
		h7.1v45.3H167V46.8c-0.6,0.2-1.2,0.4-1.8,0.4c-0.6,0.1-1.3,0.1-2,0.1c-3.5,0-6.1-1-7.9-2.9c-1.8-2-2.7-4.8-2.7-8.4v-17H159.6z"/>
	<path fill="#90918D" d="M187,64.2h-7.1V18.9h7.1v19.4h8.1V18.9h7.2v45.3h-7.2V44.8H187V64.2z"/>
	<path fill="#90918D" d="M208,29.8c0-3.7,0.9-6.5,2.8-8.4c1.9-2,4.5-2.9,8-2.9s6.2,1,8,2.9c1.9,2,2.8,4.8,2.8,8.4v23.5
		c0,3.7-0.9,6.5-2.8,8.4c-1.9,2-4.5,2.9-8,2.9s-6.2-1-8-2.9c-1.9-2-2.8-4.8-2.8-8.4V29.8z M215.1,53.8c0,1.6,0.3,2.8,1,3.5
		c0.7,0.7,1.6,1,2.7,1c1.1,0,2-0.3,2.7-1c0.7-0.7,1-1.8,1-3.5V29.3c0-1.6-0.3-2.8-1-3.5c-0.7-0.7-1.6-1-2.7-1c-1.1,0-2,0.3-2.7,1
		c-0.7,0.7-1,1.8-1,3.5V53.8z"/>
	<path fill="#90918D" d="M242.3,38h9.8v6.5h-9.8v13.3h12.3v6.5h-19.4V18.9h19.4v6.5h-12.3V38z"/>
	<path fill="#90918D" d="M294,47.4v6c0,3.7-0.9,6.5-2.7,8.4c-1.8,1.9-4.4,2.9-7.9,2.9c-3.5,0-6.1-1-7.9-2.9c-1.8-2-2.7-4.8-2.7-8.4
		V29.8c0-3.7,0.9-6.5,2.7-8.4c1.8-2,4.4-2.9,7.9-2.9c3.5,0,6.1,1,7.9,2.9c1.8,2,2.7,4.8,2.7,8.4v4.4h-6.7v-4.9c0-1.6-0.3-2.8-1-3.5
		c-0.7-0.7-1.6-1-2.7-1c-1.1,0-2,0.3-2.7,1c-0.7,0.7-1,1.8-1,3.5v24.5c0,1.6,0.3,2.8,1,3.4c0.7,0.6,1.6,1,2.7,1c1.1,0,2-0.3,2.7-1
		c0.7-0.6,1-1.8,1-3.4v-6.5H294z"/>
	<path fill="#90918D" d="M299.2,29.8c0-3.7,0.9-6.5,2.8-8.4c1.9-2,4.5-2.9,8-2.9s6.2,1,8,2.9c1.9,2,2.8,4.8,2.8,8.4v23.5
		c0,3.7-0.9,6.5-2.8,8.4c-1.9,2-4.5,2.9-8,2.9s-6.2-1-8-2.9c-1.9-2-2.8-4.8-2.8-8.4V29.8z M306.3,53.8c0,1.6,0.3,2.8,1,3.5
		c0.7,0.7,1.6,1,2.7,1c1.1,0,2-0.3,2.7-1c0.7-0.7,1-1.8,1-3.5V29.3c0-1.6-0.3-2.8-1-3.5c-0.7-0.7-1.6-1-2.7-1c-1.1,0-2,0.3-2.7,1
		c-0.7,0.7-1,1.8-1,3.5V53.8z"/>
	<path fill="#90918D" d="M326.2,29.8c0-3.7,0.9-6.5,2.8-8.4c1.9-2,4.5-2.9,8-2.9s6.2,1,8,2.9c1.9,2,2.8,4.8,2.8,8.4v23.5
		c0,3.7-0.9,6.5-2.8,8.4c-1.9,2-4.5,2.9-8,2.9s-6.2-1-8-2.9c-1.9-2-2.8-4.8-2.8-8.4V29.8z M333.4,53.8c0,1.6,0.3,2.8,1,3.5
		c0.7,0.7,1.6,1,2.7,1c1.1,0,2-0.3,2.7-1c0.7-0.7,1-1.8,1-3.5V29.3c0-1.6-0.3-2.8-1-3.5c-0.7-0.7-1.6-1-2.7-1c-1.1,0-2,0.3-2.7,1
		c-0.7,0.7-1,1.8-1,3.5V53.8z"/>
	<path fill="#90918D" d="M360.6,37.4h4.3c3.6,0,6.2,0.9,8,2.8c1.7,1.9,2.6,4.7,2.6,8.3V53c0,3.7-0.9,6.4-2.6,8.3
		c-1.7,1.9-4.4,2.8-8,2.8h-11.4V18.9h18.8v6.5h-11.7V37.4z M364.9,57.7c1.1,0,2-0.3,2.6-0.9c0.6-0.6,0.9-1.7,0.9-3.3v-5.4
		c0-1.6-0.3-2.7-0.9-3.3c-0.6-0.6-1.5-0.9-2.6-0.9h-4.3v13.9H364.9z"/>
	<path fill="#90918D" d="M381,64.2V18.9h7.1v38.8h5.8V18.9h7.1v38.8h5.8V18.9h7.1v38.8h3v11.6h-6c0-1,0-1.9,0-2.6
		c0-0.7-0.1-1.2-0.1-1.6c-0.1-0.4-0.2-0.7-0.4-0.8c-0.2-0.2-0.4-0.2-0.7-0.2H381z"/>
	<path fill="#90918D" d="M429.6,38h9.8v6.5h-9.8v13.3h12.3v6.5h-19.4V18.9h19.4v6.5h-12.3V38z"/>
	<path fill="#90918D" d="M454.7,64.2h-7.1V18.9h7.1v19.4h8.1V18.9h7.2v45.3h-7.2V44.8h-8.1V64.2z"/>
	<path fill="#90918D" d="M481,64.2h-5.2V18.9h6.3V46l11.1-27.1h5.2v45.3H492V38.5L481,64.2z"/>
	<path fill="#90918D" d="M511.4,38h9.8v6.5h-9.8v13.3h12.3v6.5h-19.4V18.9h19.4v6.5h-12.3V38z"/>
</g>
<g>
	<g>
		<g>
			<g>
				<polygon fill="#90918D" points="34.6,28.7 40.6,41.1 13.7,39.5 13.7,47.2 40.6,45.8 35.7,58.6 61.4,43.6 				"/>
			</g>
		</g>
		<g>
			<g>
				<polygon fill="#90918D" points="565.9,58.6 559.9,46.2 586.8,47.8 586.8,40 559.9,41.5 564.8,28.7 539.1,43.6 				"/>
			</g>
		</g>
	</g>
</g>
<g>
	<path fill="#90918D" d="M82.9,97.7c0.3,0.4,0.5,1,0.5,1.7c0,1.3-0.5,2.3-1.4,3c-0.9,0.7-2.2,1-3.8,1h-5.6l2.4-12.9h5.1
		c1.2,0,2.1,0.2,2.7,0.7s1,1.1,1,2c0,0.9-0.2,1.6-0.7,2.2s-1,1-1.8,1.3C82.1,96.9,82.5,97.2,82.9,97.7z M81.1,101.5
		c0.6-0.5,1-1.2,1-2.1c0-0.7-0.2-1.2-0.7-1.5c-0.5-0.3-1.2-0.5-2.1-0.5H75l-0.9,4.8h4.2C79.6,102.3,80.5,102,81.1,101.5z M76.1,91.6
		l-0.9,4.7h3.8c1.1,0,1.9-0.2,2.5-0.7c0.6-0.5,1-1.2,1-2.1c0-0.6-0.2-1.1-0.7-1.4c-0.5-0.3-1.1-0.5-1.9-0.5H76.1z"/>
	<path fill="#90918D" d="M96.6,98.5c0,1-0.2,1.8-0.7,2.6s-1.1,1.3-1.9,1.7s-1.8,0.6-2.9,0.6h-4.8l2.4-12.9h1.2l-0.9,4.6h3.7
		C95.3,95.1,96.6,96.2,96.6,98.5z M94.2,101.3c0.7-0.7,1.1-1.6,1.1-2.7c0-0.8-0.2-1.5-0.7-1.9c-0.5-0.4-1.2-0.6-2.1-0.6h-3.6
		l-1.1,6.1h3.5C92.5,102.3,93.5,102,94.2,101.3z M100.5,90.5h1.2l-2.4,12.9h-1.2L100.5,90.5z"/>
	<path fill="#90918D" d="M116.4,90.5l-2.4,12.9h-1.2l2.2-11.7h-7.6l-2.2,11.7H104l2.4-12.9H116.4z"/>
	<path fill="#90918D" d="M130.6,90.5l-7.4,10.9c-1,1.5-2.1,2.2-3.4,2.2c-0.5,0-1-0.1-1.5-0.4l0.5-1.1c0.4,0.2,0.7,0.2,1,0.2
		c0.8,0,1.6-0.5,2.3-1.4l0.5-0.7l-3-9.8h1.3l2.6,8.7l5.9-8.7H130.6z"/>
	<path fill="#90918D" d="M147.9,90.5l-2.4,12.9h-14.7l2.4-12.9h1.2l-2.2,11.7h5.5l2.2-11.7h1.2l-2.2,11.7h5.5l2.2-11.7H147.9z
		 M147.6,102.2l-0.8,4.1h-1.2l0.5-2.9h-1.9l0.2-1.2H147.6z"/>
	<path fill="#90918D" d="M153.9,91.7l-0.9,4.6h6.2l-0.2,1.2h-6.2l-0.9,4.8h7.2l-0.2,1.2h-8.4l2.4-12.9h8.2l-0.2,1.2H153.9z"/>
	<path fill="#90918D" d="M174.8,90.5l-2.4,12.9h-1.2l1.1-5.9h-7.5l-1.1,5.9h-1.2l2.4-12.9h1.2l-1.1,5.7h7.5l1.1-5.7H174.8z"/>
	<path fill="#90918D" d="M179.9,102.8c-0.8-0.4-1.5-1.1-1.9-1.9c-0.4-0.8-0.6-1.7-0.6-2.8c0-1.4,0.3-2.7,0.9-3.9
		c0.6-1.2,1.4-2.1,2.5-2.8c1.1-0.7,2.4-1,3.8-1c1.2,0,2.2,0.2,3,0.7c0.8,0.4,1.5,1.1,1.9,1.9c0.4,0.8,0.7,1.7,0.7,2.8
		c0,1.4-0.3,2.7-0.9,3.9c-0.6,1.2-1.4,2.1-2.5,2.8c-1.1,0.7-2.4,1-3.8,1C181.7,103.5,180.7,103.3,179.9,102.8z M186,101.4
		c0.9-0.6,1.6-1.4,2.1-2.4c0.5-1,0.7-2.1,0.7-3.3c0-1.3-0.4-2.3-1.1-3.1c-0.8-0.8-1.9-1.1-3.3-1.1c-1.2,0-2.2,0.3-3.1,0.9
		c-0.9,0.6-1.6,1.4-2.1,2.4c-0.5,1-0.7,2.1-0.7,3.2c0,1.3,0.4,2.3,1.1,3.1c0.8,0.8,1.9,1.1,3.3,1.1C184.1,102.3,185.1,102,186,101.4
		z"/>
	<path fill="#90918D" d="M200.4,102.8c-0.8-0.4-1.5-1.1-1.9-1.9c-0.4-0.8-0.6-1.7-0.6-2.8c0-1.4,0.3-2.7,0.9-3.9
		c0.6-1.2,1.4-2.1,2.5-2.8c1.1-0.7,2.4-1,3.8-1c1.2,0,2.2,0.2,3,0.7c0.8,0.4,1.5,1.1,1.9,1.9c0.4,0.8,0.7,1.7,0.7,2.8
		c0,1.4-0.3,2.7-0.9,3.9c-0.6,1.2-1.4,2.1-2.5,2.8c-1.1,0.7-2.4,1-3.8,1C202.2,103.5,201.2,103.3,200.4,102.8z M206.5,101.4
		c0.9-0.6,1.6-1.4,2.1-2.4c0.5-1,0.7-2.1,0.7-3.3c0-1.3-0.4-2.3-1.1-3.1c-0.8-0.8-1.9-1.1-3.3-1.1c-1.2,0-2.2,0.3-3.1,0.9
		c-0.9,0.6-1.6,1.4-2.1,2.4c-0.5,1-0.7,2.1-0.7,3.2c0,1.3,0.4,2.3,1.1,3.1c0.8,0.8,1.9,1.1,3.3,1.1
		C204.6,102.3,205.7,102,206.5,101.4z"/>
	<path fill="#90918D" d="M222.9,91.7h-4.2l-2.2,11.7h-1.2l2.2-11.7h-4.2l0.2-1.2h9.7L222.9,91.7z"/>
	<path fill="#90918D" d="M232.4,102.2h1.8l-0.8,4.1h-1.2l0.5-2.9h-10.4l-0.6,2.9h-1.2l0.8-4.1h0.5c0.8,0,1.5-0.7,2.1-2.1
		s1.1-3.2,1.6-5.5l0.9-4.1h8.1L232.4,102.2z M225.4,99.7c-0.4,1.3-1,2.1-1.6,2.5h7.3l1.9-10.5h-5.7l-0.7,3.2
		C226.3,96.8,225.8,98.4,225.4,99.7z"/>
	<path fill="#90918D" d="M240.6,91.7l-0.9,4.6h6.2l-0.2,1.2h-6.2l-0.9,4.8h7.2l-0.2,1.2h-8.4l2.4-12.9h8.2l-0.2,1.2H240.6z"/>
	<path fill="#90918D" d="M260.9,90.5l-2.4,12.9h-1.2l2.2-11.7h-5.8l-0.9,4.3c-0.4,1.9-0.8,3.4-1.2,4.4c-0.4,1.1-0.9,1.9-1.4,2.4
		c-0.5,0.5-1.1,0.7-1.8,0.7c-0.3,0-0.6,0-1-0.1l0.3-1.2c0.2,0,0.4,0.1,0.5,0.1c0.5,0,1-0.2,1.3-0.6s0.7-1.1,1.1-2
		c0.3-0.9,0.7-2.1,1-3.7l1.2-5.5H260.9z"/>
	<path fill="#90918D" d="M265.9,102.8c-0.8-0.4-1.5-1.1-1.9-1.9c-0.4-0.8-0.6-1.7-0.6-2.8c0-1.4,0.3-2.7,0.9-3.9
		c0.6-1.2,1.4-2.1,2.5-2.8c1.1-0.7,2.4-1,3.8-1c1.2,0,2.2,0.2,3,0.7c0.8,0.4,1.5,1.1,1.9,1.9c0.4,0.8,0.7,1.7,0.7,2.8
		c0,1.4-0.3,2.7-0.9,3.9c-0.6,1.2-1.4,2.1-2.5,2.8c-1.1,0.7-2.4,1-3.8,1C267.8,103.5,266.8,103.3,265.9,102.8z M272.1,101.4
		c0.9-0.6,1.6-1.4,2.1-2.4c0.5-1,0.7-2.1,0.7-3.3c0-1.3-0.4-2.3-1.1-3.1c-0.8-0.8-1.9-1.1-3.3-1.1c-1.2,0-2.2,0.3-3.1,0.9
		c-0.9,0.6-1.6,1.4-2.1,2.4c-0.5,1-0.7,2.1-0.7,3.2c0,1.3,0.4,2.3,1.1,3.1c0.8,0.8,1.9,1.1,3.3,1.1
		C270.2,102.3,271.2,102,272.1,101.4z"/>
	<path fill="#90918D" d="M293.4,90.5l-2.4,12.9h-1.2l1.9-10.2l-6.2,8.6h-0.6l-3.2-8.8l-1.9,10.4h-1.2l2.4-12.9h1l3.5,9.6l6.8-9.6
		H293.4z"/>
	<path fill="#90918D" d="M313.3,90.5l-2.4,12.9h-1.2l1.1-5.9h-7.5l-1.1,5.9h-1.2l2.4-12.9h1.2l-1.1,5.7h7.5l1.1-5.7H313.3z"/>
	<path fill="#90918D" d="M324,99.9h-6.7l-2.1,3.4h-1.4l7.9-12.9h1.2l3.1,12.9h-1.3L324,99.9z M323.7,98.8l-1.6-7l-4.2,7H323.7z"/>
	<path fill="#90918D" d="M331.4,90.5h8.8l-0.2,1.2h-7.5l-0.8,4.2h3.9c1.2,0,2.2,0.3,2.8,0.8c0.6,0.5,0.9,1.3,0.9,2.4
		c0,1.4-0.5,2.4-1.4,3.2s-2.3,1.1-4,1.1H329L331.4,90.5z M334.1,102.3c1.2,0,2.2-0.3,2.9-0.8s1-1.3,1-2.3c0-0.8-0.2-1.3-0.7-1.7
		c-0.5-0.4-1.2-0.5-2.2-0.5h-3.6l-1,5.3H334.1z"/>
	<path fill="#90918D" d="M353.6,90.5l-2.4,12.9h-1.2l2.2-11.7h-5.8l-0.9,4.3c-0.4,1.9-0.8,3.4-1.2,4.4c-0.4,1.1-0.9,1.9-1.4,2.4
		c-0.5,0.5-1.1,0.7-1.8,0.7c-0.3,0-0.6,0-1-0.1l0.3-1.2c0.2,0,0.4,0.1,0.5,0.1c0.5,0,1-0.2,1.3-0.6c0.4-0.4,0.7-1.1,1.1-2
		c0.3-0.9,0.7-2.1,1-3.7l1.2-5.5H353.6z"/>
	<path fill="#90918D" d="M370.4,91.1c0.8,0.5,1.4,1.1,1.8,2c0.4,0.8,0.6,1.8,0.6,2.9c0,1.4-0.3,2.6-1,3.8c-0.7,1.2-1.5,2.1-2.6,2.8
		c-1.1,0.7-2.3,1.1-3.5,1.1c-1,0-1.9-0.2-2.7-0.7s-1.4-1.1-1.8-1.9c-0.4-0.8-0.6-1.8-0.6-2.9c0-0.3,0-0.5,0-0.6h-2.4l-1.1,5.9h-1.2
		l2.4-12.9h1.2l-1.1,5.7h2.4c0.3-1.1,0.7-2.1,1.4-3c0.7-0.9,1.5-1.6,2.5-2.1c1-0.5,2-0.8,3-0.8C368.7,90.4,369.6,90.6,370.4,91.1z
		 M368.7,101.4c0.9-0.6,1.6-1.4,2.1-2.3c0.5-1,0.8-2,0.8-3.1c0-0.8-0.2-1.6-0.5-2.3c-0.3-0.7-0.8-1.2-1.4-1.5
		c-0.6-0.4-1.3-0.5-2.1-0.5c-1,0-1.9,0.3-2.8,0.9c-0.9,0.6-1.6,1.4-2.1,2.3c-0.5,1-0.8,2-0.8,3.1c0,0.9,0.2,1.6,0.5,2.3
		c0.3,0.7,0.8,1.2,1.4,1.5c0.6,0.4,1.3,0.5,2,0.5C366.8,102.3,367.8,102,368.7,101.4z"/>
	<path fill="#90918D" d="M384.3,102.2h1.8l-0.8,4.1h-1.2l0.5-2.9h-10.4l-0.6,2.9h-1.2l0.8-4.1h0.5c0.8,0,1.5-0.7,2.1-2.1
		c0.6-1.3,1.1-3.2,1.6-5.5l0.9-4.1h8.1L384.3,102.2z M377.3,99.7c-0.4,1.3-1,2.1-1.6,2.5h7.3l1.9-10.5h-5.7l-0.7,3.2
		C378.2,96.8,377.8,98.4,377.3,99.7z"/>
	<path fill="#90918D" d="M392.6,91.7l-0.9,4.6h6.2l-0.2,1.2h-6.2l-0.9,4.8h7.2l-0.2,1.2h-8.4l2.4-12.9h8.2l-0.2,1.2H392.6z"/>
	<path fill="#90918D" d="M413.5,90.5l-2.4,12.9h-1.2l1.1-5.9h-7.5l-1.1,5.9h-1.2l2.4-12.9h1.2l-1.1,5.7h7.5l1.1-5.7H413.5z"/>
	<path fill="#90918D" d="M418.2,90.5h1.2l-2,10.7l9.6-10.7h1.1l-2.4,12.9h-1.2l2-10.7l-9.7,10.7h-1.1L418.2,90.5z"/>
	<path fill="#90918D" d="M441.5,90.5l-2.4,12.9h-1.2l0.7-3.9H435c-0.1,0-0.3,0-0.6,0l-3.2,3.9h-1.4l3.5-4.2
		c-0.7-0.3-1.2-0.7-1.5-1.3s-0.5-1.3-0.5-2.1c0-1.1,0.2-2,0.7-2.8c0.5-0.8,1.1-1.4,2-1.9c0.9-0.4,1.8-0.7,3-0.7H441.5z M433.2,97.6
		c0.5,0.5,1.2,0.7,2.1,0.7h3.5l1.2-6.7h-3.3c-1.3,0-2.4,0.4-3.1,1.1c-0.7,0.7-1.1,1.7-1.1,2.9C432.5,96.5,432.7,97.2,433.2,97.6z"/>
	<path fill="#90918D" d="M463.8,90.5l-2.4,12.9h-1.2l1.9-10.2l-6.2,8.6h-0.6l-3.2-8.8l-1.9,10.4h-1.2l2.4-12.9h1l3.5,9.6l6.8-9.6
		H463.8z"/>
	<path fill="#90918D" d="M474.4,99.9h-6.7l-2.1,3.4h-1.4l7.9-12.9h1.2l3.1,12.9h-1.3L474.4,99.9z M474.2,98.8l-1.6-7l-4.2,7H474.2z"
		/>
	<path fill="#90918D" d="M485.6,96.8l3.5,6.6h-1.4l-3.2-5.9h-2.8l-1.1,5.9h-1.2l2.4-12.9h1.2l-1.1,5.8h2.7l5.1-5.8h1.4L485.6,96.8z"
		/>
	<path fill="#90918D" d="M503.5,90.5l-7.4,10.9c-1,1.5-2.1,2.2-3.4,2.2c-0.5,0-1-0.1-1.5-0.4l0.5-1.1c0.4,0.2,0.7,0.2,1,0.2
		c0.8,0,1.6-0.5,2.3-1.4l0.5-0.7l-3-9.8h1.3l2.6,8.7l5.9-8.7H503.5z"/>
	<path fill="#90918D" d="M506.4,102.8c-0.8-0.4-1.5-1.1-1.9-1.9c-0.4-0.8-0.7-1.7-0.7-2.8c0-1.4,0.3-2.7,0.9-3.9s1.5-2.1,2.6-2.8
		c1.1-0.7,2.4-1,3.8-1c1,0,1.8,0.2,2.5,0.5c0.7,0.3,1.3,0.8,1.7,1.4l-0.9,0.8c-0.8-1-1.9-1.5-3.5-1.5c-1.2,0-2.2,0.3-3.1,0.9
		c-0.9,0.6-1.6,1.4-2.1,2.3c-0.5,1-0.7,2.1-0.7,3.2c0,1.3,0.4,2.3,1.2,3.1c0.8,0.8,1.9,1.1,3.3,1.1c1.6,0,2.8-0.5,3.8-1.5l0.7,0.9
		c-0.5,0.6-1.2,1-2,1.4c-0.8,0.3-1.7,0.5-2.6,0.5C508.3,103.5,507.3,103.3,506.4,102.8z"/>
	<path fill="#90918D" d="M525,99.9h-6.7l-2.1,3.4h-1.4l7.9-12.9h1.2l3.1,12.9h-1.3L525,99.9z M524.7,98.8l-1.6-7l-4.2,7H524.7z"/>
</g>
<g>
	<g>
		<g>
			<g>
				<g>
					<line fill="#90918D" x1="578.7" y1="90.7" x2="589.5" y2="101.5"/>
					
						<rect x="576.5" y="95.6" transform="matrix(0.7071 0.7071 -0.7071 0.7071 239.0104 -384.903)" fill="#90918D" width="15.3" height="1"/>
				</g>
				<g>
					<line fill="#90918D" x1="589.5" y1="90.7" x2="578.7" y2="101.5"/>
					
						<rect x="583.6" y="88.4" transform="matrix(0.7071 0.7071 -0.7071 0.7071 239.0104 -384.903)" fill="#90918D" width="1" height="15.3"/>
				</g>
			</g>
			<g>
				<g>
					<line fill="#90918D" x1="560.5" y1="90.7" x2="571.3" y2="101.5"/>
					
						<rect x="558.3" y="95.6" transform="matrix(0.7071 0.7071 -0.7071 0.7071 233.6694 -372.0087)" fill="#90918D" width="15.3" height="1"/>
				</g>
				<g>
					<line fill="#90918D" x1="571.3" y1="90.7" x2="560.5" y2="101.5"/>
					
						<rect x="565.4" y="88.4" transform="matrix(0.7071 0.7071 -0.7071 0.7071 233.6694 -372.0087)" fill="#90918D" width="1" height="15.3"/>
				</g>
			</g>
			<g>
				<g>
					<line fill="#90918D" x1="542.3" y1="90.7" x2="553" y2="101.5"/>
					
						<rect x="540" y="95.6" transform="matrix(0.7071 0.7071 -0.7071 0.7071 228.3284 -359.1143)" fill="#90918D" width="15.3" height="1"/>
				</g>
				<g>
					<line fill="#90918D" x1="553" y1="90.7" x2="542.3" y2="101.5"/>
					
						<rect x="547.2" y="88.4" transform="matrix(0.7071 0.7071 -0.7071 0.7071 228.3284 -359.1143)" fill="#90918D" width="1" height="15.3"/>
				</g>
			</g>
		</g>
	</g>
	<g>
		<g>
			<g>
				<g>
					<line fill="#90918D" x1="47.8" y1="90.7" x2="58.6" y2="101.5"/>
					
						<rect x="45.6" y="95.6" transform="matrix(0.7071 0.7071 -0.7071 0.7071 83.5103 -9.4926)" fill="#90918D" width="15.3" height="1"/>
				</g>
				<g>
					<line fill="#90918D" x1="58.6" y1="90.7" x2="47.8" y2="101.5"/>
					
						<rect x="52.7" y="88.4" transform="matrix(0.7071 0.7071 -0.7071 0.7071 83.5103 -9.4926)" fill="#90918D" width="1" height="15.3"/>
				</g>
			</g>
			<g>
				<g>
					<line fill="#90918D" x1="29.6" y1="90.7" x2="40.4" y2="101.5"/>
					
						<rect x="27.4" y="95.6" transform="matrix(0.7071 0.7071 -0.7071 0.7071 78.1693 3.4017)" fill="#90918D" width="15.3" height="1"/>
				</g>
				<g>
					<line fill="#90918D" x1="40.4" y1="90.7" x2="29.6" y2="101.5"/>
					
						<rect x="34.5" y="88.4" transform="matrix(0.7071 0.7071 -0.7071 0.7071 78.1693 3.4017)" fill="#90918D" width="1" height="15.3"/>
				</g>
			</g>
			<g>
				<g>
					<line fill="#90918D" x1="11.3" y1="90.7" x2="22.1" y2="101.5"/>
					
						<rect x="9.1" y="95.6" transform="matrix(0.7071 0.7071 -0.7071 0.7071 72.8283 16.296)" fill="#90918D" width="15.3" height="1"/>
				</g>
				<g>
					<line fill="#90918D" x1="22.1" y1="90.7" x2="11.3" y2="101.5"/>
					
						<rect x="16.2" y="88.4" transform="matrix(0.7071 0.7071 -0.7071 0.7071 72.8283 16.296)" fill="#90918D" width="1" height="15.3"/>
				</g>
			</g>
		</g>
	</g>
</g>
<rect x="6.2" y="121.7" fill="none" stroke="#90918D" stroke-width="1.5" stroke-miterlimit="10" width="589.3" height="32.4"/>
<g opacity="0.4">
	<path fill="#ED1C24" d="M16.7,144.2c0.1,0,0.2,0,0.3,0c0.1,0,0.2,0,0.3,0c0.2,0,0.4,0,0.6-0.1c0.2,0,0.4-0.1,0.6-0.3
		c0.2-0.1,0.3-0.3,0.4-0.5c0.1-0.2,0.2-0.5,0.2-0.9l-0.9-12.1h2.5l0.5,9.4l4.1-9.4h2.5l-5.6,11.8c-0.5,0.9-0.9,1.6-1.2,2.1
		c-0.4,0.5-0.7,1-1.1,1.3c-0.4,0.3-0.8,0.5-1.2,0.6c-0.4,0.1-0.9,0.2-1.5,0.2c-0.2,0-0.4,0-0.5,0c-0.1,0-0.3,0-0.5,0L16.7,144.2z"/>
	<path fill="#ED1C24" d="M33.3,130.4c1.3,0,2.1,0.3,2.6,1c0.5,0.7,0.6,1.7,0.3,3l-0.4,2.1c-0.3,1.3-0.8,2.3-1.6,3
		c-0.8,0.7-1.8,1-3,1H30l-1.3,6h-2.5l3.4-16H33.3z M31.6,132.7l-1.2,5.4h1.2c0.4,0,0.7-0.1,1-0.3s0.5-0.6,0.6-1.2l0.5-2.4
		c0.1-0.6,0.1-1-0.1-1.2c-0.2-0.2-0.5-0.3-0.8-0.3H31.6z"/>
	<path fill="#ED1C24" d="M37.8,134.3c0.3-1.3,0.8-2.3,1.6-3c0.8-0.7,1.8-1,3.1-1c1.2,0,2.1,0.3,2.6,1c0.5,0.7,0.6,1.7,0.3,3
		l-1.8,8.3c-0.3,1.3-0.8,2.3-1.6,3c-0.8,0.7-1.8,1-3.1,1c-1.2,0-2.1-0.3-2.6-1c-0.5-0.7-0.6-1.7-0.3-3L37.8,134.3z M38.6,142.8
		c-0.1,0.6-0.1,1,0.1,1.2c0.2,0.2,0.5,0.4,0.9,0.4c0.4,0,0.7-0.1,1-0.4c0.3-0.2,0.5-0.6,0.6-1.2l1.8-8.7c0.1-0.6,0.1-1-0.1-1.2
		c-0.2-0.2-0.5-0.4-0.9-0.4c-0.4,0-0.7,0.1-1,0.4c-0.3,0.2-0.5,0.6-0.6,1.2L38.6,142.8z"/>
	<path fill="#ED1C24" d="M52.1,130.4c1.3,0,2.2,0.3,2.7,0.9c0.5,0.6,0.6,1.5,0.3,2.8l-0.1,0.6c-0.2,0.8-0.4,1.5-0.8,2
		c-0.4,0.5-0.9,0.9-1.5,1.2c0.6,0.3,1,0.7,1.2,1.3c0.2,0.6,0.1,1.3,0,2.2l-0.3,1.3c-0.3,1.2-0.8,2.2-1.6,2.8c-0.8,0.6-1.8,1-3.1,1
		h-4l3.4-16H52.1z M48.9,139.3l-1,4.9h1.4c0.4,0,0.8-0.1,1-0.3c0.3-0.2,0.5-0.6,0.6-1.2l0.3-1.4c0.2-0.7,0.1-1.3-0.1-1.5
		s-0.6-0.4-1.2-0.4H48.9z M50.3,132.7l-0.9,4.2h1c0.5,0,0.9-0.1,1.2-0.4c0.3-0.2,0.5-0.7,0.7-1.3l0.2-0.9c0.1-0.6,0.1-1,0-1.3
		c-0.2-0.3-0.4-0.4-0.9-0.4H50.3z"/>
	<path fill="#ED1C24" d="M59.2,137.2h3.5l-0.5,2.3h-3.5l-1,4.7h4.4l-0.5,2.3h-6.9l3.4-16H65l-0.5,2.3h-4.4L59.2,137.2z"/>
	<path fill="#ED1C24" d="M66.2,146.5h-2.5l3.4-16h2.5l-1.5,6.9H71l1.5-6.9H75l-3.4,16H69l1.5-6.9h-2.9L66.2,146.5z"/>
	<path fill="#ED1C24" d="M78.2,137h1.5c1.3,0,2.1,0.3,2.6,1c0.5,0.7,0.6,1.7,0.3,3l-0.3,1.6c-0.3,1.3-0.8,2.3-1.6,3
		c-0.8,0.7-1.8,1-3,1h-4l3.4-16h2.5L78.2,137z M78.2,144.2c0.4,0,0.7-0.1,1-0.3c0.3-0.2,0.5-0.6,0.6-1.2l0.4-1.9
		c0.1-0.6,0.1-1-0.1-1.2s-0.4-0.3-0.8-0.3h-1.5l-1,4.9H78.2z"/>
	<path fill="#ED1C24" d="M89.2,144.2c0.1,0,0.2,0,0.3,0c0.1,0,0.2,0,0.3,0c0.2,0,0.4,0,0.6-0.1c0.2,0,0.4-0.1,0.6-0.3
		c0.2-0.1,0.3-0.3,0.4-0.5c0.1-0.2,0.2-0.5,0.2-0.9l-0.9-12.1h2.5l0.5,9.4l4.1-9.4h2.5l-5.6,11.8c-0.5,0.9-0.9,1.6-1.2,2.1
		c-0.4,0.5-0.7,1-1.1,1.3c-0.4,0.3-0.8,0.5-1.2,0.6c-0.4,0.1-0.9,0.2-1.5,0.2c-0.2,0-0.4,0-0.5,0c-0.1,0-0.3,0-0.5,0L89.2,144.2z"/>
	<path fill="#ED1C24" d="M101.2,146.5h-2.5l3.4-16h6.7l-0.5,2.3h-4.1L101.2,146.5z"/>
	<path fill="#ED1C24" d="M114.6,130.4c1.3,0,2.1,0.3,2.6,1c0.5,0.7,0.6,1.7,0.3,3l-0.4,2.1c-0.3,1.3-0.8,2.3-1.6,3
		c-0.8,0.7-1.8,1-3,1h-1.2l-1.3,6h-2.5l3.4-16H114.6z M112.9,132.7l-1.2,5.4h1.2c0.4,0,0.7-0.1,1-0.3s0.5-0.6,0.6-1.2l0.5-2.4
		c0.1-0.6,0.1-1-0.1-1.2c-0.2-0.2-0.5-0.3-0.8-0.3H112.9z"/>
	<path fill="#ED1C24" d="M119.1,134.3c0.3-1.3,0.8-2.3,1.6-3c0.8-0.7,1.8-1,3.1-1c1.2,0,2.1,0.3,2.6,1c0.5,0.7,0.6,1.7,0.3,3
		l-1.8,8.3c-0.3,1.3-0.8,2.3-1.6,3c-0.8,0.7-1.8,1-3.1,1c-1.2,0-2.1-0.3-2.6-1c-0.5-0.7-0.6-1.7-0.3-3L119.1,134.3z M119.8,142.8
		c-0.1,0.6-0.1,1,0.1,1.2c0.2,0.2,0.5,0.4,0.9,0.4c0.4,0,0.7-0.1,1-0.4c0.3-0.2,0.5-0.6,0.6-1.2l1.8-8.7c0.1-0.6,0.1-1-0.1-1.2
		c-0.2-0.2-0.5-0.4-0.9-0.4c-0.4,0-0.7,0.1-1,0.4c-0.3,0.2-0.5,0.6-0.6,1.2L119.8,142.8z"/>
	<path fill="#ED1C24" d="M133.6,134.4c0.2-0.7,0.1-1.2,0-1.5c-0.2-0.3-0.5-0.4-0.9-0.4s-0.7,0.1-1,0.4c-0.3,0.2-0.5,0.6-0.6,1.2
		l-0.4,1.7h-2.4l0.3-1.6c0.3-1.3,0.8-2.3,1.6-3c0.8-0.7,1.8-1,3-1c1.2,0,2.1,0.3,2.6,1c0.5,0.7,0.6,1.7,0.3,3l-0.1,0.4
		c-0.4,1.7-1.2,2.8-2.5,3.3c0.6,0.3,0.9,0.7,1.1,1.3c0.1,0.6,0.1,1.3,0,2.1l-0.3,1.3c-0.3,1.3-0.8,2.3-1.6,3c-0.8,0.7-1.8,1-3,1
		c-1.2,0-2.1-0.3-2.6-1c-0.5-0.7-0.6-1.7-0.3-3l0.4-2h2.4l-0.5,2.2c-0.1,0.6-0.1,1,0.1,1.2c0.2,0.2,0.5,0.4,0.9,0.4s0.7-0.1,1-0.4
		c0.3-0.2,0.5-0.7,0.7-1.4l0.3-1.3c0.2-0.7,0.1-1.3-0.1-1.6c-0.2-0.3-0.6-0.5-1.2-0.5h-0.4l0.5-2.3h0.5c0.5,0,0.9-0.1,1.2-0.4
		c0.3-0.2,0.5-0.7,0.7-1.3L133.6,134.4z"/>
	<path fill="#ED1C24" d="M140.1,137h1.5c1.3,0,2.1,0.3,2.6,1c0.5,0.7,0.6,1.7,0.3,3l-0.3,1.6c-0.3,1.3-0.8,2.3-1.6,3
		c-0.8,0.7-1.8,1-3,1h-4l3.4-16h2.5L140.1,137z M140,144.2c0.4,0,0.7-0.1,1-0.3c0.3-0.2,0.5-0.6,0.6-1.2l0.4-1.9
		c0.1-0.6,0.1-1-0.1-1.2s-0.4-0.3-0.8-0.3h-1.5l-1,4.9H140z M147.6,130.4h2.5l-3.4,16h-2.5L147.6,130.4z"/>
	<path fill="#ED1C24" d="M160.4,130.4c1.3,0,2.1,0.3,2.6,1c0.5,0.7,0.6,1.7,0.3,3l-0.4,2.1c-0.3,1.3-0.8,2.3-1.6,3
		c-0.8,0.7-1.8,1-3,1H157l-1.3,6h-2.5l3.4-16H160.4z M158.7,132.7l-1.2,5.4h1.2c0.4,0,0.7-0.1,1-0.3s0.5-0.6,0.6-1.2l0.5-2.4
		c0.1-0.6,0.1-1-0.1-1.2c-0.2-0.2-0.5-0.3-0.8-0.3H158.7z"/>
	<path fill="#ED1C24" d="M169.8,146.5h-2.5l0.2-2.9h-3.1l-1.1,2.9H161l6-16h3.7L169.8,146.5z M165.2,141.4h2.4l0.5-8.1L165.2,141.4z
		"/>
	<path fill="#ED1C24" d="M179.9,140.5l-0.5,2.1c-0.3,1.3-0.8,2.3-1.6,3c-0.8,0.7-1.8,1-3,1c-1.2,0-2.1-0.3-2.6-1
		c-0.5-0.7-0.6-1.7-0.3-3l1.8-8.3c0.3-1.3,0.8-2.3,1.6-3c0.8-0.7,1.8-1,3-1c1.2,0,2.1,0.3,2.6,1c0.5,0.7,0.6,1.7,0.3,3l-0.3,1.6
		h-2.4l0.4-1.7c0.1-0.6,0.1-1-0.1-1.2c-0.2-0.2-0.5-0.4-0.9-0.4c-0.4,0-0.7,0.1-1,0.4c-0.3,0.2-0.5,0.6-0.6,1.2l-1.8,8.7
		c-0.1,0.6-0.1,1,0.1,1.2c0.2,0.2,0.5,0.3,0.9,0.3c0.4,0,0.7-0.1,1-0.3c0.3-0.2,0.5-0.6,0.6-1.2l0.5-2.3H179.9z"/>
	<path fill="#ED1C24" d="M190.6,134.9c-0.4,1.7-1.1,2.7-2.4,3.3c0.6,0.3,0.9,0.7,1,1.3c0.1,0.6,0.1,1.3-0.1,2.1l-0.3,1.4
		c-0.1,0.3-0.1,0.6-0.1,0.7s0.1,0.3,0.1,0.3c0.1,0.1,0.2,0.1,0.3,0.1s0.3,0,0.5,0h0.1l-0.5,2.3h-1.1c-0.8,0-1.4-0.2-1.7-0.6
		c-0.4-0.4-0.5-1-0.3-1.7l0.6-2.6c0.2-0.7,0.1-1.3-0.2-1.6c-0.3-0.3-0.7-0.5-1.3-0.5h-0.9l-1.5,7h-2.5l3.4-16h2.5l-1.4,6.8h1
		c0.5,0,0.9-0.1,1.3-0.4s0.7-0.7,0.8-1.3l0.6-2.8c0.1-0.7,0.5-1.3,1-1.7c0.6-0.4,1.2-0.6,2-0.6h1l-0.5,2.3h-0.1c-0.2,0-0.4,0-0.5,0
		s-0.3,0-0.4,0.1c-0.1,0.1-0.2,0.2-0.3,0.3s-0.2,0.4-0.2,0.7L190.6,134.9z"/>
	<path fill="#ED1C24" d="M198.6,130.4c1.3,0,2.1,0.3,2.6,1c0.5,0.7,0.6,1.7,0.3,3l-0.4,2.1c-0.3,1.3-0.8,2.3-1.6,3
		c-0.8,0.7-1.8,1-3,1h-1.2l-1.3,6h-2.5l3.4-16H198.6z M196.9,132.7l-1.2,5.4h1.2c0.4,0,0.7-0.1,1-0.3s0.5-0.6,0.6-1.2l0.5-2.4
		c0.1-0.6,0.1-1-0.1-1.2c-0.2-0.2-0.5-0.3-0.8-0.3H196.9z"/>
	<path fill="#ED1C24" d="M205.1,137h1.5c1.3,0,2.1,0.3,2.6,1c0.5,0.7,0.6,1.7,0.3,3l-0.3,1.6c-0.3,1.3-0.8,2.3-1.6,3
		c-0.8,0.7-1.8,1-3,1h-4l3.4-16h2.5L205.1,137z M205.1,144.2c0.4,0,0.7-0.1,1-0.3c0.3-0.2,0.5-0.6,0.6-1.2l0.4-1.9
		c0.1-0.6,0.1-1-0.1-1.2s-0.4-0.3-0.8-0.3h-1.5l-1,4.9H205.1z M212.7,130.4h2.5l-3.4,16h-2.5L212.7,130.4z"/>
	<path fill="#ED1C24" d="M216.9,130.4h7.8l-0.5,2.3h-2.6l-2.9,13.8h-2.5l2.9-13.8h-2.6L216.9,130.4z"/>
	<path fill="#ED1C24" d="M224.9,146.5H223l3.4-16h2.2l-2,9.6l6-9.6h1.8l-3.4,16h-2.3l1.9-9.1L224.9,146.5z"/>
	<path fill="#ED1C24" d="M234.9,142c0.2-0.8,0.5-1.6,0.8-2.1c0.4-0.6,0.9-1,1.6-1.3c-1-0.5-1.3-1.6-1-3.3l0.3-1.3
		c0.3-1.2,0.8-2.2,1.5-2.8s1.7-0.9,3.1-0.9h3.8l-3.4,16H239l1.4-6.5h-0.9c-0.6,0-1,0.2-1.4,0.5c-0.3,0.3-0.6,0.8-0.7,1.6l-0.5,2.2
		c-0.1,0.7-0.5,1.2-1,1.7c-0.5,0.4-1.3,0.6-2.3,0.6h-0.8l0.5-2.3h0.1c0.3,0,0.5-0.1,0.7-0.2c0.2-0.1,0.3-0.5,0.4-1L234.9,142z
		 M240.7,132.7c-0.4,0-0.8,0.1-1.1,0.4c-0.3,0.3-0.5,0.7-0.6,1.3l-0.3,1.6c-0.1,0.6-0.1,1.1,0.1,1.3c0.2,0.2,0.6,0.4,1,0.4h1l1-4.9
		H240.7z"/>
	<path fill="#ED1C24" d="M254.4,141.8l4.1-11.4h3.5l-3.4,16h-2.4l2.4-11.5l-4.2,11.5h-2.4l0.5-11.3l-2.4,11.3H248l3.4-16h3.5
		L254.4,141.8z"/>
	<path fill="#ED1C24" d="M269.2,146.5h-2.5l0.2-2.9h-3.1l-1.1,2.9h-2.3l6-16h3.7L269.2,146.5z M264.5,141.4h2.4l0.5-8.1L264.5,141.4
		z"/>
	<path fill="#ED1C24" d="M273.5,146.5H271l3.4-16h6.7l-0.5,2.3h-4.1L273.5,146.5z"/>
	<path fill="#ED1C24" d="M281.6,146.5h-1.8l3.4-16h2.2l-2,9.6l6-9.6h1.8l-3.4,16h-2.3l1.9-9.1L281.6,146.5z"/>
	<path fill="#ED1C24" d="M295.4,130.4l-1.3,6.2c-0.1,0.6-0.1,1,0.1,1.2c0.2,0.2,0.5,0.3,0.9,0.3c0.4,0,0.7-0.1,1-0.3
		c0.3-0.2,0.5-0.6,0.6-1.1l1.4-6.4h2.5l-3.4,16h-2.5l1.3-6.2c-0.2,0.1-0.5,0.1-0.7,0.1c-0.2,0-0.5,0-0.7,0c-1.2,0-2.1-0.3-2.6-1
		s-0.6-1.7-0.3-3l1.3-6H295.4z"/>
	<path fill="#ED1C24" d="M303.7,137.2h3.5l-0.5,2.3h-3.5l-1,4.7h4.4l-0.5,2.3h-6.9l3.4-16h6.9l-0.5,2.3h-4.4L303.7,137.2z"/>
	<path fill="#ED1C24" d="M316.8,140.5l-0.5,2.1c-0.3,1.3-0.8,2.3-1.6,3c-0.8,0.7-1.8,1-3,1s-2.1-0.3-2.6-1c-0.5-0.7-0.6-1.7-0.3-3
		l1.8-8.3c0.3-1.3,0.8-2.3,1.6-3c0.8-0.7,1.8-1,3-1c1.2,0,2.1,0.3,2.6,1c0.5,0.7,0.6,1.7,0.3,3l-0.3,1.6h-2.4l0.4-1.7
		c0.1-0.6,0.1-1-0.1-1.2c-0.2-0.2-0.5-0.4-0.9-0.4c-0.4,0-0.7,0.1-1,0.4c-0.3,0.2-0.5,0.6-0.6,1.2l-1.8,8.7c-0.1,0.6-0.1,1,0.1,1.2
		c0.2,0.2,0.5,0.3,0.9,0.3c0.4,0,0.7-0.1,1-0.3c0.3-0.2,0.5-0.6,0.6-1.2l0.5-2.3H316.8z"/>
	<path fill="#ED1C24" d="M327.5,134.9c-0.4,1.7-1.1,2.7-2.4,3.3c0.6,0.3,0.9,0.7,1,1.3c0.1,0.6,0.1,1.3-0.1,2.1l-0.3,1.4
		c-0.1,0.3-0.1,0.6-0.1,0.7c0,0.2,0.1,0.3,0.1,0.3c0.1,0.1,0.2,0.1,0.3,0.1s0.3,0,0.5,0h0.1l-0.5,2.3h-1.1c-0.8,0-1.4-0.2-1.7-0.6
		c-0.4-0.4-0.5-1-0.3-1.7l0.6-2.6c0.2-0.7,0.1-1.3-0.2-1.6c-0.3-0.3-0.7-0.5-1.3-0.5h-0.9l-1.5,7h-2.5l3.4-16h2.5l-1.4,6.8h1
		c0.5,0,0.9-0.1,1.3-0.4c0.4-0.2,0.7-0.7,0.8-1.3l0.6-2.8c0.1-0.7,0.5-1.3,1-1.7c0.6-0.4,1.2-0.6,2-0.6h1l-0.5,2.3h-0.1
		c-0.2,0-0.4,0-0.5,0c-0.1,0-0.3,0-0.4,0.1c-0.1,0.1-0.2,0.2-0.3,0.3s-0.2,0.4-0.2,0.7L327.5,134.9z"/>
	<path fill="#ED1C24" d="M330.5,134.3c0.3-1.3,0.8-2.3,1.6-3c0.8-0.7,1.8-1,3.1-1c1.2,0,2.1,0.3,2.6,1s0.6,1.7,0.3,3l-1.8,8.3
		c-0.3,1.3-0.8,2.3-1.6,3c-0.8,0.7-1.8,1-3.1,1s-2.1-0.3-2.6-1c-0.5-0.7-0.6-1.7-0.3-3L330.5,134.3z M331.2,142.8
		c-0.1,0.6-0.1,1,0.1,1.2c0.2,0.2,0.5,0.4,0.9,0.4c0.4,0,0.7-0.1,1-0.4c0.3-0.2,0.5-0.6,0.6-1.2l1.8-8.7c0.1-0.6,0.1-1-0.1-1.2
		c-0.2-0.2-0.5-0.4-0.9-0.4c-0.4,0-0.7,0.1-1,0.4s-0.5,0.6-0.6,1.2L331.2,142.8z"/>
	<path fill="#ED1C24" d="M340,146.5h-2.5l3.4-16h6.7l-0.5,2.3H343L340,146.5z"/>
	<path fill="#ED1C24" d="M348.2,134.3c0.3-1.3,0.8-2.3,1.6-3c0.8-0.7,1.8-1,3.1-1c1.2,0,2.1,0.3,2.6,1c0.5,0.7,0.6,1.7,0.3,3
		l-1.8,8.3c-0.3,1.3-0.8,2.3-1.6,3c-0.8,0.7-1.8,1-3.1,1c-1.2,0-2.1-0.3-2.6-1c-0.5-0.7-0.6-1.7-0.3-3L348.2,134.3z M348.9,142.8
		c-0.1,0.6-0.1,1,0.1,1.2c0.2,0.2,0.5,0.4,0.9,0.4c0.4,0,0.7-0.1,1-0.4c0.3-0.2,0.5-0.6,0.6-1.2l1.8-8.7c0.1-0.6,0.1-1-0.1-1.2
		s-0.5-0.4-0.9-0.4c-0.4,0-0.7,0.1-1,0.4c-0.3,0.2-0.5,0.6-0.6,1.2L348.9,142.8z"/>
	<path fill="#ED1C24" d="M368.4,140.5l-0.5,2.1c-0.3,1.3-0.8,2.3-1.6,3c-0.8,0.7-1.8,1-3,1s-2.1-0.3-2.6-1c-0.5-0.7-0.6-1.7-0.3-3
		l1.8-8.3c0.3-1.3,0.8-2.3,1.6-3c0.8-0.7,1.8-1,3-1c1.2,0,2.1,0.3,2.6,1c0.5,0.7,0.6,1.7,0.3,3l-0.3,1.6H367l0.4-1.7
		c0.1-0.6,0.1-1-0.1-1.2c-0.2-0.2-0.5-0.4-0.9-0.4c-0.4,0-0.7,0.1-1,0.4c-0.3,0.2-0.5,0.6-0.6,1.2l-1.8,8.7c-0.1,0.6-0.1,1,0.1,1.2
		c0.2,0.2,0.5,0.3,0.9,0.3c0.4,0,0.7-0.1,1-0.3c0.3-0.2,0.5-0.6,0.6-1.2l0.5-2.3H368.4z"/>
	<path fill="#ED1C24" d="M371.6,134.3c0.3-1.3,0.8-2.3,1.6-3c0.8-0.7,1.8-1,3.1-1c1.2,0,2.1,0.3,2.6,1s0.6,1.7,0.3,3l-1.8,8.3
		c-0.3,1.3-0.8,2.3-1.6,3c-0.8,0.7-1.8,1-3.1,1s-2.1-0.3-2.6-1c-0.5-0.7-0.6-1.7-0.3-3L371.6,134.3z M372.3,142.8
		c-0.1,0.6-0.1,1,0.1,1.2c0.2,0.2,0.5,0.4,0.9,0.4c0.4,0,0.7-0.1,1-0.4c0.3-0.2,0.5-0.6,0.6-1.2l1.8-8.7c0.1-0.6,0.1-1-0.1-1.2
		c-0.2-0.2-0.5-0.4-0.9-0.4c-0.4,0-0.7,0.1-1,0.4s-0.5,0.6-0.6,1.2L372.3,142.8z"/>
	<path fill="#ED1C24" d="M381.2,134.3c0.3-1.3,0.8-2.3,1.6-3c0.8-0.7,1.8-1,3.1-1c1.2,0,2.1,0.3,2.6,1s0.6,1.7,0.3,3l-1.8,8.3
		c-0.3,1.3-0.8,2.3-1.6,3c-0.8,0.7-1.8,1-3.1,1s-2.1-0.3-2.6-1c-0.5-0.7-0.6-1.7-0.3-3L381.2,134.3z M381.9,142.8
		c-0.1,0.6-0.1,1,0.1,1.2c0.2,0.2,0.5,0.4,0.9,0.4c0.4,0,0.7-0.1,1-0.4c0.3-0.2,0.5-0.6,0.6-1.2l1.8-8.7c0.1-0.6,0.1-1-0.1-1.2
		c-0.2-0.2-0.5-0.4-0.9-0.4c-0.4,0-0.7,0.1-1,0.4s-0.5,0.6-0.6,1.2L381.9,142.8z"/>
	<path fill="#ED1C24" d="M392.8,137h1.5c1.3,0,2.1,0.3,2.6,1c0.5,0.7,0.6,1.7,0.3,3l-0.3,1.6c-0.3,1.3-0.8,2.3-1.6,3
		c-0.8,0.7-1.8,1-3,1h-4l3.4-16h6.7l-0.5,2.3h-4.1L392.8,137z M392.7,144.2c0.4,0,0.7-0.1,1-0.3c0.3-0.2,0.5-0.6,0.6-1.2l0.4-1.9
		c0.1-0.6,0.1-1-0.1-1.2c-0.2-0.2-0.4-0.3-0.8-0.3h-1.5l-1,4.9H392.7z"/>
	<path fill="#ED1C24" d="M398,146.5l3.4-16h2.5l-2.9,13.8h2l2.9-13.8h2.5l-2.9,13.8h2l2.9-13.8h2.5l-2.9,13.8h1.1l-0.9,4.1h-2.1
		c0.1-0.4,0.1-0.7,0.2-0.9s0.1-0.4,0.1-0.6c0-0.1,0-0.2-0.1-0.3c-0.1-0.1-0.1-0.1-0.2-0.1H398z"/>
	<path fill="#ED1C24" d="M417.2,137.2h3.5l-0.5,2.3h-3.5l-1,4.7h4.4l-0.5,2.3h-6.9l3.4-16h6.9l-0.5,2.3h-4.4L417.2,137.2z"/>
	<path fill="#ED1C24" d="M430.3,140.5l-0.5,2.1c-0.3,1.3-0.8,2.3-1.6,3c-0.8,0.7-1.8,1-3,1s-2.1-0.3-2.6-1c-0.5-0.7-0.6-1.7-0.3-3
		l1.8-8.3c0.3-1.3,0.8-2.3,1.6-3c0.8-0.7,1.8-1,3-1c1.2,0,2.1,0.3,2.6,1c0.5,0.7,0.6,1.7,0.3,3l-0.3,1.6h-2.4l0.4-1.7
		c0.1-0.6,0.1-1-0.1-1.2c-0.2-0.2-0.5-0.4-0.9-0.4c-0.4,0-0.7,0.1-1,0.4c-0.3,0.2-0.5,0.6-0.6,1.2l-1.8,8.7c-0.1,0.6-0.1,1,0.1,1.2
		c0.2,0.2,0.5,0.3,0.9,0.3c0.4,0,0.7-0.1,1-0.3c0.3-0.2,0.5-0.6,0.6-1.2l0.5-2.3H430.3z"/>
	<path fill="#ED1C24" d="M434.1,130.4h7.8l-0.5,2.3h-2.6l-2.9,13.8h-2.5l2.9-13.8h-2.6L434.1,130.4z"/>
	<path fill="#ED1C24" d="M447.4,130.4c1.3,0,2.2,0.3,2.7,0.9c0.5,0.6,0.6,1.5,0.3,2.8l-0.1,0.6c-0.2,0.8-0.4,1.5-0.8,2
		c-0.4,0.5-0.9,0.9-1.5,1.2c0.6,0.3,1,0.7,1.2,1.3c0.2,0.6,0.1,1.3,0,2.2l-0.3,1.3c-0.3,1.2-0.8,2.2-1.6,2.8c-0.8,0.6-1.8,1-3.1,1
		h-4l3.4-16H447.4z M444.2,139.3l-1,4.9h1.4c0.4,0,0.8-0.1,1-0.3c0.3-0.2,0.5-0.6,0.6-1.2l0.3-1.4c0.2-0.7,0.1-1.3-0.1-1.5
		s-0.6-0.4-1.2-0.4H444.2z M445.6,132.7l-0.9,4.2h1c0.5,0,0.9-0.1,1.2-0.4s0.5-0.7,0.7-1.3l0.2-0.9c0.1-0.6,0.1-1,0-1.3
		c-0.2-0.3-0.4-0.4-0.9-0.4H445.6z"/>
	<path fill="#ED1C24" d="M458,146.5h-2.5l0.2-2.9h-3.1l-1.1,2.9h-2.3l6-16h3.7L458,146.5z M453.3,141.4h2.4l0.5-8.1L453.3,141.4z"/>
	<path fill="#ED1C24" d="M466.2,137.4h22.9l-0.4,2.1h-22.9L466.2,137.4z"/>
	<path fill="#ED1C24" d="M502.4,140.5l-0.5,2.1c-0.3,1.3-0.8,2.3-1.6,3c-0.8,0.7-1.8,1-3,1s-2.1-0.3-2.6-1c-0.5-0.7-0.6-1.7-0.3-3
		l1.8-8.3c0.3-1.3,0.8-2.3,1.6-3c0.8-0.7,1.8-1,3-1c1.2,0,2.1,0.3,2.6,1c0.5,0.7,0.6,1.7,0.3,3l-0.3,1.6H501l0.4-1.7
		c0.1-0.6,0.1-1-0.1-1.2c-0.2-0.2-0.5-0.4-0.9-0.4c-0.4,0-0.7,0.1-1,0.4c-0.3,0.2-0.5,0.6-0.6,1.2l-1.8,8.7c-0.1,0.6-0.1,1,0.1,1.2
		c0.2,0.2,0.5,0.3,0.9,0.3c0.4,0,0.7-0.1,1-0.3c0.3-0.2,0.5-0.6,0.6-1.2l0.5-2.3H502.4z"/>
	<path fill="#ED1C24" d="M507.5,137.2h3.5l-0.5,2.3H507l-1,4.7h4.4l-0.5,2.3H503l3.4-16h6.9l-0.5,2.3h-4.4L507.5,137.2z"/>
	<path fill="#ED1C24" d="M519.1,130.4c1.3,0,2.1,0.3,2.6,1c0.5,0.7,0.6,1.7,0.3,3l-0.4,2.1c-0.3,1.3-0.8,2.3-1.6,3
		c-0.8,0.7-1.8,1-3,1h-1.2l-1.3,6H512l3.4-16H519.1z M517.4,132.7l-1.2,5.4h1.2c0.4,0,0.7-0.1,1-0.3c0.3-0.2,0.5-0.6,0.6-1.2
		l0.5-2.4c0.1-0.6,0.1-1-0.1-1.2c-0.2-0.2-0.5-0.3-0.8-0.3H517.4z"/>
	<path fill="#ED1C24" d="M525.6,137h1.5c1.3,0,2.1,0.3,2.6,1c0.5,0.7,0.6,1.7,0.3,3l-0.3,1.6c-0.3,1.3-0.8,2.3-1.6,3
		c-0.8,0.7-1.8,1-3,1h-4l3.4-16h2.5L525.6,137z M525.6,144.2c0.4,0,0.7-0.1,1-0.3c0.3-0.2,0.5-0.6,0.6-1.2l0.4-1.9
		c0.1-0.6,0.1-1-0.1-1.2c-0.2-0.2-0.4-0.3-0.8-0.3h-1.5l-1,4.9H525.6z"/>
	<path fill="#ED1C24" d="M535,137.2h3.5l-0.5,2.3h-3.5l-1,4.7h4.4l-0.5,2.3h-6.9l3.4-16h6.9l-0.5,2.3h-4.4L535,137.2z M537.3,127.3
		l-0.5,2.3h-2.3l0.5-2.3H537.3z M541,127.3l-0.5,2.3h-2.3l0.5-2.3H541z"/>
	<path fill="#ED1C24" d="M546.9,134.4c0.2-0.7,0.1-1.2,0-1.5c-0.2-0.3-0.5-0.4-0.9-0.4s-0.7,0.1-1,0.4c-0.3,0.2-0.5,0.6-0.6,1.2
		l-0.4,1.7h-2.4l0.3-1.6c0.3-1.3,0.8-2.3,1.6-3c0.8-0.7,1.8-1,3-1c1.2,0,2.1,0.3,2.6,1c0.5,0.7,0.6,1.7,0.3,3l-0.1,0.4
		c-0.4,1.7-1.2,2.8-2.5,3.3c0.6,0.3,0.9,0.7,1.1,1.3c0.1,0.6,0.1,1.3,0,2.1l-0.3,1.3c-0.3,1.3-0.8,2.3-1.6,3c-0.8,0.7-1.8,1-3,1
		s-2.1-0.3-2.6-1c-0.5-0.7-0.6-1.7-0.3-3l0.4-2h2.4l-0.5,2.2c-0.1,0.6-0.1,1,0.1,1.2c0.2,0.2,0.5,0.4,0.9,0.4s0.7-0.1,1-0.4
		c0.3-0.2,0.5-0.7,0.7-1.4l0.3-1.3c0.2-0.7,0.1-1.3-0.1-1.6c-0.2-0.3-0.6-0.5-1.2-0.5h-0.4l0.5-2.3h0.5c0.5,0,0.9-0.1,1.2-0.4
		s0.5-0.7,0.7-1.3L546.9,134.4z"/>
	<path fill="#ED1C24" d="M551.3,146.5h-2.5l3.4-16h2.5l-1.5,6.9h2.9l1.5-6.9h2.6l-3.4,16h-2.6l1.5-6.9h-2.9L551.3,146.5z"/>
	<path fill="#ED1C24" d="M563.3,137h1.5c1.3,0,2.1,0.3,2.6,1c0.5,0.7,0.6,1.7,0.3,3l-0.3,1.6c-0.3,1.3-0.8,2.3-1.6,3
		c-0.8,0.7-1.8,1-3,1h-4l3.4-16h2.5L563.3,137z M563.3,144.2c0.4,0,0.7-0.1,1-0.3c0.3-0.2,0.5-0.6,0.6-1.2l0.4-1.9
		c0.1-0.6,0.1-1-0.1-1.2c-0.2-0.2-0.4-0.3-0.8-0.3h-1.5l-1,4.9H563.3z M570.9,130.4h2.5l-3.4,16h-2.5L570.9,130.4z"/>
	<path fill="#ED1C24" d="M573.8,146.5H572l3.4-16h2.2l-2,9.6l6-9.6h1.8l-3.4,16h-2.3l1.9-9.1L573.8,146.5z M579.9,128.1
		c0.3,0,0.6-0.1,0.8-0.2c0.2-0.2,0.4-0.4,0.5-0.8h1.8c-0.2,0.9-0.6,1.6-1.2,2.1c-0.6,0.5-1.4,0.7-2.3,0.7c-0.9,0-1.6-0.2-2-0.7
		c-0.4-0.5-0.5-1.2-0.4-2.1h1.9c-0.1,0.4,0,0.7,0.2,0.8S579.6,128.1,579.9,128.1z"/>
</g>
<g opacity="0.46">
	
		<line fill="none" stroke="#000000" stroke-width="9" stroke-miterlimit="10" stroke-dasharray="2,3" x1="5.1" y1="211.5" x2="121.3" y2="211.5"/>
	
		<line fill="none" stroke="#000000" stroke-width="9" stroke-miterlimit="10" stroke-dasharray="2,3" x1="480.2" y1="211.5" x2="596.5" y2="211.5"/>
</g>
<g opacity="0.46">
	<path d="M129.9,201h3.2v13.6l9.5-13.6h3.1V220h-3.2v-13.5L133,220h-3.1V201z"/>
	<path d="M167.4,201V220h-3.3v-8.2H155v8.2h-3.3V201h3.3v7.9h9.2V201H167.4z"/>
	<path d="M191.2,216.4c-1.6,1.5-3.9,2.2-6.9,2.4v2h-3v-2c-3-0.2-5.3-1-6.9-2.4c-1.6-1.4-2.4-3.4-2.4-5.9s0.8-4.5,2.4-5.9
		s3.9-2.3,6.9-2.4v-1.9h3v1.9c3,0.2,5.3,1,6.9,2.4c1.6,1.4,2.4,3.4,2.4,5.9S192.8,215,191.2,216.4z M176.7,214.3
		c1.1,0.9,2.6,1.5,4.6,1.7v-11.1c-4.1,0.3-6.2,2.2-6.2,5.5C175.1,212.1,175.6,213.4,176.7,214.3z M188.9,214.4
		c1-0.9,1.6-2.2,1.6-3.9c0-1.7-0.5-3-1.6-3.9c-1.1-0.9-2.6-1.5-4.6-1.6V216C186.3,215.8,187.8,215.3,188.9,214.4z"/>
	<path d="M201.4,219c-1.5-0.8-2.6-2-3.4-3.5c-0.8-1.5-1.2-3.2-1.2-5s0.4-3.5,1.2-5c0.8-1.5,2-2.7,3.4-3.5c1.5-0.8,3.1-1.3,4.9-1.3
		s3.4,0.4,4.9,1.3c1.5,0.8,2.6,2,3.4,3.5c0.8,1.5,1.2,3.2,1.2,5c0,1.9-0.4,3.6-1.2,5c-0.8,1.5-2,2.7-3.4,3.5
		c-1.5,0.8-3.1,1.3-4.9,1.3S202.8,219.9,201.4,219z M209.5,216.3c0.9-0.6,1.7-1.4,2.2-2.4s0.8-2.2,0.8-3.5c0-1.3-0.3-2.4-0.8-3.4
		s-1.3-1.8-2.2-2.4c-0.9-0.6-2-0.9-3.2-0.9s-2.2,0.3-3.2,0.9c-0.9,0.6-1.7,1.4-2.2,2.4c-0.5,1-0.8,2.2-0.8,3.4
		c0,1.3,0.3,2.4,0.8,3.5c0.5,1,1.3,1.8,2.2,2.4c0.9,0.6,2,0.9,3.2,0.9S208.5,216.9,209.5,216.3z"/>
	<path d="M231.8,201.8c1.1,0.5,2,1.3,2.6,2.3s0.9,2.2,0.9,3.6c0,1.4-0.3,2.6-0.9,3.6s-1.5,1.8-2.6,2.4c-1.1,0.5-2.5,0.8-4,0.8h-4
		v5.5h-3.3V201h7.3C229.3,201,230.6,201.2,231.8,201.8z M230.9,210.6c0.7-0.7,1.1-1.6,1.1-2.8s-0.4-2.2-1.1-2.8
		c-0.7-0.7-1.8-1-3.3-1h-3.8v7.6h3.8C229,211.5,230.1,211.2,230.9,210.6z"/>
	<path d="M255.7,220l0-12.7l-5.8,10.5h-1.5l-5.8-10.3V220h-3.1V201h2.7l7,12.6l6.9-12.6h2.7l0.1,19.1H255.7z"/>
	<path d="M276.5,215.6h-8.9l-1.7,4.4h-3.4l8-19.1h3.2l8,19.1h-3.4L276.5,215.6z M275.4,212.8l-3.3-8.3l-3.3,8.3H275.4z"/>
	<path d="M303.5,217v7.2h-3V220h-15V201h3.2V217h8.9V201h3.3V217H303.5z"/>
	<path d="M307.5,201h3.2v13.6l9.5-13.6h3.1V220h-3.2v-13.5l-9.5,13.5h-3.1V201z"/>
	<path d="M342.8,201V220h-3.2v-5.3h-4.4h-0.4l-3.3,5.3h-3.5l3.8-5.9c-1.2-0.5-2.2-1.3-2.8-2.3c-0.7-1.1-1-2.3-1-3.9
		c0-1.5,0.3-2.7,0.9-3.8c0.6-1.1,1.5-1.9,2.6-2.4s2.4-0.8,3.9-0.8H342.8z M332.5,205c-0.7,0.7-1.1,1.7-1.1,2.9c0,1.3,0.3,2.2,1,2.9
		s1.7,1,3,1h4.2V204h-4C334.2,204,333.2,204.3,332.5,205z"/>
	<path d="M360.1,219c-1.4-0.8-2.6-2-3.4-3.5c-0.8-1.5-1.2-3.2-1.2-5c0-1.9,0.4-3.6,1.2-5c0.8-1.5,2-2.7,3.4-3.5
		c1.4-0.8,3.1-1.3,4.8-1.3c1.5,0,2.8,0.3,4,0.8c1.2,0.5,2.2,1.3,3,2.4l-2.1,2.2c-1.3-1.5-2.9-2.2-4.7-2.2c-1.2,0-2.3,0.3-3.3,0.9
		c-1,0.6-1.7,1.4-2.3,2.4s-0.8,2.2-0.8,3.5c0,1.3,0.3,2.4,0.8,3.5s1.3,1.8,2.3,2.4c1,0.6,2.1,0.9,3.3,0.9c1.9,0,3.5-0.8,4.7-2.3
		l2.1,2.2c-0.8,1-1.8,1.8-3,2.4c-1.2,0.5-2.5,0.8-4,0.8C363.1,220.3,361.5,219.9,360.1,219z"/>
	<path d="M382.6,212h-3.3v8H376V201h3.2v8h3.4l5.1-8h3.5l-6,9.2l6.3,9.8h-3.7L382.6,212z"/>
	<path d="M406,201.8c1.1,0.5,2,1.3,2.6,2.3s0.9,2.2,0.9,3.6c0,1.4-0.3,2.6-0.9,3.6s-1.5,1.8-2.6,2.4c-1.1,0.5-2.5,0.8-4,0.8h-4v5.5
		h-3.3V201h7.3C403.5,201,404.9,201.2,406,201.8z M405.1,210.6c0.7-0.7,1.1-1.6,1.1-2.8s-0.4-2.2-1.1-2.8c-0.7-0.7-1.8-1-3.3-1H398
		v7.6h3.8C403.3,211.5,404.4,211.2,405.1,210.6z"/>
	<path d="M426.7,209c1.1,1,1.7,2.5,1.7,4.6c0,2.1-0.6,3.7-1.9,4.8s-3,1.7-5.3,1.7h-7.6V201h3.2v6.5h4.9
		C423.9,207.4,425.6,207.9,426.7,209z M424.1,216.4c0.7-0.6,1-1.6,1-2.8c0-2.3-1.3-3.5-4-3.5h-4.2v7.2h4.2
		C422.4,217.3,423.4,217,424.1,216.4z M431,201h3.2V220H431V201z"/>
	<path d="M453,204h-5.9V220h-3.3V204h-5.8v-3h15V204z"/>
	<path d="M467.7,215.6h-8.9l-1.7,4.4h-3.4l8-19.1h3.2l8,19.1h-3.4L467.7,215.6z M466.6,212.8l-3.3-8.3l-3.3,8.3H466.6z"/>
</g>
</svg>
