<?xml version="1.0" encoding="utf-8"?>
<!-- Generator: Adobe Illustrator 17.1.0, SVG Export Plug-In . SVG Version: 6.00 Build 0)  -->
<!DOCTYPE svg PUBLIC "-//W3C//DTD SVG 1.1//EN" "http://www.w3.org/Graphics/SVG/1.1/DTD/svg11.dtd">
<svg version="1.1" id="Layer_1" xmlns="http://www.w3.org/2000/svg" xmlns:xlink="http://www.w3.org/1999/xlink" x="0px" y="0px"
	 viewBox="0 0 599 133.7" enable-background="new 0 0 599 133.7" xml:space="preserve">
<g>
	<path fill="#ED1C24" d="M38.5,64.2l0.6,0.1l1.9,3.2l0.3,0c0.3-0.9,1.5-1.3,3.8-1.2c0.3,0.2,0.6,0.4,0.8,0.4l-0.4,1.2l-7.2,8.6
		l-0.7,2.4c-0.1,0.3,0.2,0.7,0.9,1.3l0.3,0c1.3,0.1,3.4,0.2,6.2,0.2l-0.2,0.6c-2.8,0.6-4.4,0.9-4.9,0.8l-3-0.3
		c-1.2-0.8-1.6-1.9-1.2-3.2l0.2-0.6c0.4-1.4,2.6-4.1,6.6-8.3l0.4-1.2l-0.3,0c-3.2,0.6-6.1,2-8.7,4.2l-0.2,0.6l0.5,1.5
		c-0.7-0.1-1.7,0.9-3,2.8c-0.4,0-1.8,1.2-4.2,3.6c-0.4,0.2-0.8,0.2-1,0.2c-0.3-0.5-0.3-0.9-0.2-1.2c0.2-0.6,3.8-5.2,11-13.7
		C36.6,65.3,37.3,64.7,38.5,64.2z M36.5,68.9l1.2,0.1c0.4,0,0.7-0.1,0.8-0.5c0.1-0.4,0-0.6-0.4-0.6C37.3,67.9,36.8,68.3,36.5,68.9z"
		/>
	<path fill="#ED1C24" d="M61.4,66.4c1.6,0.1,2.5,1.4,2.7,3.8c-1.4,4.6-4.8,8.4-10.4,11.2c-2.2,1.2-4.3,1.7-6.3,1.7
		c-1.1-0.8-1.5-1.8-1.1-2.9c0.6-2.1,2.6-5,5.8-8.8c1.4-2.2,3.1-3.8,5.2-4.7C58.9,66.4,60.3,66.3,61.4,66.4z M54.5,70.7
		c0.1,0.5,0.1,1.3-0.1,2.4c-0.4,0.8-1.1,1.4-1.9,1.8c-0.2,1.9-0.1,3.2,0.2,3.8l-0.1,0.4c-1-0.8-1.6-1.9-1.9-3.5
		c-0.6-0.1-1.5,1.6-2.6,4.8L48,81.1c-0.1,0.2,0.1,0.5,0.4,0.7l0.2,0c4.5-1.2,8.4-3.6,11.9-7.4c0.9-1.5,1.4-2.3,1.6-2.3
		c0.7-2.4-0.3-3.8-3-4c-2,0.3-3.4,0.9-4.2,1.9C54.7,70.3,54.6,70.5,54.5,70.7z"/>
	<path fill="#ED1C24" d="M72.6,67.2c2.6,0.8,3.6,2.1,3.1,4l-0.2,0c-0.1,0.6,0,0.9,0.2,0.9c-0.4,0.5-0.7,0.9-0.8,1.2
		c0.6,0.4,0.8,1,0.6,1.7c-0.2,0.6-1.5,1.5-4.1,2.8c-2.4,1.8-4,3.4-4.8,4.6c0.1,0,0.2,0.1,0.1,0.2l0.5-0.2l0.4,0l-0.1,0.2
		c-1.6,0.7-2.9,1.9-3.9,3.7c-3.2,3.8-6.3,7.5-9.1,11c-1.6,2-3.2,2.9-4.7,2.8c-2.1-1.9-2.9-3.9-2.2-6.1l0.6-0.6l1-3.3
		c2-2.3,4.6-4,7.7-5.1l7.1-2.1c0.1-0.2,0.7-1,1.7-2.2l-0.4-0.2c-0.1,0.3-0.9,0.6-2.4,0.9c-1.7-0.1-2.1-1.5-1.3-4.1
		c3.5-6.9,6.5-10.2,8.8-10L72.6,67.2z M49.6,93.8c-0.2,3.2,0.2,4.9,1.1,4.9c0.8,0.1,3.9-3.3,9.2-10c1.3-1.6,2.2-2.9,2.4-3.8
		c-0.1,0-0.2-0.1-0.1-0.2c-3.5,1.2-5.9,2.2-7.4,3l-4.1,4.5L49.6,93.8z M71.3,68.8c-0.2,0.5-1.3,1.3-3.5,2.5c-1.9,2-3.3,4.3-4,6.8
		c-0.1,0.8,0,1.3,0.3,1.3l0.2,0c2.7,0.2,6-2.1,9.6-7L74,72c0.3-1-0.2-2.1-1.6-3.1l-0.1,0.2L72,68.8L71.3,68.8z"/>
	<path fill="#ED1C24" d="M96.4,68.9c1.1,0.1,1.5,0.7,1.1,1.7c-0.6,1.9-3.6,4.6-9.1,8l-0.2,0.8c-0.7,2.4,0.4,4.4,3.5,6l-0.1,0.3
		l-0.5,0c-3.9-0.3-5.6-2.2-5-5.6c-4.3,1.3-7.6,2.7-9.9,4.1c-2.2,0.4-3.3,0.6-3.3,0.8c-1.6-0.1-2.1-1.5-1.3-4.2
		c1.2-2.5,2.1-3.7,2.7-3.6l0.3,0c1.5,0.1,1.9,1.1,1.4,2.8c-0.3,0.3-0.5,0.7-0.6,1l-0.3,1.1c5-1.8,8.4-2.9,10.2-3.3
		c0.6-0.3,2.4-2.6,5.5-7C92.9,69.8,94.8,68.8,96.4,68.9z M91.5,74l-0.3,0.8l0.3,0c1.7-0.9,2.8-1.9,3.1-3l-0.5,0
		C93.6,71.9,92.8,72.7,91.5,74z"/>
	<path fill="#ED1C24" d="M107.7,70.3c2,0.7,2.7,1.9,2.2,3.4c-0.5,1.8-4.4,4-11.6,6.7l-0.5,1.1c-0.8,2.8-0.7,4.2,0.4,4.3
		c2.6-0.1,4.5-0.2,5.6-0.4c0,0.1,0,0.2,0.1,0.2c-0.3,1-2.5,1.6-6.6,1.8c-2.1-0.2-2.6-2.1-1.6-5.7c-0.8-0.7-1.2-1.2-1.1-1.4l0.1-0.2
		c2.1-0.8,3.6-2.6,4.5-5.4c2.3-2.7,4.3-3.9,5.9-3.8C105.2,70.6,106,70.4,107.7,70.3z M99.7,77.8l0.2,0c1.9,0.2,4.5-1,7.9-3.6
		c0.2-0.3,0.3-0.5,0.4-0.6c-0.8-0.9-1.4-1.4-1.8-1.5l-0.5,0.2c-0.2-0.2-0.5-0.3-0.8-0.3C102.5,72.8,100.6,74.8,99.7,77.8z"/>
	<path fill="#ED1C24" d="M117.3,71.1c3.3,1.4,5,2.7,5.2,3.7c-0.1,0.3-0.1,1.1-0.1,2.5l0.4,0c4.1-2.7,6.3-4.1,6.6-4
		c1.8,0.2,2.5,1.1,1.9,2.9l-0.1,0.4c-0.2,0.8-0.7,1.2-1.3,1.3c-0.8-1.1-1.3-1.7-1.6-1.7c-2.3,0.3-4.2,3.1-5.8,8.2
		c-0.4,1.3,1.3,2.2,5.1,2.7c0.8-0.2,1.3-0.4,1.3-0.6c0.2,0.2,0.5,0.3,0.6,0.3l-0.1,0.4c-2.5,0.6-4.2,0.8-5.1,0.7
		c-2.8-0.7-3.8-2.1-3.1-4.4l1.3-4.3l-0.2,0c-0.5,0-1.1,0.7-1.8,2.2c-1.9,2.2-3.8,3.8-5.4,4.8l-0.4,0c-0.2,0-0.4-0.3-0.5-0.7
		c0.5-1.5,2.5-3.7,6-6.7l0.5-0.9c0.7-2.4,0.5-3.7-0.7-3.8l-0.2,0c-5.4,7.3-10.1,11.8-13.9,13.6c-1.1-0.6-1.5-1.3-1.2-2.2
		c0.7-2.4,1.9-3.9,3.5-4.5c1.2-1.5,1.9-2.4,2-2.8c-0.6-0.1-0.6-1.2,0.1-3.5C112.2,72.1,114.6,70.8,117.3,71.1z M106.2,86l0.4,0
		c6.4-5.6,9.8-9.2,10.3-10.7l0.1-0.2c0.1-0.3,0-0.5-0.3-0.5l-0.2,0c-3.4,1.3-6.6,4.6-9.7,9.8L106.2,86z M111.4,75.9l0.4,0
		c2.5-1.8,4-2.7,4.6-2.6l0.2-0.6l-0.2,0C113.6,72.7,112,73.8,111.4,75.9z"/>
	<path fill="#ED1C24" d="M140.9,73.1c0.5,0,0.6,0.4,0.4,1c-1.8,1.2-4,3.7-6.5,7.5c-1.3,2.3-2.2,4.1-2.7,5.6c0,0.5,0.1,0.7,0.3,0.8
		c3.8-1.7,7.5-3.7,11.1-6.2c3.1-2,5.9-4.3,8.5-6.9l1.3-0.1c0.8,0.1,1.1,0.6,0.8,1.5c-1.3,2.1-2.9,3.7-4.9,4.7
		c-2.2,1.7-3.7,4.1-4.7,7.2c-0.4,1.3,0,2,1.3,2.3l-0.1,0.2c-0.1,0.3-0.3,0.5-0.6,0.4l-0.5,0c-1.8-0.1-2.3-1.4-1.6-3.8l1.1-2.8
		l-0.7-0.1c-4.8,3-8.7,4.7-11.7,5.1c-1.3-0.1-1.6-1.3-0.9-3.5l0.1-0.2c0.9-3.1,4-7.4,9.1-12.9L140.9,73.1z"/>
	<path fill="#ED1C24" d="M160.1,74.4l0.9,0.9l-0.5,0.5l-0.3,1.1l0.3,0c2.9-1.4,4.7-2.1,5.4-2l0.5,0c0.4,0,0.6,0.8,0.7,2.3l-5.9,10.3
		l-0.1,0.3c1.5,0.1,6.4-2.9,14.8-9c0.1-0.4,0.6-0.8,1.5-1.3c0.3,0.2,0.5,0.3,0.7,0.3l-0.2,0.6c-2.2,1.6-3.9,4.4-5.1,8.4
		c-0.2,0-0.4,0.3-0.5,0.8c0,2-0.1,3.2-0.2,3.6c-1.2-0.1-1.6-2.1-1-5.9l1.4-2.9c-7.6,5.8-12.1,8.6-13.5,8.5l-0.4-1.4
		c0.2-0.8,2.1-4.6,5.7-11.4l0.3-1.1l-0.3,0c-6.1,3-9.5,5.5-10.1,7.4c-1,1-2.8,3.2-5.4,6.7l-0.6,0.2l-0.3,0c-0.6-0.4-0.8-1-0.6-1.7
		c0.3,0,1.6-2,4-6c0.6-0.4,3.1-3.3,7.7-8.8C159.8,74.8,160.1,74.6,160.1,74.4z"/>
	<path fill="#ED1C24" d="M218.8,78.5c0.2,0.9,0.3,1.5,0.1,2l-0.1,0.5c-0.4,1.3-3.5,4.3-9.3,9l-3.6,3.7l-0.2,0.7l1,0.1
		c1.2,0.1,2.1,0,2.9-0.3l0.1,0.5c-0.2,0.7-2.2,1.1-6,1.3c-1.6,1.6-5.3,6.2-11,13.8c-1.8,1.4-3.3,2.1-4.4,2.1
		c-3.9-1.7-5.5-3.9-4.6-6.6c-0.2,0-0.2-0.6-0.2-1.8c1-3.4,2.9-5.4,5.7-6.2c1.9-0.9,6.3-1.7,13.2-2.4l2.8-2.5l-0.4-0.3
		c-0.2,0.6-1.9,1.1-5.1,1.6c-1.4-0.1-1.8-1.1-1.4-2.8l0.1-0.5c0.3-1,2.8-5,7.5-12.1c0.1,0,0.4,0,1.1-0.2c0.3,0,0.7,0.8,1.3,2.4
		l-0.2,0.5c-0.1,0.3-0.3,0.5-0.7,0.4c-0.2-0.2-0.5-0.3-0.9-0.3c-3.8,4.8-6,8.3-6.8,10.6c0.3,0.4,0.6,0.6,0.9,0.6
		c6.4-2.3,9.9-4.4,10.5-6.4C214.9,80.8,217.5,78.4,218.8,78.5z M187.1,100.3l-0.1,0.5l0.3,0.8l-1,1.7c-0.7,4.4,0.3,6.7,3,7
		c1.1,0.1,4-3.2,8.6-10c0.5-0.2,1.5-1.6,3.2-4l-1.5-0.1l-8.1,1.6C191.3,97.7,189.9,98.5,187.1,100.3z"/>
	<path fill="#ED1C24" d="M224.8,80.3c0.3,0,0.4,0.5,0.4,1.4c-0.6,2-1.7,3.1-3.2,3.2c-1.3,1.4-2.1,2.4-2.3,3l-0.7,2.4
		c0.7,0.1,1.4,0.5,2.1,1.2l0.3,0c5.9-0.8,9.2-2.5,10-5.1c2.2-2.5,3.9-3.7,5-3.6c1.2,0.8,1.7,1.6,1.4,2.5c-0.5,1.8-2.6,3.2-6.2,4.3
		c-1.5,1.2-2.4,2.5-2.8,3.8l-0.3,1.1c-0.3,0.9-0.1,1.6,0.5,1.9l3.5,0.3l-0.1,0.3c-0.2,0.7-1.7,0.9-4.4,0.7l-0.8-0.1
		c-0.8-0.1-1.1-1.2-1-3.3l0.4-0.5l0.7-2.4l-0.3,0l-5.5,1.2c-0.5,0-1.8-0.4-3.8-1.1c-1.2,2.1-2.1,3.1-2.8,3c-1.1,1.2-2,2-2.6,2.2
		l-1.3-0.4c0.8-2.7,5-8,12.5-15.9C224,80.3,224.4,80.2,224.8,80.3z M235.6,85.2c-0.1,0.4-0.9,1.1-2.3,2.2c0.2,0,0.3,0.1,0.2,0.3
		c0.8-0.2,1.4-0.5,2-1.2l0.4-1.3L235.6,85.2z M234.1,96.4l-0.1,0.2c-0.1,0.4-0.3,0.5-0.7,0.5l0.1-0.3
		C233.6,96.5,233.9,96.4,234.1,96.4z"/>
	<path fill="#ED1C24" d="M247.6,82c0.5,0,0.6,0.4,0.4,1c-1.8,1.2-4,3.7-6.5,7.5c-1.3,2.2-2.2,4.1-2.7,5.6c0,0.5,0.1,0.7,0.3,0.8
		c3.8-1.7,7.5-3.7,11.1-6.2c3.1-2,5.9-4.3,8.5-6.9l1.3-0.1c0.8,0.1,1.1,0.6,0.8,1.5c-1.3,2.1-2.9,3.7-4.9,4.7
		c-2.2,1.7-3.7,4.1-4.7,7.2c-0.4,1.3,0,2,1.3,2.3l-0.1,0.2c-0.1,0.3-0.3,0.5-0.6,0.4l-0.5,0c-1.8-0.1-2.3-1.4-1.6-3.8l1.1-2.8
		l-0.7-0.1c-4.8,3-8.7,4.7-11.7,5.1c-1.3-0.1-1.6-1.3-0.9-3.5l0.1-0.2c0.9-3.1,4-7.4,9.1-12.9L247.6,82z"/>
	<path fill="#ED1C24" d="M265.4,83.2c-0.1,3,0.4,4.6,1.4,4.7l0.2,0c3.2-1.6,5.2-2.3,6-2.2c0.6,0.3,0.9,0.7,0.9,1l-0.2,0.7
		c-0.7,0.8-2.7,1.6-6.1,2.5c-1.2,0.9-2.1,2.4-2.8,4.5c-1,3.4-0.5,5.2,1.6,5.4c2.8,0.1,4.5,0.1,5.2,0.2l-0.2,0.7
		c-1.2,0.4-3.4,0.6-6.4,0.6c-2.6-1-3.5-3.1-2.5-6.1c0.2-0.7,1.3-2.7,3.2-5.9l-1.7-1.9l-0.2,0c-0.2,0-1.2,1-3,2.9l-0.4,0
		c0.1-0.3,0.1-0.4-0.1-0.5c0.6-1.9,2.1-4,4.6-6.2L265.4,83.2z M271.3,87.3l0.1,0.5c0.8-0.2,1.3-0.5,1.4-0.8l0.1-0.2
		C272,86.8,271.5,87,271.3,87.3z"/>
	<path fill="#ED1C24" d="M284.6,84.9l0.9,0.9l-0.5,0.5l-0.3,1.1l0.3,0c2.9-1.4,4.7-2.1,5.4-2l0.5,0c0.4,0,0.6,0.8,0.7,2.3l-5.9,10.3
		l-0.1,0.3c1.5,0.1,6.4-2.9,14.8-9c0.1-0.4,0.6-0.8,1.5-1.3c0.3,0.2,0.5,0.3,0.7,0.3l-0.2,0.6c-2.2,1.6-3.9,4.4-5.1,8.4
		c-0.2,0-0.4,0.3-0.5,0.8c0,2-0.1,3.2-0.2,3.6c-1.2-0.1-1.6-2.1-1-5.9l1.4-2.9c-7.6,5.8-12.1,8.6-13.5,8.5l-0.4-1.4
		c0.2-0.8,2.1-4.6,5.7-11.4l0.3-1.1l-0.3,0c-6.1,3-9.5,5.5-10.1,7.4c-1,1-2.8,3.2-5.4,6.7l-0.6,0.2l-0.3,0c-0.6-0.4-0.8-1-0.6-1.7
		c0.3,0,1.6-2,4-6c0.6-0.4,3.1-3.3,7.7-8.8C284.2,85.2,284.5,85,284.6,84.9z"/>
	<path fill="#ED1C24" d="M314.6,87.6c1.6,0.1,2.5,1.4,2.7,3.8c-1.4,4.6-4.8,8.4-10.4,11.2c-2.2,1.2-4.3,1.7-6.3,1.7
		c-1.1-0.8-1.5-1.8-1.1-2.9c0.6-2.1,2.6-5,5.8-8.8c1.4-2.2,3.1-3.8,5.2-4.7C312.1,87.6,313.5,87.5,314.6,87.6z M307.7,91.9
		c0.1,0.5,0.1,1.3-0.1,2.4c-0.4,0.8-1.1,1.4-1.9,1.8c-0.2,1.9-0.1,3.2,0.2,3.8l-0.1,0.4c-1-0.8-1.6-1.9-1.9-3.5
		c-0.6-0.1-1.5,1.6-2.6,4.8l-0.2,0.6c-0.1,0.2,0.1,0.5,0.4,0.7l0.2,0c4.5-1.2,8.4-3.6,11.9-7.4c0.9-1.5,1.4-2.3,1.6-2.3
		c0.7-2.4-0.3-3.8-3-4c-2,0.3-3.4,0.9-4.2,1.9C307.9,91.5,307.8,91.7,307.7,91.9z"/>
	<path fill="#ED1C24" d="M324.4,88.4c3.3,1.4,5,2.7,5.2,3.7c-0.1,0.3-0.1,1.1-0.1,2.5l0.4,0c4.1-2.7,6.3-4.1,6.6-4
		c1.8,0.2,2.5,1.1,1.9,2.9l-0.1,0.4c-0.2,0.8-0.7,1.2-1.3,1.3c-0.8-1.1-1.3-1.7-1.6-1.7c-2.3,0.3-4.2,3.1-5.8,8.2
		c-0.4,1.3,1.3,2.2,5.1,2.7c0.8-0.2,1.3-0.4,1.3-0.6c0.2,0.2,0.5,0.3,0.6,0.3l-0.1,0.4c-2.5,0.6-4.2,0.8-5.1,0.7
		c-2.8-0.7-3.8-2.1-3.1-4.4l1.3-4.3l-0.2,0c-0.5,0-1.1,0.7-1.8,2.2c-1.9,2.2-3.8,3.8-5.4,4.8l-0.4,0c-0.2,0-0.4-0.3-0.5-0.7
		c0.5-1.5,2.5-3.7,6-6.7l0.5-0.9c0.7-2.4,0.5-3.7-0.7-3.8l-0.2,0c-5.4,7.3-10.1,11.8-13.9,13.6c-1.1-0.6-1.5-1.3-1.2-2.2
		c0.7-2.4,1.9-3.9,3.5-4.5c1.2-1.5,1.9-2.4,2-2.8c-0.6-0.1-0.6-1.2,0.1-3.5C319.3,89.4,321.7,88.2,324.4,88.4z M313.4,103.4l0.4,0
		c6.4-5.6,9.8-9.2,10.3-10.7l0.1-0.2c0.1-0.3,0-0.5-0.3-0.5l-0.2,0c-3.4,1.3-6.6,4.6-9.7,9.8L313.4,103.4z M318.5,93.2l0.4,0
		c2.5-1.8,4-2.7,4.6-2.6l0.2-0.6l-0.2,0C320.8,90.1,319.2,91.2,318.5,93.2z"/>
	<path fill="#ED1C24" d="M351.2,90.7c2,0.7,2.7,1.9,2.2,3.4c-0.5,1.8-4.4,4-11.6,6.7l-0.5,1.1c-0.8,2.8-0.7,4.2,0.4,4.3
		c2.6-0.1,4.5-0.2,5.6-0.4c0,0.1,0,0.2,0.1,0.2c-0.3,1-2.5,1.6-6.6,1.8c-2.1-0.2-2.6-2.1-1.6-5.7c-0.8-0.7-1.2-1.2-1.1-1.4l0.1-0.2
		c2.1-0.8,3.6-2.6,4.5-5.4c2.3-2.7,4.3-3.9,5.9-3.8C348.7,91,349.6,90.8,351.2,90.7z M343.3,98.2l0.2,0c1.9,0.2,4.5-1,7.8-3.6
		c0.2-0.3,0.3-0.5,0.4-0.6c-0.8-0.9-1.4-1.4-1.8-1.5l-0.5,0.2c-0.2-0.2-0.5-0.3-0.8-0.3C346,93.2,344.2,95.1,343.3,98.2z"/>
	<path fill="#ED1C24" d="M361.1,91.7c0.3,0,0.4,0.5,0.4,1.4c-0.6,2-1.7,3.1-3.2,3.2c-1.3,1.4-2.1,2.4-2.3,3l-0.7,2.4
		c0.7,0.1,1.4,0.5,2.1,1.2l0.3,0c5.9-0.8,9.2-2.5,10-5.1c2.2-2.5,3.9-3.7,5-3.6c1.2,0.8,1.7,1.6,1.4,2.5c-0.5,1.8-2.6,3.2-6.2,4.3
		c-1.5,1.2-2.4,2.5-2.8,3.8l-0.3,1.1c-0.3,0.9-0.1,1.6,0.5,1.9l3.5,0.3l-0.1,0.3c-0.2,0.7-1.7,0.9-4.4,0.7l-0.8-0.1
		c-0.8-0.1-1.1-1.2-1-3.3l0.4-0.5l0.7-2.4l-0.3,0l-5.5,1.2c-0.5,0-1.8-0.4-3.8-1.1c-1.2,2.1-2.1,3.1-2.8,3c-1.1,1.2-2,2-2.6,2.2
		l-1.3-0.4c0.8-2.7,5-8,12.5-15.9C360.3,91.7,360.7,91.6,361.1,91.7z M372,96.6c-0.1,0.4-0.9,1.1-2.3,2.2c0.2,0,0.3,0.1,0.2,0.3
		c0.8-0.2,1.4-0.5,2-1.2l0.4-1.3L372,96.6z M370.5,107.8l-0.1,0.2c-0.1,0.4-0.3,0.5-0.7,0.5l0.1-0.3
		C370,107.9,370.2,107.8,370.5,107.8z"/>
	<path fill="#ED1C24" d="M383.9,93.4c0.5,0,0.6,0.4,0.4,1c-1.8,1.2-4,3.7-6.5,7.5c-1.3,2.2-2.2,4.1-2.7,5.6c0,0.5,0.1,0.7,0.3,0.8
		c3.8-1.7,7.5-3.7,11.1-6.2c3.1-2,5.9-4.3,8.5-6.9l1.3-0.1c0.8,0.1,1.1,0.6,0.8,1.5c-1.3,2.1-2.9,3.7-4.9,4.7
		c-2.2,1.7-3.7,4.1-4.7,7.2c-0.4,1.3,0,2,1.3,2.3l-0.1,0.2c-0.1,0.3-0.3,0.5-0.6,0.4l-0.5,0c-1.8-0.1-2.3-1.4-1.6-3.8l1.1-2.8
		l-0.7-0.1c-4.8,3-8.7,4.7-11.7,5.1c-1.3-0.1-1.6-1.3-0.9-3.5l0.1-0.2c0.9-3.1,4-7.4,9.1-12.9L383.9,93.4z"/>
	<path fill="#ED1C24" d="M416.3,96c2,0.2,2.5,2.3,1.3,6.3c-5.9,7.3-10.5,10.8-13.7,10.5c-1.8-0.1-2.2-2.3-1.2-6.6
		c0.4-0.9,0.7-1.6,0.8-2l-0.8-0.1c-3.6,1.3-6.7,3.1-9.3,5.4c-1.1,1.3-1.9,1.9-2.4,1.9c-0.6-0.3-0.9-0.6-0.8-0.8
		c2.7-4.3,7-9.5,13.1-15.5l0.5,0c0.9,0.1,1.3,0.5,1.2,1.2c-0.6,1.9-1.9,3.1-4,3.5c-2.2,2.6-3.3,4-3.4,4.4l0.8,0.1
		c3.1-1.4,5.8-2.3,8.2-2.7C410.2,97.6,413.4,95.7,416.3,96z M404,109.9c-0.1,0.3,0.3,0.7,1.2,1.2c3.8-1.5,7.2-4.4,10.3-8.7
		c0.5-1.8,0.7-3.1,0.5-4.1c-3.6-0.3-7.3,2.7-11.1,8.9L404,109.9z"/>
</g>
<g>
	<path d="M239.1,30.9c-1.3-0.7-2.3-1.6-3-2.9c-0.7-1.2-1-2.7-1-4.3c0-2.1,0.5-4.1,1.4-5.8s2.2-3.1,3.8-4.1s3.5-1.5,5.7-1.5
		c1.8,0,3.3,0.3,4.6,1c1.3,0.7,2.3,1.6,3,2.9c0.7,1.2,1,2.7,1,4.3c0,2.1-0.5,4.1-1.4,5.8c-0.9,1.7-2.2,3.1-3.8,4.1
		c-1.6,1-3.5,1.5-5.7,1.5C241.9,31.9,240.4,31.6,239.1,30.9z M247.4,27.2c1-0.7,1.7-1.6,2.2-2.7c0.5-1.1,0.8-2.3,0.8-3.7
		c0-1.4-0.4-2.6-1.3-3.4s-2-1.3-3.5-1.3c-1.3,0-2.4,0.3-3.4,1c-1,0.7-1.7,1.6-2.2,2.7c-0.5,1.1-0.8,2.3-0.8,3.7
		c0,1.4,0.4,2.6,1.3,3.4c0.8,0.9,2,1.3,3.5,1.3C245.3,28.2,246.4,27.9,247.4,27.2z"/>
	<path d="M268.7,22l4.1,9.6h-4.4l-3.2-7.6h-3l-1.4,7.6h-4.1l3.5-18.9h4.1l-1.4,7.6h2.7l6-7.6h4.6L268.7,22z"/>
	<path d="M287.7,22l4.1,9.6h-4.4l-3.2-7.6h-3l-1.4,7.6h-4.1l3.5-18.9h4.1l-1.4,7.6h2.7l6-7.6h4.6L287.7,22z"/>
	<path d="M307.2,27.6H299l-2.3,4h-4.3l11.4-18.9h4l4.3,18.9H308L307.2,27.6z M306.5,24.2l-1.5-7.3l-4.1,7.3H306.5z"/>
	<path d="M338.6,12.7l-3.5,18.9h-3.8l2.1-11.3l-6.7,9.3h-1.8l-3.6-9.4l-2.1,11.4h-3.8l3.5-18.9h3.3l4.4,11.8l8.5-11.8H338.6z"/>
	<path d="M344,12.7h4L345.7,25l10.7-12.3h3.9l-3.5,18.9h-4l2.4-12.3l-10.7,12.3h-3.9L344,12.7z"/>
	<path d="M166.2,48c0.3,0.4,0.5,1,0.5,1.7c0,1.3-0.5,2.3-1.4,3c-0.9,0.7-2.2,1-3.8,1H156l2.4-12.9h5.1c1.2,0,2.1,0.2,2.7,0.7
		s1,1.1,1,2c0,0.9-0.2,1.6-0.7,2.2s-1,1-1.8,1.3C165.4,47.2,165.9,47.6,166.2,48z M164.5,51.8c0.6-0.5,1-1.2,1-2.1
		c0-0.7-0.2-1.2-0.7-1.5c-0.5-0.3-1.2-0.5-2.1-0.5h-4.3l-0.9,4.8h4.2C162.9,52.6,163.8,52.3,164.5,51.8z M159.5,41.9l-0.9,4.7h3.8
		c1.1,0,1.9-0.2,2.5-0.7c0.6-0.5,1-1.2,1-2.1c0-0.6-0.2-1.1-0.7-1.4c-0.5-0.3-1.1-0.5-1.9-0.5H159.5z"/>
	<path d="M179.9,48.8c0,1-0.2,1.8-0.7,2.6s-1.1,1.3-1.9,1.7s-1.8,0.6-2.9,0.6h-4.8l2.4-12.9h1.2l-0.9,4.6h3.7
		C178.7,45.4,179.9,46.6,179.9,48.8z M177.5,51.6c0.7-0.7,1.1-1.6,1.1-2.7c0-0.8-0.2-1.5-0.7-1.9c-0.5-0.4-1.2-0.6-2.1-0.6h-3.6
		l-1.1,6.1h3.5C175.8,52.6,176.8,52.3,177.5,51.6z M183.8,40.8h1.2l-2.4,12.9h-1.2L183.8,40.8z"/>
	<path d="M190.1,53.1c-0.8-0.4-1.5-1.1-1.9-1.9c-0.4-0.8-0.7-1.7-0.7-2.8c0-1.4,0.3-2.7,0.9-3.9s1.5-2.1,2.6-2.8
		c1.1-0.7,2.4-1,3.8-1c1,0,1.8,0.2,2.5,0.5c0.7,0.3,1.3,0.8,1.7,1.4l-0.9,0.8c-0.8-1-1.9-1.5-3.5-1.5c-1.2,0-2.2,0.3-3.1,0.9
		c-0.9,0.6-1.6,1.4-2.1,2.3c-0.5,1-0.7,2.1-0.7,3.2c0,1.3,0.4,2.3,1.2,3.1c0.8,0.8,1.9,1.1,3.3,1.1c1.6,0,2.8-0.5,3.8-1.5l0.7,0.9
		c-0.5,0.6-1.2,1-2,1.4c-0.8,0.3-1.7,0.5-2.6,0.5C191.9,53.8,190.9,53.6,190.1,53.1z"/>
	<path d="M203,53.1c-0.8-0.4-1.5-1.1-1.9-1.9c-0.4-0.8-0.6-1.7-0.6-2.8c0-1.4,0.3-2.7,0.9-3.9c0.6-1.2,1.4-2.1,2.5-2.8
		c1.1-0.7,2.4-1,3.8-1c1.2,0,2.2,0.2,3,0.7c0.8,0.4,1.5,1.1,1.9,1.9c0.4,0.8,0.7,1.7,0.7,2.8c0,1.4-0.3,2.7-0.9,3.9
		c-0.6,1.2-1.4,2.1-2.5,2.8c-1.1,0.7-2.4,1-3.8,1C204.8,53.8,203.8,53.6,203,53.1z M209.2,51.7c0.9-0.6,1.6-1.4,2.1-2.4
		c0.5-1,0.7-2.1,0.7-3.3c0-1.3-0.4-2.3-1.1-3.1c-0.8-0.8-1.9-1.1-3.3-1.1c-1.2,0-2.2,0.3-3.1,0.9c-0.9,0.6-1.6,1.4-2.1,2.4
		c-0.5,1-0.7,2.1-0.7,3.2c0,1.3,0.4,2.3,1.1,3.1c0.8,0.8,1.9,1.1,3.3,1.1C207.2,52.6,208.3,52.3,209.2,51.7z"/>
	<path d="M221.8,47.1l3.5,6.6h-1.4l-3.2-5.9H218l-1.1,5.9h-1.2l2.4-12.9h1.2l-1.1,5.8h2.7l5.1-5.8h1.4L221.8,47.1z"/>
	<path d="M230.3,40.8h1.2l-2,10.7l9.6-10.7h1.1L238,53.7h-1.2l2-10.7l-9.7,10.7h-1.1L230.3,40.8z"/>
	<path d="M245.1,40.8h1.2l-2,10.7l9.6-10.7h1.1l-2.4,12.9h-1.2l2-10.7l-9.7,10.7h-1.1L245.1,40.8z M248.5,39.3
		c-0.4-0.3-0.6-0.8-0.6-1.4c0-0.1,0-0.2,0-0.4h0.9c0,0,0,0.1,0,0.2c0,0.4,0.1,0.7,0.4,1c0.3,0.2,0.7,0.4,1.2,0.4
		c0.5,0,1-0.1,1.4-0.4c0.4-0.3,0.6-0.7,0.7-1.2h0.9c-0.1,0.7-0.5,1.3-1,1.7c-0.5,0.4-1.2,0.6-2,0.6
		C249.5,39.9,248.9,39.7,248.5,39.3z"/>
	<path d="M274.4,40.8L267,51.7c-1,1.5-2.1,2.2-3.4,2.2c-0.5,0-1-0.1-1.5-0.4l0.5-1.1c0.4,0.2,0.7,0.2,1,0.2c0.8,0,1.6-0.5,2.3-1.4
		l0.5-0.7l-3-9.8h1.3l2.6,8.7l5.9-8.7H274.4z"/>
	<path d="M284.4,41.8c0.8,0.6,1.1,1.5,1.1,2.7c0,1.6-0.5,2.9-1.5,3.8c-1,0.9-2.3,1.4-4.1,1.4h-3.4l-0.8,4.1h-1.2l2.4-12.9h4.3
		C282.6,40.8,283.7,41.1,284.4,41.8z M283.2,47.5c0.7-0.7,1.1-1.6,1.1-2.9c0-0.8-0.3-1.5-0.8-1.9c-0.5-0.4-1.3-0.7-2.3-0.7h-3.1
		l-1.2,6.4h3.2C281.4,48.4,282.5,48.1,283.2,47.5z"/>
	<path d="M290.2,53.1c-0.8-0.4-1.5-1.1-1.9-1.9c-0.4-0.8-0.6-1.7-0.6-2.8c0-1.4,0.3-2.7,0.9-3.9c0.6-1.2,1.4-2.1,2.5-2.8
		c1.1-0.7,2.4-1,3.8-1c1.2,0,2.2,0.2,3,0.7c0.8,0.4,1.5,1.1,1.9,1.9c0.4,0.8,0.7,1.7,0.7,2.8c0,1.4-0.3,2.7-0.9,3.9
		c-0.6,1.2-1.4,2.1-2.5,2.8c-1.1,0.7-2.4,1-3.8,1C292.1,53.8,291.1,53.6,290.2,53.1z M296.4,51.7c0.9-0.6,1.6-1.4,2.1-2.4
		c0.5-1,0.7-2.1,0.7-3.3c0-1.3-0.4-2.3-1.1-3.1c-0.8-0.8-1.9-1.1-3.3-1.1c-1.2,0-2.2,0.3-3.1,0.9c-0.9,0.6-1.6,1.4-2.1,2.4
		c-0.5,1-0.7,2.1-0.7,3.2c0,1.3,0.4,2.3,1.1,3.1c0.8,0.8,1.9,1.1,3.3,1.1C294.5,52.6,295.5,52.3,296.4,51.7z"/>
	<path d="M313,48c0.3,0.4,0.5,1,0.5,1.7c0,1.3-0.5,2.3-1.4,3c-0.9,0.7-2.2,1-3.8,1h-5.6l2.4-12.9h5.1c1.2,0,2.1,0.2,2.7,0.7
		c0.6,0.5,1,1.1,1,2c0,0.9-0.2,1.6-0.7,2.2c-0.4,0.6-1,1-1.8,1.3C312.2,47.2,312.7,47.6,313,48z M311.3,51.8c0.6-0.5,1-1.2,1-2.1
		c0-0.7-0.2-1.2-0.7-1.5s-1.2-0.5-2.1-0.5h-4.3l-0.9,4.8h4.2C309.7,52.6,310.6,52.3,311.3,51.8z M306.3,41.9l-0.9,4.7h3.8
		c1.1,0,1.9-0.2,2.5-0.7s1-1.2,1-2.1c0-0.6-0.2-1.1-0.7-1.4s-1.1-0.5-1.9-0.5H306.3z"/>
	<path d="M319.9,42l-0.9,4.6h6.2l-0.2,1.2h-6.2l-0.9,4.8h7.2l-0.2,1.2h-8.4l2.4-12.9h8.2l-0.2,1.2H319.9z"/>
	<path d="M340.8,40.8l-2.4,12.9h-1.2l1.1-5.9h-7.5l-1.1,5.9h-1.2l2.4-12.9h1.2l-1.1,5.7h7.5l1.1-5.7H340.8z"/>
	<path d="M353.4,48.8c0,1-0.2,1.8-0.7,2.6c-0.4,0.7-1.1,1.3-1.9,1.7c-0.8,0.4-1.8,0.6-2.9,0.6h-4.8l2.4-12.9h1.2l-0.9,4.6h3.7
		C352.1,45.4,353.4,46.6,353.4,48.8z M351,51.6c0.7-0.7,1.1-1.6,1.1-2.7c0-0.8-0.2-1.5-0.7-1.9c-0.5-0.4-1.2-0.6-2.1-0.6h-3.6
		l-1.1,6.1h3.5C349.3,52.6,350.3,52.3,351,51.6z"/>
	<path d="M372.9,40.8l-7.4,10.9c-1,1.5-2.1,2.2-3.4,2.2c-0.5,0-1-0.1-1.5-0.4l0.5-1.1c0.4,0.2,0.7,0.2,1,0.2c0.8,0,1.6-0.5,2.3-1.4
		l0.5-0.7l-3-9.8h1.3l2.6,8.7l5.9-8.7H372.9z"/>
	<path d="M382.9,42h-6.4l-2.2,11.7h-1.2l2.4-12.9h7.6L382.9,42z"/>
	<path d="M393.5,41.8c0.8,0.6,1.1,1.5,1.1,2.7c0,1.6-0.5,2.9-1.5,3.8c-1,0.9-2.3,1.4-4.1,1.4h-3.4l-0.8,4.1h-1.2l2.4-12.9h4.3
		C391.7,40.8,392.7,41.1,393.5,41.8z M392.2,47.5c0.7-0.7,1.1-1.6,1.1-2.9c0-0.8-0.3-1.5-0.8-1.9c-0.5-0.4-1.3-0.7-2.3-0.7h-3.1
		l-1.2,6.4h3.2C390.4,48.4,391.5,48.1,392.2,47.5z"/>
	<path d="M399.3,53.1c-0.8-0.4-1.5-1.1-1.9-1.9c-0.4-0.8-0.6-1.7-0.6-2.8c0-1.4,0.3-2.7,0.9-3.9c0.6-1.2,1.4-2.1,2.5-2.8
		c1.1-0.7,2.4-1,3.8-1c1.2,0,2.2,0.2,3,0.7s1.5,1.1,1.9,1.9c0.4,0.8,0.7,1.7,0.7,2.8c0,1.4-0.3,2.7-0.9,3.9
		c-0.6,1.2-1.4,2.1-2.5,2.8s-2.4,1-3.8,1C401.1,53.8,400.1,53.6,399.3,53.1z M405.4,51.7c0.9-0.6,1.6-1.4,2.1-2.4
		c0.5-1,0.7-2.1,0.7-3.3c0-1.3-0.4-2.3-1.1-3.1c-0.8-0.8-1.9-1.1-3.3-1.1c-1.2,0-2.2,0.3-3.1,0.9c-0.9,0.6-1.6,1.4-2.1,2.4
		c-0.5,1-0.7,2.1-0.7,3.2c0,1.3,0.4,2.3,1.1,3.1c0.8,0.8,1.9,1.1,3.3,1.1C403.5,52.6,404.5,52.3,405.4,51.7z"/>
	<path d="M419.5,48c0.3,0.5,0.5,1,0.5,1.7c0,0.8-0.3,1.5-0.8,2.2c-0.5,0.6-1.2,1.1-2,1.5s-1.7,0.5-2.6,0.5c-0.8,0-1.6-0.1-2.3-0.4
		s-1.4-0.7-1.9-1.3l0.6-1c0.4,0.5,1,0.9,1.6,1.1s1.3,0.4,2,0.4c0.7,0,1.4-0.1,2-0.4c0.6-0.3,1.1-0.6,1.5-1.1s0.6-1,0.6-1.6
		c0-0.7-0.2-1.1-0.7-1.5c-0.5-0.3-1.1-0.5-2-0.5h-2.6l0.2-1.1h2.5c0.9,0,1.7-0.2,2.2-0.7c0.6-0.5,0.8-1.1,0.8-1.8
		c0-0.7-0.3-1.2-0.8-1.6c-0.5-0.4-1.2-0.6-2-0.6c-0.6,0-1.1,0.1-1.8,0.3c-0.6,0.2-1.2,0.4-1.8,0.8l-0.2-1.1c1.3-0.7,2.7-1.1,4-1.1
		c1.1,0,2.1,0.3,2.8,0.8c0.7,0.6,1.1,1.3,1.1,2.3c0,0.8-0.2,1.4-0.7,2c-0.5,0.6-1.1,1-1.9,1.2C418.7,47.2,419.2,47.5,419.5,48z"/>
	<path d="M433.4,48.8c0,1-0.2,1.8-0.7,2.6c-0.4,0.7-1.1,1.3-1.9,1.7c-0.8,0.4-1.8,0.6-2.9,0.6h-4.8l2.4-12.9h1.2l-0.9,4.6h3.7
		C432.1,45.4,433.4,46.6,433.4,48.8z M431,51.6c0.7-0.7,1.1-1.6,1.1-2.7c0-0.8-0.2-1.5-0.7-1.9c-0.5-0.4-1.2-0.6-2.1-0.6h-3.6
		l-1.1,6.1h3.5C429.3,52.6,430.3,52.3,431,51.6z M437.3,40.8h1.2l-2.4,12.9h-1.2L437.3,40.8z"/>
</g>
<g>
	<g>
		<line fill="none" stroke="#000000" stroke-miterlimit="10" x1="418.9" y1="17.1" x2="429.7" y2="27.9"/>
		<line fill="none" stroke="#000000" stroke-miterlimit="10" x1="429.7" y1="17.1" x2="418.9" y2="27.9"/>
	</g>
	<g>
		<line fill="none" stroke="#000000" stroke-miterlimit="10" x1="400.7" y1="17.1" x2="411.4" y2="27.9"/>
		<line fill="none" stroke="#000000" stroke-miterlimit="10" x1="411.4" y1="17.1" x2="400.7" y2="27.9"/>
	</g>
	<g>
		<line fill="none" stroke="#000000" stroke-miterlimit="10" x1="382.4" y1="17.1" x2="393.2" y2="27.9"/>
		<line fill="none" stroke="#000000" stroke-miterlimit="10" x1="393.2" y1="17.1" x2="382.4" y2="27.9"/>
	</g>
</g>
<g>
	<g>
		<line fill="none" stroke="#000000" stroke-miterlimit="10" x1="195.2" y1="17.1" x2="205.9" y2="27.9"/>
		<line fill="none" stroke="#000000" stroke-miterlimit="10" x1="205.9" y1="17.1" x2="195.2" y2="27.9"/>
	</g>
	<g>
		<line fill="none" stroke="#000000" stroke-miterlimit="10" x1="176.9" y1="17.1" x2="187.7" y2="27.9"/>
		<line fill="none" stroke="#000000" stroke-miterlimit="10" x1="187.7" y1="17.1" x2="176.9" y2="27.9"/>
	</g>
	<g>
		<line fill="none" stroke="#000000" stroke-miterlimit="10" x1="158.7" y1="17.1" x2="169.5" y2="27.9"/>
		<line fill="none" stroke="#000000" stroke-miterlimit="10" x1="169.5" y1="17.1" x2="158.7" y2="27.9"/>
	</g>
</g>
</svg>
