<?xml version="1.0" encoding="utf-8"?>
<!-- Generator: Adobe Illustrator 17.1.0, SVG Export Plug-In . SVG Version: 6.00 Build 0)  -->
<!DOCTYPE svg PUBLIC "-//W3C//DTD SVG 1.1//EN" "http://www.w3.org/Graphics/SVG/1.1/DTD/svg11.dtd">
<svg version="1.1" id="Layer_1" xmlns="http://www.w3.org/2000/svg" xmlns:xlink="http://www.w3.org/1999/xlink" x="0px" y="0px"
	 viewBox="0 0 512 512" enable-background="new 0 0 512 512" xml:space="preserve">
<g>
	<defs>
		<rect id="SVGID_1_" width="512" height="512"/>
	</defs>
	<clipPath id="SVGID_2_">
		<use xlink:href="#SVGID_1_"  overflow="visible"/>
	</clipPath>
	<polygon clip-path="url(#SVGID_2_)" points="512.2,512 -0.3,512 -0.3,0 512.7,-0.3 	"/>
	<g clip-path="url(#SVGID_2_)">
		<path fill="#FFFFFF" d="M255.7,418.1c-89.4,0-162.1-72.7-162.1-162.1S166.3,93.9,255.7,93.9c89.4,0,162.1,72.7,162.1,162.1
			S345,418.1,255.7,418.1z M255.7,99.6c-86.2,0-156.4,70.2-156.4,156.4s70.2,156.4,156.4,156.4S412.1,342.2,412.1,256
			S341.9,99.6,255.7,99.6z"/>
		<path fill="#FFFFFF" d="M255.7,457.4c-111,0-201.4-90.3-201.4-201.4S144.6,54.6,255.7,54.6S457,145,457,256
			S366.7,457.4,255.7,457.4z M255.7,60.3C147.7,60.3,59.9,148.1,59.9,256c0,107.9,87.8,195.7,195.7,195.7S451.4,363.9,451.4,256
			C451.4,148.1,363.6,60.3,255.7,60.3z"/>
		<path fill="#FFFFFF" d="M255.7,474.1c-120.3,0-218.1-97.8-218.1-218.1S135.4,37.9,255.7,37.9S473.8,135.7,473.8,256
			S375.9,474.1,255.7,474.1z M255.7,47c-115.3,0-209,93.8-209,209s93.8,209,209,209s209-93.8,209-209S370.9,47,255.7,47z"/>
		<g>
			<g>
				<path fill="#6D6E71" d="M255.9,441.8h-0.2c-0.7,0-1.4,0-2.2,0l0.2-18.1c0.6,0,1.3,0,2,0h0.2V441.8z M261.8,441.7l-0.6-18.1
					c0.7,0,1.4-0.1,2.1-0.1l0.8,18.1C263.4,441.7,262.6,441.7,261.8,441.7z M247.6,441.6c-0.8,0-1.6-0.1-2.4-0.1l1-18.1
					c0.7,0,1.4,0.1,2.1,0.1L247.6,441.6z M270.2,441.3l-1.4-18.1c0.7-0.1,1.4-0.1,2.1-0.2l1.6,18.1
					C271.7,441.1,270.9,441.2,270.2,441.3z M239.2,441.1c-0.8-0.1-1.6-0.1-2.4-0.2l1.8-18c0.7,0.1,1.4,0.1,2.1,0.2L239.2,441.1z
					 M278.5,440.4l-2.2-18c0.7-0.1,1.4-0.2,2.1-0.3l2.4,18C280,440.2,279.2,440.3,278.5,440.4z M231,440.2c-0.8-0.1-1.6-0.2-2.4-0.3
					l2.6-17.9c0.7,0.1,1.4,0.2,2.1,0.3L231,440.2z M286.7,439.2l-3-17.9c0.7-0.1,1.4-0.2,2.1-0.4l3.2,17.8
					C288.3,439,287.5,439.1,286.7,439.2z M222.7,438.9c-0.8-0.1-1.6-0.3-2.4-0.4l3.4-17.8c0.7,0.1,1.4,0.3,2.1,0.4L222.7,438.9z
					 M294.9,437.7l-3.8-17.7c0.7-0.2,1.4-0.3,2.1-0.5l4,17.7C296.4,437.3,295.7,437.5,294.9,437.7z M214.5,437.3
					c-0.8-0.2-1.5-0.4-2.3-0.5l4.2-17.6c0.7,0.2,1.4,0.3,2.1,0.5L214.5,437.3z M303,435.7l-4.6-17.5c0.7-0.2,1.4-0.4,2.1-0.6
					l4.8,17.5C304.5,435.3,303.8,435.5,303,435.7z M206.4,435.2c-0.8-0.2-1.5-0.4-2.3-0.6l5-17.4c0.7,0.2,1.4,0.4,2.1,0.6
					L206.4,435.2z M311,433.4l-5.4-17.3c0.7-0.2,1.4-0.4,2.1-0.7l5.6,17.2C312.5,433,311.8,433.2,311,433.4z M198.5,432.8
					c-0.8-0.2-1.5-0.5-2.3-0.8l5.8-17.2c0.7,0.2,1.4,0.5,2.1,0.7L198.5,432.8z M318.9,430.8l-6.2-17.1c0.7-0.2,1.3-0.5,2-0.7l6.4,17
					C320.4,430.2,319.7,430.5,318.9,430.8z M190.6,430.1c-0.8-0.3-1.5-0.6-2.2-0.9l6.6-16.9c0.7,0.3,1.3,0.5,2,0.8L190.6,430.1z
					 M326.7,427.8l-6.9-16.8c0.7-0.3,1.3-0.6,2-0.8l7.2,16.7C328.2,427.1,327.4,427.5,326.7,427.8z M182.8,427
					c-0.7-0.3-1.5-0.6-2.2-1l7.3-16.6c0.7,0.3,1.3,0.6,2,0.9L182.8,427z M334.3,424.4l-7.7-16.4c0.6-0.3,1.3-0.6,1.9-0.9l7.9,16.3
					C335.7,423.7,335,424.1,334.3,424.4z M175.2,423.5c-0.7-0.3-1.4-0.7-2.1-1.1l8.1-16.2c0.6,0.3,1.3,0.6,1.9,0.9L175.2,423.5z
					 M341.8,420.7l-8.4-16.1c0.6-0.3,1.3-0.7,1.9-1l8.6,16C343.2,420,342.5,420.3,341.8,420.7z M167.7,419.7
					c-0.7-0.4-1.4-0.8-2.1-1.1l8.8-15.9c0.6,0.3,1.3,0.7,1.9,1L167.7,419.7z M349,416.7l-9.1-15.7c0.6-0.4,1.2-0.7,1.8-1.1l9.3,15.6
					C350.4,415.9,349.7,416.3,349,416.7z M160.5,415.6c-0.7-0.4-1.4-0.8-2-1.2l9.5-15.4c0.6,0.4,1.2,0.8,1.8,1.1L160.5,415.6z
					 M356.1,412.3l-9.8-15.2c0.6-0.4,1.2-0.8,1.8-1.2l10,15.1C357.5,411.5,356.8,411.9,356.1,412.3z M153.4,411.2
					c-0.7-0.4-1.3-0.9-2-1.3l10.2-15c0.6,0.4,1.2,0.8,1.8,1.2L153.4,411.2z M363,407.7l-10.5-14.8c0.6-0.4,1.2-0.8,1.7-1.3
					l10.7,14.7C364.3,406.8,363.7,407.2,363,407.7z M146.5,406.4c-0.6-0.5-1.3-0.9-1.9-1.4l10.8-14.5c0.6,0.4,1.2,0.9,1.7,1.3
					L146.5,406.4z M369.7,402.7l-11.1-14.3c0.6-0.4,1.1-0.9,1.7-1.3l11.3,14.2C371,401.7,370.3,402.2,369.7,402.7z M139.9,401.4
					c-0.6-0.5-1.2-1-1.9-1.5l11.5-14c0.6,0.5,1.1,0.9,1.7,1.3L139.9,401.4z M376.2,397.4l-11.8-13.8c0.5-0.5,1.1-0.9,1.6-1.4
					l11.9,13.6C377.4,396.4,376.8,396.9,376.2,397.4z M133.5,396c-0.6-0.5-1.2-1.1-1.8-1.6l12.1-13.5c0.5,0.5,1.1,1,1.6,1.4
					L133.5,396z M382.4,391.9L370,378.6c0.5-0.5,1-1,1.6-1.5l12.5,13.1C383.5,390.8,383,391.4,382.4,391.9z M127.3,390.4
					c-0.6-0.5-1.1-1.1-1.7-1.7l12.7-13c0.5,0.5,1,1,1.6,1.5L127.3,390.4z M388.4,386.1l-13-12.7c0.5-0.5,1-1,1.5-1.6l13.1,12.5
					C389.5,384.9,388.9,385.5,388.4,386.1z M121.4,384.5c-0.5-0.6-1.1-1.1-1.6-1.7l13.3-12.4c0.5,0.5,1,1,1.5,1.6L121.4,384.5z
					 M394.1,380l-13.5-12.1c0.5-0.5,1-1.1,1.4-1.6l13.6,11.9C395.1,378.8,394.6,379.4,394.1,380z M115.8,378.4
					c-0.5-0.6-1-1.2-1.6-1.8l13.8-11.8c0.5,0.5,0.9,1.1,1.4,1.6L115.8,378.4z M399.5,373.7l-14-11.5c0.5-0.6,0.9-1.1,1.4-1.7
					l14.2,11.3C400.5,372.4,400,373.1,399.5,373.7z M110.5,372c-0.5-0.6-1-1.2-1.5-1.9l14.3-11.1c0.4,0.6,0.9,1.1,1.3,1.7L110.5,372
					z M404.6,367.1l-14.5-10.9c0.4-0.6,0.9-1.2,1.3-1.7l14.7,10.7C405.6,365.8,405.1,366.5,404.6,367.1z M105.4,365.4
					c-0.5-0.6-0.9-1.3-1.4-1.9l14.8-10.5c0.4,0.6,0.8,1.2,1.3,1.7L105.4,365.4z M409.5,360.3l-15-10.2c0.4-0.6,0.8-1.2,1.2-1.8
					l15.1,10C410.4,359,409.9,359.6,409.5,360.3z M100.7,358.5c-0.4-0.7-0.9-1.3-1.3-2l15.2-9.8c0.4,0.6,0.8,1.2,1.2,1.8
					L100.7,358.5z M414,353.3l-15.4-9.5c0.4-0.6,0.7-1.2,1.1-1.8l15.6,9.3C414.8,351.9,414.4,352.6,414,353.3z M96.2,351.5
					c-0.4-0.7-0.8-1.4-1.2-2l15.7-9.1c0.4,0.6,0.7,1.2,1.1,1.8L96.2,351.5z M418.2,346.1l-15.8-8.8c0.3-0.6,0.7-1.3,1-1.9l16,8.6
					C419,344.7,418.6,345.4,418.2,346.1z M92.1,344.3c-0.4-0.7-0.7-1.4-1.1-2.1l16.1-8.4c0.3,0.6,0.7,1.3,1,1.9L92.1,344.3z
					 M422.1,338.7l-16.2-8.1c0.3-0.6,0.6-1.3,0.9-1.9l16.3,7.9C422.8,337.3,422.5,338,422.1,338.7z M88.3,336.9
					c-0.3-0.7-0.7-1.4-1-2.1l16.4-7.7c0.3,0.6,0.6,1.3,0.9,1.9L88.3,336.9z M425.7,331.1l-16.6-7.3c0.3-0.7,0.6-1.3,0.9-2l16.7,7.1
					C426.3,329.7,426,330.4,425.7,331.1z M84.9,329.3c-0.3-0.7-0.6-1.5-0.9-2.2l16.8-6.9c0.3,0.7,0.6,1.3,0.8,2L84.9,329.3z
					 M428.9,323.4l-16.9-6.6c0.3-0.7,0.5-1.3,0.8-2l17,6.4C429.4,321.9,429.2,322.7,428.9,323.4z M81.7,321.6
					c-0.3-0.7-0.6-1.5-0.8-2.2l17.1-6.2c0.2,0.7,0.5,1.3,0.7,2L81.7,321.6z M431.7,315.5l-17.2-5.8c0.2-0.7,0.5-1.4,0.7-2l17.3,5.6
					C432.2,314,432,314.8,431.7,315.5z M79,313.7c-0.2-0.8-0.5-1.5-0.7-2.3l17.3-5.4c0.2,0.7,0.4,1.4,0.7,2.1L79,313.7z
					 M434.2,307.6l-17.4-5c0.2-0.7,0.4-1.4,0.6-2.1l17.5,4.8C434.7,306,434.4,306.8,434.2,307.6z M76.6,305.7
					c-0.2-0.8-0.4-1.5-0.6-2.3l17.5-4.6c0.2,0.7,0.4,1.4,0.6,2.1L76.6,305.7z M436.4,299.5l-17.6-4.2c0.2-0.7,0.3-1.4,0.5-2.1
					l17.7,4C436.7,298,436.5,298.7,436.4,299.5z M74.5,297.6c-0.2-0.8-0.3-1.5-0.5-2.3l17.7-3.8c0.2,0.7,0.3,1.4,0.5,2.1L74.5,297.6
					z M438.1,291.4l-17.8-3.4c0.1-0.7,0.3-1.4,0.4-2.1l17.8,3.2C438.4,289.8,438.3,290.6,438.1,291.4z M72.9,289.5
					c-0.1-0.8-0.3-1.6-0.4-2.3l17.9-3c0.1,0.7,0.2,1.4,0.4,2.1L72.9,289.5z M439.5,283.1l-17.9-2.6c0.1-0.7,0.2-1.4,0.3-2.1l18,2.4
					C439.7,281.6,439.6,282.3,439.5,283.1z M71.5,281.2c-0.1-0.8-0.2-1.6-0.3-2.4l18-2.2c0.1,0.7,0.2,1.4,0.3,2.1L71.5,281.2z
					 M440.5,274.9l-18-1.8c0.1-0.7,0.1-1.4,0.2-2.1l18.1,1.6C440.7,273.3,440.6,274.1,440.5,274.9z M70.6,272.9
					c-0.1-0.8-0.1-1.6-0.2-2.4l18.1-1.4c0.1,0.7,0.1,1.4,0.2,2.1L70.6,272.9z M441.2,266.6l-18.1-1c0-0.7,0.1-1.4,0.1-2.1l18.1,0.8
					C441.3,265,441.2,265.8,441.2,266.6z M70,264.6c0-0.8-0.1-1.6-0.1-2.4l18.1-0.6c0,0.7,0.1,1.4,0.1,2.2L70,264.6z M441.5,258.2
					l-18.1-0.2c0-0.7,0-1.3,0-2v-0.1h18.1v0.1C441.5,256.7,441.5,257.5,441.5,258.2z M88,256.3H69.8V256c0-0.8,0-1.6,0-2.4l18.1,0.2
					c0,0.7,0,1.4,0,2.2V256.3z M423.3,250.5c0-0.7-0.1-1.4-0.1-2.2l18.1-0.8c0,0.8,0.1,1.6,0.1,2.4L423.3,250.5z M88.1,248.5
					L70,247.7c0-0.8,0.1-1.6,0.1-2.4l18.1,1C88.2,247,88.2,247.8,88.1,248.5z M422.8,243c-0.1-0.7-0.1-1.4-0.2-2.1l18.1-1.6
					c0.1,0.8,0.1,1.6,0.2,2.4L422.8,243z M88.6,241l-18.1-1.6c0.1-0.8,0.1-1.6,0.2-2.4l18,1.9C88.8,239.5,88.7,240.2,88.6,241z
					 M422.1,235.5c-0.1-0.7-0.2-1.4-0.3-2.1l18-2.4c0.1,0.8,0.2,1.6,0.3,2.4L422.1,235.5z M89.5,233.5l-18-2.4
					c0.1-0.8,0.2-1.6,0.3-2.4l17.9,2.6C89.7,232.1,89.6,232.8,89.5,233.5z M421,228c-0.1-0.7-0.2-1.4-0.4-2.1l17.8-3.2
					c0.1,0.8,0.3,1.6,0.4,2.3L421,228z M90.6,226l-17.8-3.2c0.1-0.8,0.3-1.6,0.4-2.3l17.8,3.4C90.9,224.6,90.8,225.3,90.6,226z
					 M419.6,220.6c-0.2-0.7-0.3-1.4-0.5-2.1l17.7-4c0.2,0.8,0.3,1.5,0.5,2.3L419.6,220.6z M92.1,218.7l-17.7-4
					c0.2-0.8,0.4-1.5,0.5-2.3l17.6,4.2C92.5,217.3,92.3,218,92.1,218.7z M417.9,213.3c-0.2-0.7-0.4-1.4-0.6-2.1l17.5-4.8
					c0.2,0.8,0.4,1.5,0.6,2.3L417.9,213.3z M94,211.4l-17.5-4.8c0.2-0.8,0.4-1.5,0.6-2.3l17.4,5C94.4,210,94.2,210.7,94,211.4z
					 M415.8,206.1c-0.2-0.7-0.4-1.4-0.7-2.1l17.2-5.6c0.2,0.8,0.5,1.5,0.7,2.3L415.8,206.1z M96.1,204.2l-17.2-5.6
					c0.2-0.8,0.5-1.5,0.8-2.3l17.2,5.8C96.6,202.8,96.4,203.5,96.1,204.2z M413.4,199c-0.2-0.7-0.5-1.3-0.7-2l17-6.4
					c0.3,0.7,0.6,1.5,0.8,2.2L413.4,199z M98.6,197.1l-17-6.4c0.3-0.7,0.6-1.5,0.9-2.2l16.9,6.6C99.1,195.7,98.9,196.4,98.6,197.1z
					 M410.7,192c-0.3-0.7-0.6-1.3-0.8-2l16.7-7.1c0.3,0.7,0.6,1.5,0.9,2.2L410.7,192z M101.4,190.1l-16.7-7.1c0.3-0.7,0.6-1.5,1-2.2
					l16.6,7.4C102,188.7,101.7,189.4,101.4,190.1z M407.7,185.1c-0.3-0.6-0.6-1.3-0.9-1.9l16.3-7.9c0.3,0.7,0.7,1.4,1,2.2
					L407.7,185.1z M104.6,183.2l-16.3-7.9c0.3-0.7,0.7-1.4,1.1-2.2l16.2,8.1C105.2,181.9,104.9,182.5,104.6,183.2z M404.3,178.4
					c-0.3-0.6-0.7-1.3-1-1.9l16-8.6c0.4,0.7,0.7,1.4,1.1,2.1L404.3,178.4z M108,176.5l-16-8.6c0.4-0.7,0.8-1.4,1.1-2.1l15.8,8.8
					C108.7,175.2,108.3,175.9,108,176.5z M400.7,171.8c-0.4-0.6-0.7-1.2-1.1-1.8l15.6-9.3c0.4,0.7,0.8,1.4,1.2,2L400.7,171.8z
					 M111.7,169.9l-15.6-9.3c0.4-0.7,0.8-1.4,1.2-2l15.4,9.5C112.5,168.7,112.1,169.3,111.7,169.9z M396.8,165.4
					c-0.4-0.6-0.8-1.2-1.2-1.8l15.1-10c0.4,0.7,0.9,1.3,1.3,2L396.8,165.4z M115.7,163.6l-15.1-10c0.4-0.7,0.9-1.3,1.3-2l15,10.2
					C116.5,162.4,116.1,163,115.7,163.6z M392.6,159.2c-0.4-0.6-0.8-1.2-1.3-1.7l14.7-10.7c0.5,0.6,0.9,1.3,1.4,1.9L392.6,159.2z
					 M120,157.4l-14.7-10.7c0.5-0.6,0.9-1.3,1.4-1.9l14.5,10.9C120.9,156.2,120.5,156.8,120,157.4z M388.1,153.1
					c-0.4-0.6-0.9-1.1-1.3-1.7l14.2-11.3c0.5,0.6,1,1.2,1.5,1.9L388.1,153.1z M124.6,151.4l-14.2-11.3c0.5-0.6,1-1.2,1.5-1.9
					l14,11.5C125.5,150.3,125.1,150.8,124.6,151.4z M383.3,147.3c-0.5-0.5-0.9-1.1-1.4-1.6l13.6-11.9c0.5,0.6,1,1.2,1.6,1.8
					L383.3,147.3z M129.4,145.6l-13.6-11.9c0.5-0.6,1.1-1.2,1.6-1.8l13.5,12.1C130.4,144.5,129.9,145.1,129.4,145.6z M378.3,141.7
					c-0.5-0.5-1-1-1.5-1.6l13.1-12.5c0.5,0.6,1.1,1.2,1.6,1.7L378.3,141.7z M134.5,140.1l-13.1-12.5c0.5-0.6,1.1-1.1,1.7-1.7
					l12.9,12.7C135.5,139,135,139.5,134.5,140.1z M373.1,136.3c-0.5-0.5-1-1-1.6-1.5l12.5-13.1c0.6,0.5,1.1,1.1,1.7,1.6L373.1,136.3
					z M139.8,134.7l-12.5-13.1c0.6-0.5,1.1-1.1,1.7-1.6l12.4,13.3C140.9,133.7,140.4,134.2,139.8,134.7z M367.6,131.2
					c-0.5-0.5-1.1-1-1.6-1.4l11.9-13.7c0.6,0.5,1.2,1.1,1.8,1.6L367.6,131.2z M145.4,129.7L133.5,116c0.6-0.5,1.2-1,1.8-1.6
					l11.7,13.8C146.5,128.7,145.9,129.2,145.4,129.7z M361.9,126.2c-0.6-0.5-1.1-0.9-1.7-1.4l11.3-14.2c0.6,0.5,1.2,1,1.9,1.5
					L361.9,126.2z M151.2,124.8l-11.3-14.2c0.6-0.5,1.2-1,1.9-1.5l11.1,14.3C152.3,124,151.7,124.4,151.2,124.8z M356,121.6
					c-0.6-0.4-1.2-0.9-1.7-1.3l10.7-14.7c0.6,0.5,1.3,0.9,1.9,1.4L356,121.6z M157.1,120.3l-10.7-14.7c0.6-0.5,1.3-0.9,1.9-1.4
					l10.5,14.8C158.3,119.5,157.7,119.9,157.1,120.3z M349.8,117.2c-0.6-0.4-1.2-0.8-1.8-1.2l10-15.1c0.7,0.4,1.3,0.9,2,1.3
					L349.8,117.2z M163.3,116l-10-15.1c0.7-0.4,1.3-0.9,2-1.3l9.8,15.3C164.5,115.2,163.9,115.6,163.3,116z M343.5,113.1
					c-0.6-0.4-1.2-0.7-1.8-1.1l9.3-15.6c0.7,0.4,1.4,0.8,2.1,1.2L343.5,113.1z M169.7,112l-9.3-15.6c0.7-0.4,1.4-0.8,2.1-1.2
					l9.1,15.7C170.9,111.3,170.3,111.6,169.7,112z M337,109.3c-0.6-0.3-1.3-0.7-1.9-1l8.6-16c0.7,0.4,1.4,0.8,2.1,1.1L337,109.3z
					 M176.2,108.3l-8.6-16c0.7-0.4,1.4-0.7,2.1-1.1l8.4,16.1C177.5,107.6,176.8,108,176.2,108.3z M330.3,105.8
					c-0.6-0.3-1.3-0.6-1.9-0.9l7.9-16.3c0.7,0.3,1.4,0.7,2.2,1.1L330.3,105.8z M182.9,104.9L175,88.5c0.7-0.3,1.4-0.7,2.1-1
					l7.7,16.4C184.2,104.3,183.5,104.6,182.9,104.9z M323.5,102.6c-0.7-0.3-1.3-0.6-2-0.9l7.1-16.7c0.7,0.3,1.5,0.6,2.2,1
					L323.5,102.6z M189.7,101.8l-7.1-16.7c0.7-0.3,1.5-0.6,2.2-0.9l6.9,16.8C191,101.2,190.4,101.5,189.7,101.8z M316.6,99.7
					c-0.7-0.3-1.3-0.5-2-0.8l6.4-17c0.7,0.3,1.5,0.6,2.2,0.8L316.6,99.7z M196.7,99l-6.4-17c0.7-0.3,1.5-0.6,2.2-0.8l6.2,17.1
					C198,98.5,197.4,98.7,196.7,99z M309.5,97.1c-0.7-0.2-1.4-0.5-2.1-0.7l5.6-17.3c0.8,0.2,1.5,0.5,2.3,0.8L309.5,97.1z
					 M203.8,96.5l-5.6-17.2c0.8-0.2,1.5-0.5,2.3-0.7l5.4,17.3C205.1,96.1,204.5,96.3,203.8,96.5z M302.3,94.9
					c-0.7-0.2-1.4-0.4-2.1-0.6l4.8-17.5c0.8,0.2,1.5,0.4,2.3,0.6L302.3,94.9z M211,94.3l-4.8-17.5c0.8-0.2,1.5-0.4,2.3-0.6l4.6,17.5
					C212.4,94,211.7,94.1,211,94.3z M295,93c-0.7-0.2-1.4-0.3-2.1-0.5l4-17.7c0.8,0.2,1.5,0.4,2.3,0.5L295,93z M218.3,92.5l-4-17.7
					c0.8-0.2,1.5-0.3,2.3-0.5l3.8,17.7C219.7,92.2,219,92.3,218.3,92.5z M287.6,91.4c-0.7-0.1-1.4-0.3-2.1-0.4l3.2-17.8
					c0.8,0.1,1.6,0.3,2.4,0.4L287.6,91.4z M225.6,91l-3.2-17.8c0.8-0.1,1.6-0.3,2.3-0.4l3,17.9C227.1,90.7,226.4,90.9,225.6,91z
					 M280.2,90.1c-0.7-0.1-1.4-0.2-2.1-0.3l2.4-18c0.8,0.1,1.6,0.2,2.4,0.3L280.2,90.1z M233.1,89.8l-2.4-18
					c0.8-0.1,1.6-0.2,2.4-0.3l2.2,18C234.5,89.6,233.8,89.7,233.1,89.8z M272.8,89.2c-0.7-0.1-1.4-0.1-2.1-0.2l1.6-18.1
					c0.8,0.1,1.6,0.1,2.4,0.2L272.8,89.2z M240.6,89l-1.6-18.1c0.8-0.1,1.6-0.1,2.4-0.2l1.4,18.1C242,88.9,241.3,88.9,240.6,89z
					 M265.3,88.6c-0.7,0-1.4-0.1-2.1-0.1l0.8-18.1c0.8,0,1.6,0.1,2.4,0.1L265.3,88.6z M248.1,88.5l-0.8-18.1c0.8,0,1.6-0.1,2.4-0.1
					l0.6,18.1C249.5,88.4,248.8,88.5,248.1,88.5z M257.7,88.3c-0.7,0-1.4,0-2.1,0l-0.1-18.1h0.1c0.8,0,1.5,0,2.3,0L257.7,88.3z"/>
			</g>
		</g>
		<g>
			<g>
				<g>
					<polygon fill="#FFFFFF" points="256.3,255.6 263.9,414.4 248.7,414.4 					"/>
					<polygon fill="#FFFFFF" points="256.3,255.6 301.6,407.9 286.9,411.5 					"/>
					<polygon fill="#FFFFFF" points="256.3,255.6 336.8,392.6 323.4,399.7 					"/>
					<polygon fill="#FFFFFF" points="256.3,255.6 367.3,369.4 355.9,379.5 					"/>
					<polygon fill="#FFFFFF" points="256.3,255.6 391.2,339.5 382.6,352 					"/>
					<polygon fill="#FFFFFF" points="256.3,255.6 407.5,304.8 402.1,318.9 					"/>
					<polygon fill="#FFFFFF" points="256.3,255.6 414.8,267.2 413,282.2 					"/>
					<polygon fill="#FFFFFF" points="256.3,255.6 413,228.9 414.8,243.9 					"/>
					<polygon fill="#FFFFFF" points="256.3,255.6 402.1,192.2 407.5,206.4 					"/>
					<polygon fill="#FFFFFF" points="256.3,255.6 382.6,159.2 391.2,171.6 					"/>
					<polygon fill="#FFFFFF" points="256.3,255.6 355.9,131.7 367.3,141.7 					"/>
					<polygon fill="#FFFFFF" points="256.3,255.6 323.4,111.5 336.8,118.5 					"/>
					<polygon fill="#FFFFFF" points="256.3,255.6 286.9,99.6 301.6,103.2 					"/>
					<polygon fill="#FFFFFF" points="256.3,255.6 248.7,96.8 263.9,96.8 					"/>
					<polygon fill="#FFFFFF" points="256.3,255.6 211,103.2 225.7,99.6 					"/>
					<polygon fill="#FFFFFF" points="256.3,255.6 175.8,118.5 189.2,111.5 					"/>
					<polygon fill="#FFFFFF" points="256.3,255.6 145.3,141.7 156.7,131.7 					"/>
					<polygon fill="#FFFFFF" points="256.3,255.6 121.4,171.6 130,159.2 					"/>
					<polygon fill="#FFFFFF" points="256.3,255.6 105.1,206.4 110.5,192.2 					"/>
					<polygon fill="#FFFFFF" points="256.3,255.6 97.8,243.9 99.6,228.9 					"/>
					<polygon fill="#FFFFFF" points="256.3,255.6 99.6,282.2 97.8,267.2 					"/>
					<polygon fill="#FFFFFF" points="256.3,255.6 110.5,318.9 105.1,304.8 					"/>
					<polygon fill="#FFFFFF" points="256.3,255.6 130,352 121.4,339.5 					"/>
					<polygon fill="#FFFFFF" points="256.3,255.6 156.7,379.5 145.3,369.4 					"/>
					<polygon fill="#FFFFFF" points="256.3,255.6 189.2,399.7 175.8,392.6 					"/>
					<polygon fill="#FFFFFF" points="256.3,255.6 225.7,411.5 211,407.9 					"/>
				</g>
			</g>
		</g>
		<g>
			<g>
				<g>
					<g>
						<path fill="#FFFFFF" d="M199.7,122.8l149.9,30c0,0,10.5,0,14.5,5.1c4,5.1,2.6,15,2.6,15l37.4,89.5c0,0,1.2,7.3-2.7,11.7
							s-15.2,3.4-15.2,3.4l-1.1,24.3c0,0,4,11.1,1.7,15.3c-2.4,4.2-9.2,5.6-9.2,5.6l-94.2,61.7c0,0-5.4,5.5-10.2,4.7
							s-6.9-1.2-9.2-3.4c-2.4-2.2-3.1-3.2-3.1-3.2L129,316.2c0,0-7.4-0.9-9.3-4.1s0.4-14,0.4-14l-6-25.1l93.8-41.9
							c0,0,1.2-4.7,6.7-7.7c5.5-3,12.2-7.1,12.2-7.1l-44.3-82.7c0,0-3.1-6.2,5.7-8.1C197,123.6,199.7,122.8,199.7,122.8z"/>
						<path d="M274.1,392.2c-0.5,0-1,0-1.5-0.1c-5-0.8-7.7-1.3-10.8-4.2c-1.5-1.4-2.4-2.4-2.9-3l-130.8-65.7
							c-2.2-0.3-8.7-1.6-11-5.4c-2.1-3.6-0.9-11.6-0.1-15.5l-6.4-26.9l94.9-42.5c0.9-2,3-5.6,7.6-8.1c3.4-1.8,7.2-4.1,9.7-5.6
							L179.9,135c-0.2-0.4-1.8-3.8-0.1-7.2c1.3-2.6,3.9-4.4,7.8-5.2c8.5-1.8,11.2-2.6,11.2-2.6l0.7-0.2l0.7,0.1l149.6,30
							c2.2,0,12,0.5,16.5,6.3c4,5.2,3.6,13.6,3.3,16.4l37.2,89.1l0.1,0.3c0.1,0.4,1.4,8.8-3.5,14.2c-3.3,3.7-9.7,4.5-14.5,4.5
							l-0.9,20.7c1,3,4,12.4,1.3,17.2c-2.6,4.6-8.6,6.5-10.6,7l-93.5,61.2C284,387.9,279.3,392.2,274.1,392.2z M263.2,380.7
							c0,0,0.7,0.9,2.7,2.8c1.7,1.6,3,1.9,7.6,2.6c0.2,0,0.3,0,0.5,0c2.7,0,6.1-2.9,7.1-3.9l0.2-0.2l0.3-0.2l94.7-62l0.6-0.1
							c1.4-0.3,5.8-1.7,7.2-4.1c1-1.8-0.2-8.1-1.9-12.8l-0.2-0.6l1.3-28l3.1,0.3c0,0,1,0.1,2.5,0.1c5,0,8.8-0.9,10.2-2.5
							c2.5-2.8,2.2-7.7,2.1-8.9l-37.5-89.8l0.1-0.8c0.3-2.4,0.6-9.3-2-12.7c-2.5-3.2-9.8-4-12.1-4h-0.3l-0.3-0.1l-149.2-29.9
							c-1.3,0.4-4.5,1.2-11,2.5c-1.9,0.4-3.3,1.1-3.7,1.9c-0.4,0.8,0.1,1.9,0.1,1.9l45.6,85.1l-2.4,1.5c-0.3,0.2-6.9,4.2-12.3,7.2
							c-4.2,2.3-5.2,5.7-5.3,5.9l-0.4,1.3l-1.3,0.6l-91.5,40.9l5.6,23.3l-0.1,0.7c-1.1,5-1.4,10.7-0.8,11.9c0.7,1.1,4.3,2.3,7.1,2.6
							l0.5,0.1l0.5,0.2l132.4,66.6L263.2,380.7L263.2,380.7z"/>
					</g>
				</g>
			</g>
			<g>
				<g>
					<path d="M199.7,122.8l149.9,30c0,0,10.5,0,14.5,5.1c4,5.1,2.6,15,2.6,15l37.4,89.5c0,0,1.2,7.3-2.7,11.7
						c-3.9,4.4-15.2,3.4-15.2,3.4l-1.1,24.3c0,0,4,11.1,1.7,15.3c-2.4,4.2-9.2,5.6-9.2,5.6l-94.2,61.7c0,0-5.4,5.5-10.2,4.7
						s-6.9-1.2-9.2-3.4c-2.4-2.2-3.1-3.2-3.1-3.2L129,316.2c0,0-7.4-0.9-9.3-4.1s0.4-14,0.4-14l-6-25.1l93.8-41.9
						c0,0,1.2-4.7,6.7-7.7c5.5-3,12.2-7.1,12.2-7.1l-44.3-82.7c0,0-3.1-6.2,5.7-8.1C197,123.6,199.7,122.8,199.7,122.8z"/>
					<path d="M274.1,395.7c-0.7,0-1.4-0.1-2.1-0.2c-5.1-0.8-8.8-1.5-12.6-5.1c-1.2-1.1-2.1-2-2.7-2.7L127,322.5
						c-3.6-0.6-10-2.3-12.9-7c-2.5-4.1-1.8-11.4-0.7-17.3l-6.9-28.9l96.4-43.1c1.4-2.5,3.9-6,8.6-8.5c2.2-1.2,4.6-2.6,6.7-3.8
						l-41.4-77.4c-0.4-0.9-2.5-5.4-0.1-10.3c1.2-2.5,4-5.8,10.3-7.1c8.2-1.7,10.9-2.5,11-2.5l1.5-0.5l1.6,0.3l149.3,29.9
						c3.4,0.1,13.7,0.9,18.9,7.6c4.4,5.7,4.4,14,4.1,18l37,88.6l0.1,0.7c0.2,1.1,1.5,10.6-4.3,17.1c-2.9,3.2-7.5,5.1-13.8,5.5
						l-0.8,16.8c1.6,4.7,3.9,13.8,0.8,19.5c-3,5.4-9.3,7.7-12.3,8.5l-92.7,60.7C285.5,391.2,280.2,395.7,274.1,395.7z M266,378.6
						c0.2,0.2,0.9,1,2.3,2.4c0.8,0.8,1.1,1,5.8,1.7c0.9,0,3.3-1.6,4.5-2.8l0.5-0.5l95.9-62.8l1.2-0.2c1.8-0.4,4.1-1.5,4.7-2.2
						c0.3-1.6-0.7-6.4-2-10.1l-0.4-1.2l1.5-32.3l6.8,0.6l0,0c0,0,0.9,0.1,2.1,0.1c5,0,7.2-1,7.6-1.4c1.2-1.3,1.3-4.1,1.2-5.7
						L360,173.8l0.2-1.8c0.4-3,0.2-8.2-1.3-10.1c-1.1-1.5-5.9-2.6-9.3-2.6l-0.6,0l-0.6-0.1l-148.4-29.7c-1.7,0.4-4.9,1.2-10.3,2.4
						c-0.2,0-0.4,0.1-0.5,0.1l46.4,86.6l-5.2,3.2c-0.3,0.2-6.9,4.2-12.5,7.3c-2.5,1.4-3.4,3.3-3.6,3.8l-0.6,3.2l-3,1l-88.9,39.7
						l5.1,21.3l-0.3,1.4c-0.7,3.3-1.1,7.2-1,9.1c1.1,0.5,3,1,4.3,1.2l1.1,0.1l1,0.5l133.3,67L266,378.6z"/>
				</g>
			</g>
			<g>
				<g>
					<path fill="#FFFFFF" d="M175.1,333.5c6.7,4.5,12.7,6.7,17.9,6.7c2.2,0,4.2-0.4,5.9-1.2c3.4-1.6,4.9-4.7,5.4-7
						c0.8,0.4,2,0.8,3,0.8c0,0,0,0,0.1,0c2,0,2.2-2.4,2.4-4.1c0-0.5,0.1-0.9,0.1-1.4c0.3-2.3-1.3-2.9-3.9-4c-1-0.4-2.2-0.9-3.6-1.6
						c-2.9-1.4-4.4-1.8-5.4-1.4c-1,0.4-1.3,1.2-1.7,2.1c-0.1,0.3-0.3,0.6-0.4,0.9c-0.6,1.1-0.7,2.1-0.2,2.9c0.2,0.3,0.4,0.6,0.6,0.7
						c-0.1,0.1-0.1,0.2-0.2,0.2c-0.7,0.8-1.3,1.4-2.7,1.4c-0.5,0-1-0.1-1.6-0.2c-5-1.1-11.6-4.8-14.7-7c-1.4-1-2-2.3-2.2-3.8
						c0.8,0.3,1.8,0.6,2.7,0.7c0,0,0,0,0.1,0c2,0,2.2-2.4,2.4-4.1c0-0.5,0.1-0.9,0.1-1.4c0.3-2.3-1.3-2.9-3.9-4
						c-1-0.4-2.2-0.9-3.7-1.6c-2.9-1.4-4.4-1.8-5.4-1.4c-1,0.4-1.3,1.2-1.7,2.1c-0.1,0.3-0.3,0.6-0.4,0.9c-0.6,1.1-0.7,2.1-0.2,2.9
						c0.2,0.5,0.6,0.7,0.9,0.9c0,0,0,0.1,0,0.1c-0.3,0.9-0.7,2.3-1.5,4.4C160.6,323.1,164.4,326.3,175.1,333.5z M171.8,314.4
						c-0.5-0.2-1.2-0.4-2.2-0.8c-1.4-0.4-2.5-0.5-3.2-0.4c0,0,0-0.1,0-0.1c0.1-0.4,0.2-0.7,0.3-0.9c1,0,1.7,0.2,1.8,0.2
						c1.7,0.3,3.5,1.2,3.4,1.7C171.9,314.2,171.9,314.3,171.8,314.4z M166.3,313.8c0.6-0.1,1.7-0.1,3.2,0.4c1.1,0.3,1.8,0.6,2.3,0.8
						c0,0.3-0.1,0.7-0.1,1.1c-0.5-0.2-1.2-0.4-2.2-0.7c-1.7-0.5-3-0.5-3.6-0.4C166,314.5,166.2,314.1,166.3,313.8z M165.7,315.5
						c0.4-0.1,1.7-0.3,3.6,0.3c1.1,0.3,1.8,0.6,2.3,0.8c0,0.2,0,0.4,0,0.5c-0.6-0.2-1.5-0.4-2.8-0.7c-1.5-0.3-2.6-0.3-3.4-0.1
						C165.5,316.1,165.6,315.8,165.7,315.5z M175.6,326.7c-1.4,1.3-2,2.4-2.2,3.1c-0.4-0.3-0.7-0.5-1.1-0.7c0.3-0.6,0.9-1.6,2.5-2.8
						c1.2-0.9,2-1.5,2.5-1.8c0.2,0.1,0.3,0.2,0.5,0.3C177.3,325.2,176.6,325.8,175.6,326.7z M178.2,325.1c0.2,0.1,0.5,0.3,0.7,0.4
						c-0.5,0.4-1.2,1-2.3,2c-1.4,1.3-2,2.4-2.2,3.1c-0.2-0.2-0.4-0.3-0.6-0.4c0.2-0.6,0.7-1.7,2.1-3.1
						C177,326.1,177.7,325.5,178.2,325.1z M174.4,325.9c-1.5,1.2-2.2,2.2-2.6,2.9c-0.3-0.2-0.5-0.4-0.8-0.6c0.4-0.6,1.1-1.5,2.4-2.4
						c1.5-1.1,2.4-1.6,2.9-1.9c0.1,0.1,0.3,0.2,0.4,0.3C176.2,324.6,175.5,325.1,174.4,325.9z M173.1,325.4c-1.3,1-2.1,1.9-2.5,2.5
						c-0.3-0.3-0.7-0.5-1-0.7c0.4-0.6,1.2-1.5,2.7-2.4c1.4-0.8,2.3-1.3,2.8-1.5c0.2,0.1,0.4,0.3,0.6,0.4
						C175.3,324,174.5,324.5,173.1,325.4z M172.2,324.3c-1.6,1-2.4,1.9-2.9,2.6c-0.4-0.3-0.7-0.6-1.1-0.9c0.4-0.5,1.3-1.4,3.2-2.2
						c1.5-0.6,2.4-1,3-1.2c0.1,0.1,0.2,0.2,0.3,0.2C174.2,323.2,173.4,323.6,172.2,324.3z M171.2,323.4c-1.9,0.8-2.9,1.8-3.4,2.3
						c-0.3-0.3-0.6-0.5-0.9-0.8c0.5-0.5,1.5-1.3,3.2-2c1.8-0.7,2.9-1,3.4-1.1c0.1,0.1,0.3,0.3,0.4,0.4
						C173.4,322.5,172.5,322.8,171.2,323.4z M165.5,323.3c0.3-0.3,1.5-1.2,4.1-1.5c1.9-0.3,2.9-0.3,3.5-0.3
						c-0.6,0.2-1.6,0.5-3.1,1.1c-1.8,0.7-2.9,1.5-3.4,2.1C166.2,324.1,165.8,323.7,165.5,323.3z M164.9,317.8
						c0.1-0.3,0.2-0.6,0.3-0.9c0.7-0.2,1.9-0.3,3.5,0c1.5,0.3,2.4,0.6,3,0.7c0,0.1,0,0.3,0.1,0.4c-0.6-0.1-1.6-0.3-3.3-0.5
						C166.8,317.4,165.6,317.6,164.9,317.8C164.9,317.8,164.9,317.8,164.9,317.8z M164.6,318.5c0.6-0.3,1.9-0.6,3.8-0.4
						c1.9,0.2,2.9,0.4,3.4,0.5c0,0.2,0.1,0.4,0.1,0.6c-0.5-0.1-1.6-0.2-3.7-0.2c-2,0-3.3,0.4-4,0.8
						C164.4,319.3,164.5,318.9,164.6,318.5z M164.4,320.3c0.5-0.3,1.7-0.9,3.8-0.9c0.1,0,0.1,0,0.2,0c2.8,0,3.8,0.3,3.9,0.3
						c0,0.1,0.1,0.2,0.1,0.3c-0.7,0-1.8,0-3.6,0.1c-2.3,0.2-3.6,0.9-4.2,1.4C164.4,321.1,164.4,320.7,164.4,320.3z M168.8,320.6
						c2.1-0.2,3.3-0.2,3.8-0.1c0.1,0.1,0.2,0.3,0.3,0.4c-0.6,0-1.7,0.1-3.3,0.3c-2.7,0.4-3.9,1.3-4.3,1.6c-0.2-0.3-0.3-0.6-0.5-0.9
						C165.2,321.6,166.4,320.8,168.8,320.6z M174.8,330.9c0.2-0.6,0.7-1.7,2.1-3c1.2-1.1,2-1.7,2.4-2.1c0.2,0.1,0.4,0.2,0.7,0.4
						c-0.5,0.4-1.2,1-2.3,2c-1.4,1.3-2,2.5-2.3,3.2C175.3,331.2,175,331,174.8,330.9z M175.9,331.6c0.2-0.6,0.7-1.7,2.2-3.1
						c1.2-1.1,2-1.8,2.4-2.1c0.2,0.1,0.4,0.2,0.6,0.3c-0.4,0.4-1.1,1-2.2,2.2c-1.3,1.4-1.9,2.6-2.2,3.2c-0.2-0.1-0.4-0.2-0.6-0.4
						C176.1,331.7,176,331.7,175.9,331.6z M187.4,332.9c-1.2,2.1-2.2,3.2-2.6,3.6c-0.3-0.1-0.5-0.2-0.8-0.3c0.5-0.5,1.4-1.6,2.5-3.6
						c0.9-1.5,1.3-2.4,1.6-2.9c0.3,0.1,0.6,0.2,0.9,0.3C188.8,330.4,188.3,331.3,187.4,332.9z M189.5,330.1c0.2,0,0.3,0.1,0.5,0.1
						c-0.1,0.4-0.4,1.4-1.2,3.4c-0.7,1.9-1.4,3.1-1.8,3.7c-0.6-0.2-1.1-0.4-1.7-0.6c0.5-0.5,1.4-1.6,2.5-3.5
						C188.8,331.5,189.3,330.6,189.5,330.1z M186.1,332.3c-1.2,2.1-2.2,3.2-2.6,3.6c-0.3-0.2-0.7-0.3-1-0.5c0.4-0.5,1.2-1.6,2.4-3.3
						c1.3-1.9,1.8-2.7,1.9-2.9c0.3,0.1,0.6,0.2,0.8,0.3C187.4,330,187,330.9,186.1,332.3z M184.5,331.9c-1.3,1.9-2.1,3-2.4,3.4
						c-0.3-0.1-0.5-0.3-0.8-0.4c0.4-0.5,1.2-1.6,2.3-3.2c1.3-2,1.8-2.7,1.9-2.9c0.3,0.1,0.6,0.2,0.8,0.3
						C186.2,329.4,185.6,330.2,184.5,331.9z M183.2,331.4c-1.1,1.7-2,2.8-2.3,3.2c-0.2-0.1-0.3-0.2-0.5-0.3c0.3-0.5,0.9-1.7,2.2-3.3
						c1.2-1.6,1.8-2.4,2.1-2.7c0.2,0.1,0.3,0.1,0.5,0.2C184.9,328.8,184.4,329.6,183.2,331.4z M182.1,330.7
						c-1.2,1.7-1.9,2.8-2.2,3.4c-0.2-0.1-0.4-0.2-0.6-0.3c0-0.1,0.4-1.5,2.3-3.5c1.1-1.2,1.8-1.9,2.2-2.2c0.1,0,0.2,0.1,0.3,0.1
						C183.8,328.5,183.2,329.3,182.1,330.7z M181.3,329.9c-1.7,1.8-2.2,3.2-2.3,3.6c-0.2-0.1-0.5-0.3-0.7-0.4
						c0.2-0.5,0.7-1.7,2.2-3.3c1.2-1.3,1.9-2,2.3-2.3c0.2,0.1,0.4,0.2,0.6,0.3C182.9,328.2,182.3,328.8,181.3,329.9z M180.1,329.5
						c-1.4,1.5-2,2.8-2.3,3.4c-0.2-0.1-0.4-0.3-0.7-0.4c0.2-0.6,0.8-1.7,2.1-3.1c1.2-1.3,2-2,2.3-2.3c0.2,0.1,0.4,0.2,0.6,0.3
						C181.8,327.7,181.1,328.3,180.1,329.5z M192.7,330.5c0.2,0,0.4,0,0.6-0.1c0.1,0.6,0.3,1.7,0.3,3.6c0.1,2.3-0.5,3.6-0.9,4.2
						c-0.3,0-0.7,0-1.1-0.1c0.3-0.7,0.7-2,0.8-3.9C192.8,331.9,192.8,330.9,192.7,330.5z M195.5,338c-0.7,0.1-1.4,0.2-2.1,0.2
						c0.4-0.7,0.9-2.1,0.8-4.2c-0.1-2-0.2-3.1-0.3-3.7c0.2-0.1,0.4-0.1,0.6-0.2c0.2,0.5,0.6,1.5,1.1,3.6
						C196.1,335.9,195.7,337.4,195.5,338z M198.6,336.9c0.1-0.8,0-2.3-0.9-4.2c-1-2.3-1.6-3.3-1.9-3.7c0.1-0.1,0.3-0.3,0.4-0.4
						c0.2,0.2,1,1.1,2.5,3.3c1.3,2.1,1.2,3.6,1.1,4.1C199.4,336.4,199,336.7,198.6,336.9z M200.3,335.6c0-0.8-0.2-2.2-1.2-3.8
						c-1.5-2.3-2.3-3.2-2.5-3.4c0.1-0.1,0.2-0.3,0.3-0.4c0.4,0.3,1.3,1.1,3,3c1.1,1.2,1.5,2.3,1.6,3.1
						C201.1,334.5,200.8,335.1,200.3,335.6z M202.5,331c-0.4-0.6-0.9-1.2-1.8-1.9c-0.9-0.7-1.6-1.3-2.2-1.6c1.9,0.1,3.9,1.5,4.1,2
						C202.6,329.7,202.6,330.3,202.5,331z M197.7,327.4c0.5,0.3,1.4,0.9,2.7,2c1.1,0.9,1.6,1.7,1.9,2.3c-0.1,0.5-0.3,1-0.5,1.5
						c-0.2-0.7-0.7-1.7-1.6-2.7c-1.5-1.8-2.5-2.6-3-3C197.4,327.5,197.5,327.5,197.7,327.4z M196.5,324.2c0.2-0.3,0.3-0.7,0.5-1
						c0.2-0.5,0.4-1,0.6-1c0.3-0.1,1.2,0,3.9,1.3c1.5,0.7,2.7,1.2,3.7,1.6c2.8,1.2,2.8,1.3,2.7,1.9c-0.1,0.5-0.1,1-0.2,1.5
						c-0.1,0.8-0.2,2.1-0.4,2.3c-0.8,0-2-0.5-2.7-0.8c0-0.3,0-0.5,0-0.7c-0.2-2-3.7-3.8-6.4-3.8c-0.2,0-0.4,0-0.6,0
						c-0.4,0-0.7,0.1-1,0.3l0-0.3c-0.1,0-0.3-0.1-0.4-0.2C196.2,325.1,196.2,324.7,196.5,324.2z M195.5,329.4
						c0.3,0.4,0.9,1.4,1.8,3.5c1,2.2,0.9,3.7,0.8,4.3c-0.6,0.3-1.3,0.5-2,0.7c0.2-0.8,0.5-2.2-0.1-4.3c-0.5-2.1-0.9-3.2-1.1-3.7
						C195.1,329.7,195.3,329.5,195.5,329.4z M192.2,330.5c0,0.4,0,1.4-0.1,3.6c-0.2,2.1-0.6,3.3-0.9,4c-0.7-0.1-1.4-0.2-2.2-0.3
						c0.3-0.6,1-1.8,1.7-3.9c0.6-1.9,0.9-2.9,1-3.3C191.9,330.5,192.1,330.5,192.2,330.5C192.2,330.5,192.2,330.5,192.2,330.5z
						 M191.2,330.5c-0.1,0.5-0.4,1.5-1,3.2c-0.7,2.2-1.4,3.5-1.7,4c-0.3-0.1-0.6-0.2-1-0.2c0.4-0.6,1.1-1.8,1.7-3.6
						c0.8-2.1,1.1-3.1,1.2-3.4C190.7,330.4,191,330.4,191.2,330.5z M165.4,310.6c-0.1-0.1,0-0.5,0.3-1c0.2-0.4,0.3-0.7,0.5-1
						c0.2-0.5,0.4-1,0.6-1c0.3-0.1,1.2,0,3.9,1.3c1.5,0.7,2.7,1.2,3.7,1.6c2.8,1.2,2.8,1.3,2.7,1.9c-0.1,0.5-0.1,1-0.2,1.5
						c-0.1,0.8-0.2,2.1-0.4,2.3c-0.8,0-2-0.5-2.7-0.8c0-0.3,0.1-0.6,0.1-1c0.4-2.7-4.1-3.8-4.9-3.9c-0.1,0-0.9-0.3-2.3-0.3
						C166.1,310.2,165.7,310.4,165.4,310.6C165.4,310.7,165.4,310.6,165.4,310.6z"/>
					<path fill="#FFFFFF" d="M231.5,350.2l0.9,0.4c1.6,0.7,2.8,1,3.9,1c2.1,0,3.7-1.2,4.6-3.8c1.7-4.4,1.1-6.5-2.7-8.9
						c-3.5-2.2-14.6-6.7-15-6.9l-0.2-0.1c0,0-0.1,0-0.3,0c-0.9,0-1.6,0.6-1.9,1.5c0,0.2-0.1,0.4-0.2,0.8c-0.4,1.6-1.3,4.6-1.4,7.3
						C219,344.9,225.4,347.7,231.5,350.2z M222.6,334.8c0.1-0.3,0.2-0.6,0.2-0.8c1.8,0.7,11.4,4.6,14.4,6.6c2.9,1.9,3.2,2.9,1.9,6.5
						c-0.9,2.2-1.9,2.5-2.8,2.5c-0.8,0-1.8-0.3-3.1-0.8l-0.9-0.4c-7.4-3-11.1-5.3-11-6.7C221.3,339.2,222.1,336.3,222.6,334.8z"/>
					<path fill="#FFFFFF" d="M134.2,299.5c0.1-0.1,0.2-0.2,0.3-0.3c-0.1,0.9-0.2,1.7-0.2,2.6c0,3.1,5.7,5.2,11.6,7.2l0.8,0.3
						c1.4,0.5,2.4,0.7,3.2,0.7c2.2,0,3.6-1.2,4.4-3.8c1.1-3.6,1-5.7-3-7.9c-0.9-0.5-2.4-1.1-4-1.8c0.2-0.4,0.4-0.8,0.4-1.3
						c0-0.6-0.2-1.1-0.7-1.6c-0.9-0.9-2-1.2-3-1.4c-0.5-0.1-1.1-0.3-1.7-0.5c-0.5-0.2-1-0.3-1.5-0.3c-1.5,0-2.6,0.8-2.7,0.9
						l-0.2,0.2l-0.1,0.3c0,0.1,0,0.2-0.1,0.3c-0.1,0-0.2-0.1-0.3-0.1l-0.4-0.1c-0.5,0-1.1,0.2-1.5,0.7c-0.4,0.1-0.7,0.3-1.2,0.4
						c-1.6,0.7-5.5,2.5-5.9,4.5c-0.1,0.7,0.1,1.3,0.6,1.8c0.6,0.5,1.2,0.8,1.9,0.8c0,0,0,0,0,0C132.3,301.2,133.3,300.3,134.2,299.5
						z M152.5,305.5c-0.6,2.1-1.6,2.4-2.5,2.4c-0.7,0-1.5-0.2-2.6-0.6l-0.8-0.3c-6.8-2.2-10.2-4-10.2-5.3c0-1.2,0.2-2.6,0.4-3.9
						c0.3-0.1,0.6-0.3,0.8-0.4c-0.1,0.1-0.1,0.3-0.1,0.4c-0.5,1.8-0.6,3.6,2.6,4.9c0.6,0.3,1.2,0.4,1.7,0.4c1.8,0,3.2-1.4,3.6-3.8
						c0.1-0.3,0-0.6,0-0.8c0.1-0.1,0.3-0.2,0.4-0.3l0.2-0.2c0,0,0,0,0,0c1.8,0.7,3.5,1.4,4.4,1.9
						C153.2,301.4,153.5,302.3,152.5,305.5z M139.3,298.5c0.1-0.5,1.3-0.9,2-0.9c0.9,0.3,2.2,1,2.1,1.6c-0.1,0.8-0.6,2.2-1.7,2.2
						c-0.3,0-0.6-0.1-1-0.2C138.9,300.3,139,299.8,139.3,298.5z M141.6,293.5c0.7,0.3,1.4,0.4,1.9,0.6c0.9,0.2,1.5,0.4,2.1,0.9
						c0.1,0.1,0.1,0.1,0.1,0.1c0,0.4-0.6,1-1,1.4c-0.3-0.3-0.8-0.8-1.4-1.1c-0.9-0.4-1.9-0.4-2.8-0.5c-0.1-0.3-0.3-0.8-0.7-1.3
						C140.2,293.4,141,293.2,141.6,293.5z M130.6,299c0.1-0.5,1.8-1.9,4.7-3.1c1-0.4,1.7-0.6,2.3-0.7c0,0.1,0,0.1,0,0.2
						c-1,0.4-2.2,1-3.1,1.4c-0.6,0.3-1.1,0.8-1.7,1.3c-0.6,0.5-1.3,1.2-1.7,1.2C131.1,299.2,130.9,299.2,130.6,299z"/>
					<path fill="#FFFFFF" d="M406.4,264.2c-0.1-1.3-0.7-2.3-1.6-2.8l-36.2-88.6c0.8-0.9,1.1-2.2,1.2-4.2l0-0.8
						c0.2-2.8,0-12.1-10.3-15.6c-2.7-0.9-4.5-1.3-6-1.3c-0.8,0-1.4,0.1-2,0.3l-146.2-28.8c-1.4-0.3-4.2-1.4-5.6-1.1l-10.8,2.2
						c-4.7,1-8,6.6-8.1,11.4l43.3,80.8c-5.9,3.2-11.9,6.6-14.8,9.2c-1.5,1.4-2.3,2.8-2.5,4.2l-92.6,41.3c-1.8,0.8-2.7,2.7-2.3,4.6
						l5.7,23.7c-0.5,1.9-2,7.9,0.3,12.6c2.4,5.2,9.3,6.5,10.9,6.8l131.8,66c0.2,1.1,0.7,2.1,1.4,2.9c1.9,2.4,5.6,3.7,10.2,3.7
						c0.5,0,1,0,1.6,0c5.1-0.3,8.5-1.7,10.3-4.3c0.2-0.2,0.3-0.5,0.4-0.7c0.3,0,0.5-0.1,0.8-0.3l93.1-61.3c0,0,0.1,0,0.1,0
						c0.2,0,0.3,0.1,0.5,0.1c1.8,0,7-2.2,9.1-6.5c2.2-4.6,0.7-11.2-0.4-14.6c-0.2-0.6-0.4-1.1-0.7-1.5l0.4-21.4c0-0.3,0-0.6-0.1-0.9
						c0.7,0.5,1.7,0.7,3,0.7c1.5,0,3-0.4,3-0.4c0.2,0,4.9-0.9,7.9-3.3C404.7,273.6,406.6,267.5,406.4,264.2z M378.7,309.1
						c-1.8,4.4-2.1,9.1-2,11.4l-91.2,60c-0.1-0.8-0.3-1.6-0.5-2.4c-2.1-6.7-3.3-8-6.6-11l-0.5-0.5c-0.7-0.6-1.4-1-2.1-1.3l-1.1-18.6
						c0.8-0.2,1.5-0.6,2.2-1l106.8-64.3l-0.4,19.4C381.8,301.9,380.6,304.6,378.7,309.1z M209,234c-1.9,1.5-4.6,4-7.3,7l-72.2,31.2
						c-0.7,0.3-1.2,1-1.2,1.8c0,0.8,0.5,1.5,1.2,1.8l57.1,24.4c0.4,0.4,1,0.6,1.5,0.6l82.1,35.1c0.3,0.1,0.5,0.2,0.8,0.2
						c0.3,0,0.7-0.1,1-0.3l99.2-56.6c0.7-0.4,1.1-1.2,1-1.9c-0.1-0.8-0.6-1.5-1.4-1.7l-62.1-18.6c-0.3-2.3-1.1-5-2.2-7.5l76.6,27.3
						c-0.2,0.1-0.3,0.1-0.5,0.2l-108,65c-1.7,1-3.8,1.2-5.7,0.3l-151.7-69.2L208,233C208.4,233.4,208.7,233.7,209,234z M184.8,295.2
						l-20.2-8.7l20.2-9.3C184.2,286.6,184.4,292,184.8,295.2z M185.1,272.9c0,0.3-0.1,0.6-0.1,1L160.9,285l-25.5-10.9l60.7-26.3
						c-2.2,2.9-4.1,5.9-5.4,8.6C186.6,265.1,185.5,268.2,185.1,272.9z M230.8,272.6c1.3,1,2.8,1.9,4.5,2.7c2.8,1.4,8,3,13.6,4.2
						c0,0.8,0.3,1.6,0.9,2.1c0.1,0.1,3,2.5,4.2,7.5c1.2,5.5,1.1,7.9,1.1,7.9c0,0.1,0,0.3,0,0.4c-2,1.5-3.9,3.1-5.5,4.9
						c-3.9,4.2-13,14-13,14l1.8,1.7l-40-17.1c5.1-10.2,15.8-26,23.4-26c0,0,0.1,0,0.1,0c0.1,0,0.2,0,0.4,0
						C226.4,275,229.2,273.7,230.8,272.6z M283.6,280.5c0.4,0.7,0.9,1.2,1.2,1.4c1,0.7,2.3,1,3.8,1c4.3,0,9.9-2.5,12.7-4.5
						c1-0.7,1.8-1.5,2.6-2.4c1.8,1.5,5.2,5,6.3,10c1.3,5.7,0.5,10,0.2,11.3c-3.2,4.2-5.2,9.2-6.3,12.1c-0.2,0.5-0.4,1.1-0.5,1.3
						c-0.4,0.4-0.6,1-0.6,1.6c0,0.4,0.1,0.9,0.3,1.2L271,332l-3.5-1.5c3-2.5,4.7-4.7,6.4-7.1c1.6-2.2,3.3-4.4,6.3-7.3
						c0.9-0.9,3.7-3.5,2.4-6.4c-0.8-1.7-2.6-2.4-4.8-2.7c0.9-1.3,1.7-2.7,2.4-4.4c0.9-2.3-0.3-3.6-0.7-3.9
						c-0.8-0.7-2.4-2.1-10.7,1.7c0.3-0.7,0.6-1.5,0.9-2.2c0.9-2.4-0.1-4.1-1.3-4.8c-1.9-1.2-5-0.5-8.3,1.1c-0.1-1.5-0.5-3.6-1.1-6.4
						c-0.7-3.2-2-5.6-3.2-7.3c2.5,0.4,5,0.6,7.2,0.6c0.7,0,1.3,0,1.9-0.1C272.7,280.8,282.6,280.5,283.6,280.5z M301.8,245.5
						c-0.2,0.2-0.4,0.3-0.6,0.4C301.4,245.8,301.6,245.6,301.8,245.5z M288,167.1c-6.6-0.5-24.7,1.6-30.1,7
						c-0.7,0.7-1.3,1.4-1.9,2.1c-0.2-0.3-0.5-0.5-0.8-0.7c-0.5-0.3-1.9-1-3.7,0.1c-3.6,2.2-9.5,14.7-10.2,19.5
						c-0.7,4.6-2.9,11.6-4,13.2l-34.1-70.6l145.1,27.7c0.2,0.2,0.3,0.3,0.5,0.4c1.6,1.2,2.5,3,2.5,4.9l0,0.6c0,1.7,0.6,2.6,1.4,3.1
						l37.2,90.5l-80.8-28c1.3,0.2,2.8,0.4,4.4,0.4c0,0,0,0,0.1,0c5.5,0,8.4-3.5,9.4-5.1c1.2,0.3,2.3,0.3,3.3-0.4
						c1.6-1.1,1.8-3.3,1.8-5.2c0-5.2-3.1-9-6.5-11.1c0-0.2,0.1-0.4,0.1-0.5c0-0.4-0.2-9.7-5.1-15.8c0.7-1.9,1.6-7.3-6.7-14.1
						c-5.2-4.2-9.7-7.1-12.5-8.7c0.6-0.5,1.1-0.9,1.4-1.1c1.6-0.1,2.5-1.2,2.6-2.4C301.7,168.7,288.1,167.1,288,167.1z M311.7,232.5
						c0.1-0.1,0.2-0.1,0.3-0.2c2.6-1.4,4.1-2.1,5.8-1.6c0,0,0.1,0,0.1,0c-0.8,0.8-2.3,1.8-4.4,1.8c0,0,0,0,0,0
						C312.9,232.6,312.3,232.6,311.7,232.5z M312.6,202.5c3.2,3.8,3.9,9.9,4,12.1c-0.5,0-1,0.1-1.5,0.2c-0.3-0.1-1.1-0.5-2.2-1.3
						c0.4-0.1,0.8-0.2,1.1-0.5c1.8-1.3,2-4.3,0.3-6.7s-4.5-3.4-6.4-2.1c-0.5,0.4-0.9,0.8-1.1,1.4c-0.3-0.8-0.5-1.4-0.6-1.9
						c-0.1-0.2-0.1-0.4-0.2-0.6c0,0,0,0,0,0c0.4-0.4,2.4-2.1,4.1-2C310.5,201.1,311.5,201.1,312.6,202.5z M303.8,210.6
						c1.7,2.9,3.8,5,5.5,6.4c-0.5,0.2-0.9,0.5-1.4,0.8c-1.2,0.7-1.6,2.2-0.9,3.4c0.7,1.2,2.2,1.6,3.4,0.9c3.8-2.2,6.8-2.9,7.5-2.6
						c0.9,0.4,5.1,2.7,5.1,7.4c0,0.2,0,0.3,0,0.4c-0.2-0.1-0.4-0.1-0.6-0.2c-0.9-0.3-1.9-0.7-3.2-1.1c-3.8-1.1-6.9,0.5-9.6,1.9
						c-2.2,1.2-4.4,2.3-7.4,2.4c-5.9,0.2-15.7-1.4-21-2.3c-1-0.2-1.9-0.3-2.7-0.4c-2.2-0.3-3.4-1-5-2c-1.2-0.7-2.6-1.5-4.5-2.3
						c-3.3-1.3-7.4-6.2-5.8-12.7c1.5-6.1,3.9-8.6,8.4-8.6c0.9,0,1.8,0.1,2.8,0.3c6.2,1,6.8,6.6,6.9,7.2c0.1,0.9,0.6,1.7,1.5,2.1
						c0.8,0.4,1.8,0.2,2.6-0.3c4-3.2,11.3-7.7,14.1-7.2c1,0.2,1.5,0.3,1.7,0.4c0.1,0.2,0.1,0.4,0.2,0.6
						C301.8,206.2,302.3,208,303.8,210.6z M365.4,278.2l-28.3,16.1c-0.4-2.1-1.6-3.7-3.5-4.8c-4.3-2.4-11.8-1.4-17.6,2.5
						c0-2-0.2-4.4-0.8-7.1c-1.6-6.9-6.5-11.5-8.5-13.2c1.3-2.8,2-6.3,2.3-10.4L365.4,278.2z M314.4,300.3c0.2-0.2,0.4-0.4,0.5-0.7
						c1-1.2,2.1-2.4,3.4-3.2c4.7-3.3,10.4-4,12.9-2.6c0.6,0.3,1.2,0.9,1.1,2.2c0,0.3,0,0.6,0.1,0.9l-23.2,13.2
						C310.3,307.6,312,303.6,314.4,300.3z M264.3,298c-1.5,3.6-2.9,6.6-2.9,6.6c-0.5,1-0.3,2.1,0.5,2.9c0.8,0.7,2,0.9,2.9,0.4
						c3.3-1.8,6.8-3.4,9.3-4.3c-1.6,2.5-3.5,4.1-3.5,4.1c-0.8,0.7-1.1,1.9-0.7,2.9c0.4,1,1.5,1.6,2.6,1.5c1.7-0.2,3.6-0.2,4.8-0.1
						c-0.1,0.2-0.3,0.3-0.5,0.5c-3.3,3.1-5.2,5.7-6.9,7.9c-1.9,2.5-3.5,4.6-6.6,7c-0.3,0.3-0.6,0.6-0.7,1l-21.7-9.3
						c2.1-2.3,9.1-9.8,12.4-13.3C257.3,301.4,261.8,298.9,264.3,298z M386.3,277.4L386.3,277.4L386.3,277.4
						C386.3,277.4,386.3,277.4,386.3,277.4z M386.8,274l-83.3-30.5c-0.4-0.5-0.7-1-1.1-1.4c-0.1-0.8-0.3-2-0.4-3.3l88,30.4
						C388.4,270.8,387.5,272.2,386.8,274z M394.2,266l-37.4-91c0,0,0.1,0,0.1,0c1.3-0.2,2.9-0.4,5-0.4c1.5,0,2.8-0.1,3.8-0.2
						l35.7,87.3c-1.4,0.5-3.4,1.7-6.5,3.9C394.6,265.7,394.4,265.8,394.2,266z M365.9,167.7c0,0.3,0,0.6,0,0.8c0,0.4,0,0.7-0.1,1.1
						c-0.5,0.1-0.9,0.4-1.1,0.8c-0.6,0.1-1.5,0.1-2.9,0.1c-2.4,0-4.2,0.3-5.6,0.5c-0.3,0-0.6,0.1-0.9,0.1l0-0.3
						c-0.1-3.1-1.5-6-4.1-8c-2.4-1.9-1.7-3-1.3-3.5c0.6-0.9,1-1.6,1.4-2.3c0.5-0.8,0.8-1.3,1.1-1.6c0.5,0,0.9-0.2,1.2-0.5
						c0.9,0,2.5,0.4,4.6,1.1C365.7,158.6,366.1,165,365.9,167.7z M348.2,154.7c-0.1,0.1-0.1,0.2-0.2,0.3c-0.4,0.6-0.8,1.3-1.3,2.1
						c-0.9,1.3-1.2,2.6-1.1,3.9l-151.7-29l9.5-5.7l-0.2-0.4c0.6,0.2,1.2,0.4,1.5,0.5L348.2,154.7z M189.7,127.5l5.9-1.2l-7.7,4.6
						l-0.1,0l0,0.1l-2.6,1.6C186,130.2,187.7,127.9,189.7,127.5z M185.8,136.8l2.9-1.7l9.6,1.8l35.6,73.6c-1.5,0.8-3.3,1.8-5,2.7
						c-0.3,0.2-0.7,0.4-1,0.5L185.8,136.8z M212.9,230.8c-0.3-0.3-0.9-0.8-1.1-1c0.1-0.1,0.3-0.5,0.9-1.1c3.2-2.9,12-7.6,18.4-11
						c7.2-3.8,9.1-4.9,9.9-5.9c2.1-2.6,4.5-11.7,5.1-15.8c0.5-3.2,3.8-10.2,6.1-13.8c0,0.3,0,0.6-0.1,0.9c-0.1,1.3,0.8,2.5,2.1,2.7
						c1.3,0.2,2.5-0.7,2.8-2c0,0,0.6-2.5,4.3-6.2c3.5-3.6,19.1-6.1,26.1-5.6c2.4,0.2,4.5,0.7,6.1,1.2c-0.7,0.7-1.5,1.5-2.3,2.5
						c-0.5,0.6-0.7,1.4-0.5,2.1c0.2,0.8,0.7,1.4,1.4,1.7c0.1,0,6.4,3.1,14.5,9.7c3.9,3.1,5,5.6,5.2,7c-0.6-0.1-1.1-0.2-1.6-0.2
						c-4.2-0.1-7.5,3.2-7.9,3.6c0,0,0,0,0,0.1c-0.6-0.2-1.2-0.3-2-0.4c-4.4-0.8-11,3.2-15,6c-1.4-3.3-4.4-6.9-10-7.8
						c-12-2-15.4,5.9-16.9,12.1c-2.4,9.4,3.7,16.5,8.8,18.5c1.6,0.6,2.7,1.3,3.8,1.9c1.8,1.1,3.7,2.2,6.8,2.7
						c0.7,0.1,1.6,0.3,2.6,0.4c4.2,0.7,10.4,1.7,15.9,2.2c0,0.1,0,0.2,0,0.2l0.2,1.6c1,8,1,8.4,2.3,8.9c1.3,1.8,5.1,9.2,4.9,13.5
						c-0.2,7.5-2.1,12.5-5.5,15c-3.5,2.5-8.4,3.8-10.3,3.6c0.3-0.9,0.7-1.7,1-2.4c0.3,0,0.7,0,1.2,0c1.7,0,4.4-0.1,6.1-1
						c5-2.4,2.4-8.8,1.2-11.6c-0.9-2.2-2.3-3.6-4.2-4.3c-3.8-1.4-8.5,0.5-12.9,2.8c-3.7,1.9-4.4,1.5-6.3,0.7
						c-0.5-0.2-1.2-0.5-1.9-0.8l-0.8-0.3c-2.9-1.1-5.7-2.1-7.2-4.1c-1.4-1.9-5.8-11.8-8.3-17.5c-0.5-1.3-2-1.8-3.3-1.3
						c-1.3,0.5-1.8,2-1.3,3.3c0.7,1.6,6.7,15.5,8.9,18.5c2.3,3.3,6.2,4.6,9.5,5.9l0.8,0.3c0.6,0.2,1.1,0.4,1.5,0.7
						c2.9,1.3,5.2,2,10.6-0.8c1.8-0.9,6.7-3.4,9-2.6c0.4,0.1,0.9,0.4,1.4,1.5c1.7,4.1,1.3,5.1,1.4,5.1h0c0,0,0,0-0.1,0.1
						c-0.2,0.1-0.6,0.2-1,0.3c0.3-0.8,0.3-1.6-0.2-2.4c-0.8-1.1-2.3-1.5-3.5-0.7c-0.2,0.1-3.7,2.6-5.9,8.2c-0.1,0-0.1,0-0.2,0
						c-0.1,0-10.7,0.2-19.1,0.8c-8,0.6-22.5-3.3-26.9-5.5c-3.8-1.9-8.3-5.1-8.8-10.1c-0.6-5.8-1.3-9.1-1.3-9.2
						c-0.3-1.3-1.6-2.2-3-1.9c-1.3,0.3-2.2,1.6-1.9,3c0,0,0.7,3.2,1.2,8.7c0.3,2.8,1.4,5.4,3.3,7.7c-1.1,0.5-2.8,1-5,1
						c-0.1,0-0.1,0-0.2,0c-13.1,0-26.5,26-28,29c0,0,0,0,0,0l-3.1-1.3c-0.1-0.2-0.2-0.4-0.3-0.6c-0.8-1.1-1.7-7.4-0.4-23.8
						c0.3-3.8,1-6.2,5.1-14.7c4-8.4,15-19.7,17.8-21.3c1.5-0.9,1.9-2,2-2.8C215.2,232.7,213.9,231.6,212.9,230.8z M121.6,309.6
						c-1-2.2-0.9-5-0.6-7.2c0.8,0.9,1.9,2.2,2.9,3.9c1.5,2.4,2.4,5.2,3,7.2C124.8,312.8,122.5,311.6,121.6,309.6z M121.5,297.5
						l-4.8-20.1l150.8,68.8c1,0.5,2.1,0.7,3.2,0.9l1.1,18.5c-1.3,0.7-2.2,1.7-2.6,2.3c-1.1,1-6.7,6.4-8.2,11.9l-129.7-64.9
						c-0.4-2-1.6-6.6-4-10.6C124.9,300.4,122.7,298.4,121.5,297.5z M281,384c-0.8,1.2-2.6,2-5.2,2.4l-0.3-8.4c0-1.1-1-2-2.1-1.9
						c-1.1,0-2,1-1.9,2.1l0.3,8.5c-3.1-0.1-5.5-0.9-6.6-2.2c-0.6-0.8-0.8-1.8-0.6-3.1c0.8-4.1,5.6-9.2,7.4-10.8l0.2-0.2l0.1-0.2
						c0.2-0.3,1-1.2,1.6-1.2c0.4,0,0.8,0.3,1.1,0.6l0.6,0.5c2.7,2.5,3.6,3.2,5.4,9.2C281.8,381.3,281.7,382.9,281,384z M384.7,315.8
						c-0.9,1.8-2.7,3-4.1,3.7c0.1-2.1,0.4-5.6,1.7-8.9c0.6-1.5,1.5-3.5,2.2-5C385.7,310,385.8,313.6,384.7,315.8z M399.6,273.4
						c-2.4,1.9-6.5,2.7-6.6,2.7c0,0-1.2,0.3-2.4,0.3c-0.6,0-0.9-0.1-1.1-0.1c0.9-3,2.2-4.1,7.2-7.8c4.2-3.1,6-3.7,6.7-3.8
						C403.2,267.1,401.8,271.6,399.6,273.4z"/>
					
						<ellipse transform="matrix(0.2654 -0.9641 0.9641 0.2654 -4.0619 418.2672)" fill="#FFFFFF" cx="272.5" cy="211.8" rx="5.8" ry="4.6"/>
				</g>
			</g>
		</g>
	</g>
</g>
</svg>
