<?xml version="1.0" encoding="utf-8"?>
<!-- Generator: Adobe Illustrator 27.2.0, SVG Export Plug-In . SVG Version: 6.00 Build 0)  -->
<svg version="1.1" id="Слой_1" xmlns="http://www.w3.org/2000/svg" xmlns:xlink="http://www.w3.org/1999/xlink" x="0px" y="0px"
	 viewBox="0 0 32 32" style="enable-background:new 0 0 32 32;" xml:space="preserve">
<style type="text/css">
	.st0{fill:#FFFFFF;}
	.st1{fill:#F89932;}
</style>
<g>
	<path class="st0" d="M20.2,1.1L30.1,12c-1.2,0.4-2.7,1-3.6,2.3c-0.8,1-0.8,1.9-0.9,2.7c0,1.1-0.1,2.2-2.1,4.3
		c-1.3,1.4-2.4,1.6-3.5,1.6c-0.3,0-0.6,0-0.9,0c-0.3,0-0.7,0-1,0c-1,0-2.3,0.2-3.7,1.4c-2,1.8-3,4.1-3.5,5.8L1.1,19.6l0,0
		c0,0,0.5-3.9,3.3-6.5c0.8-0.8,1.5-0.9,2.3-0.9c0.3,0,0.6,0,0.9,0c0.3,0,0.7,0,1,0c1.3,0,3-0.3,5-2.2c2.6-2.7,2.7-4.4,2.7-5.6
		c0-0.7,0-1,0.4-1.5C17.5,1.9,19.1,1.3,20.2,1.1 M20.6,0c-0.4,0.1-3.3,0.5-4.7,2.3c-1.5,1.9,0.8,3.2-3,7.1c-1.6,1.7-3,1.9-4.3,1.9
		c-0.7,0-1.3-0.1-1.9-0.1c-1,0-2,0.2-3,1.2c-3,2.8-3.6,7.1-3.6,7.1l0,0.3c0,0.1,0,0.2,0,0.2L11.4,32c0,0,0.5-4.3,3.6-7.1
		c1.1-1,2-1.2,3-1.2c0.6,0,1.2,0.1,1.9,0.1c1.3,0,2.6-0.3,4.3-1.9c3.8-3.9,1.5-5.1,3-7.1c1.5-1.9,4.8-2.3,4.8-2.3L20.6,0L20.6,0z"/>
</g>
<path class="st1" d="M19,6c-0.2,0-1,0.2-1.6,1.8c-0.5,1.1,0.4,2.3-2.5,5c-2,1.8-5.8,0.5-7.3,1.9c-1.5,1.4-1.9,2.6-1.9,2.6l6,6.3
	c0,0,0.4-1,1.9-2.4c1.5-1.4,5-0.5,6.9-2.3c3-2.9,1.9-3.6,2.4-4.7c0.7-1.7,2.1-2.3,2.1-2.3L19,6z"/>
</svg>
