<?xml version="1.0" encoding="utf-8"?>
<!-- Generator: Adobe Illustrator 28.0.0, SVG Export Plug-In . SVG Version: 6.00 Build 0)  -->
<svg version="1.1" id="Слой_1" xmlns="http://www.w3.org/2000/svg" xmlns:xlink="http://www.w3.org/1999/xlink" x="0px" y="0px"
	 viewBox="0 0 32 32" style="enable-background:new 0 0 32 32;" xml:space="preserve">
<style type="text/css">
	.st0{fill:none;stroke:#FFFFFF;stroke-miterlimit:10;}
	.st1{fill:none;stroke:#FFFFFF;stroke-miterlimit:10;stroke-dasharray:1;}
	.st2{fill:#F89932;}
</style>
<image style="overflow:visible;" width="590" height="558" xlink:href="../Desktop/Снимок экрана 2024-04-23 в 20.10.56.png"  transform="matrix(6.305180e-02 0 0 6.305180e-02 -131.1652 -2.5515)">
</image>
<line class="st0" x1="1.2" y1="9.8" x2="1.2" y2="30.9"/>
<line class="st0" x1="22.8" y1="9.8" x2="22.8" y2="30.9"/>
<line class="st0" x1="30.7" y1="1.9" x2="30.7" y2="22.8"/>
<line class="st1" x1="9.4" y1="1.9" x2="9.4" y2="22.8"/>
<line class="st0" x1="1.2" y1="30.4" x2="22.8" y2="30.4"/>
<line class="st1" x1="30.7" y1="22.3" x2="9.1" y2="22.3"/>
<line class="st0" x1="30.8" y1="22.5" x2="22.9" y2="30.5"/>
<line class="st1" x1="9.4" y1="22.5" x2="1.5" y2="30.5"/>
<g>
	<path class="st2" d="M26.5,3.6l-4,4.2h-17l4.2-4.1L26.5,3.6 M31.2,1.6l-22.4,0L0.5,9.7h22.7L31.2,1.6L31.2,1.6z"/>
</g>
</svg>
