<?xml version="1.0" encoding="utf-8"?>
<!-- Generator: Adobe Illustrator 27.2.0, SVG Export Plug-In . SVG Version: 6.00 Build 0)  -->
<svg version="1.1" id="Слой_1" xmlns="http://www.w3.org/2000/svg" xmlns:xlink="http://www.w3.org/1999/xlink" x="0px" y="0px"
	 viewBox="0 0 32 32" style="enable-background:new 0 0 32 32;" xml:space="preserve">
<style type="text/css">
	.st0{fill:#F89932;}
	.st1{fill:none;stroke:#FFFFFF;stroke-miterlimit:10;}
</style>
<image style="overflow:visible;" width="591" height="1280" xlink:href="933577B1.jpg"  transform="matrix(0.1929 0 0 0.1929 157.8889 -88.6955)">
</image>
<g>
	<path class="st0" d="M17.7,2.7L29,20.6l-15.3,8.3L3,8.2L17.7,2.7 M18.5,0.3L0.2,7.1l12.7,24.6l19-10.3L18.5,0.3L18.5,0.3z"/>
</g>
<line class="st1" x1="5.3" y1="2" x2="10.2" y2="9.1"/>
<line class="st1" x1="11.3" y1="0.4" x2="15.3" y2="8.6"/>
<line class="st1" x1="28.7" y1="28.4" x2="22.7" y2="19.6"/>
<line class="st1" x1="21.3" y1="30.3" x2="16.5" y2="20.1"/>
<line class="st1" x1="9.9" y1="14.8" x2="1.6" y2="17.1"/>
<line class="st1" x1="11.8" y1="20.3" x2="3.7" y2="24.1"/>
<line class="st1" x1="21.8" y1="13.4" x2="27.3" y2="11.8"/>
<line class="st1" x1="20.5" y1="9.7" x2="25.9" y2="7.1"/>
</svg>
