<?xml version="1.0" encoding="utf-8"?>
<!-- Generator: Adobe Illustrator 27.2.0, SVG Export Plug-In . SVG Version: 6.00 Build 0)  -->
<svg version="1.1" id="Слой_1" xmlns="http://www.w3.org/2000/svg" xmlns:xlink="http://www.w3.org/1999/xlink" x="0px" y="0px"
	 viewBox="0 0 32 32" style="enable-background:new 0 0 32 32;" xml:space="preserve">
<style type="text/css">
	.st0{fill:none;stroke:#FFFFFF;stroke-linejoin:round;stroke-miterlimit:10;}
	.st1{fill:none;stroke:#FFFFFF;stroke-miterlimit:10;}
	.st2{fill:#FFFFFF;}
	.st3{fill:#F89932;}
</style>
<path class="st0" d="M26.4,6.5l-5.1-5.5C21,1,18.1,1.4,16.7,3.2c-1.5,1.9,0.8,3.2-3,7c-3.8,3.9-6.1,0.2-9.1,3c-3,2.8-3.6,7-3.6,7
	l0,0.3c0,0.1,0,0.2,0,0.2l5,5.3l0-0.2"/>
<path class="st1" d="M26.5,6.5"/>
<path class="st1" d="M18.5,16.2"/>
<g>
	<path class="st2" d="M6,26.2l0-0.3c0,0,0.6-4.2,3.5-6.9c1-0.9,1.9-1.1,2.8-1.1c0.3,0,0.6,0,0.9,0c0.3,0,0.7,0,1,0
		c1.3,0,2.9-0.3,4.8-2.1c2.6-2.6,2.6-4.1,2.6-5.4c0-0.7,0-1.2,0.5-1.9c1.2-1.5,3.5-2,4.3-2.1l4.4,4.8c-1.2,0.3-3.2,0.9-4.4,2.4
		c-0.7,0.9-0.7,1.7-0.8,2.5c0,1.1-0.1,2.4-2.3,4.7c-1.6,1.6-2.9,1.8-4,1.8c-0.3,0-0.7,0-1,0c-0.3,0-0.7,0-1,0c-1,0-2.2,0.2-3.5,1.3
		c-2.5,2.3-3.4,5.3-3.7,6.8L6,26.2z"/>
	<path class="st2" d="M26.4,7.1l3.7,4c-1.2,0.4-2.8,1.1-3.8,2.3c-0.8,1-0.9,2-0.9,2.8c0,1.1-0.1,2.2-2.2,4.4
		c-1.4,1.4-2.5,1.7-3.7,1.7c-0.3,0-0.6,0-0.9,0c-0.3,0-0.7,0-1,0c-1,0-2.4,0.2-3.8,1.5c-2.1,1.9-3.2,4.5-3.6,6.1L6.5,26l0,0
		c0,0,0.6-4,3.4-6.6c0.9-0.8,1.6-0.9,2.5-0.9c0.3,0,0.6,0,0.9,0c0.3,0,0.7,0,1.1,0c1.4,0,3.1-0.3,5.1-2.3c2.7-2.7,2.8-4.5,2.8-5.7
		c0-0.7,0-1.1,0.4-1.6C23.5,7.9,25.2,7.3,26.4,7.1 M26.7,6c-0.4,0.1-3.4,0.5-4.9,2.3c-1.6,2,0.8,3.2-3.1,7.2c-1.7,1.7-3.1,2-4.4,2
		c-0.7,0-1.3-0.1-2-0.1c-1,0-2,0.2-3.1,1.2c-3.1,2.9-3.7,7.2-3.7,7.2l0,0.3c0,0.1,0,0.2,0,0.2l5.2,5.4l0-0.2c0,0,0.5-4.3,3.7-7.2
		c1.1-1,2.1-1.2,3.1-1.2c0.6,0,1.3,0.1,2,0.1c1.3,0,2.7-0.3,4.4-2c4-4,1.6-5.3,3.1-7.2c1.5-1.8,4.4-2.3,4.9-2.3v0l0,0c0,0,0,0,0,0
		l0,0l0.1,0L26.7,6L26.7,6z"/>
</g>
<g>
	<rect x="22" y="16.7" transform="matrix(0.7071 -0.7071 0.7071 0.7071 -8.8258 23.0491)" class="st3" width="2.8" height="11"/>
	<polygon class="st3" points="30.1,20.4 30.1,28.9 21.7,28.9 	"/>
</g>
</svg>
