<?xml version="1.0" encoding="utf-8"?>
<!-- Generator: Adobe Illustrator 28.0.0, SVG Export Plug-In . SVG Version: 6.00 Build 0)  -->
<svg version="1.1" id="Слой_1" xmlns="http://www.w3.org/2000/svg" xmlns:xlink="http://www.w3.org/1999/xlink" x="0px" y="0px"
	 viewBox="0 0 32 32" style="enable-background:new 0 0 32 32;" xml:space="preserve">
<style type="text/css">
	.st0{fill:#FFFFFF;}
	.st1{fill:#F89932;}
</style>
<g>
	<path class="st0" d="M23.3,21.3c-0.9,1-1.7,1.4-2.5,1.5l-0.2,0.9c1-0.1,2.1-0.6,3.4-1.8c0.2-0.2,0.4-0.5,0.6-0.7l-0.9-0.4
		C23.6,20.9,23.5,21.1,23.3,21.3z"/>
	<path class="st0" d="M15.9,23.5c-0.5,0.2-0.9,0.5-1.4,0.9c-2,1.8-3,4.1-3.5,5.8L1.1,19.8c0,0,0.5-3.9,3.3-6.5
		c0.8-0.8,1.5-0.9,2.3-0.9c0.3,0,0.6,0,0.9,0s0.7,0,1,0c1.3,0,3-0.3,5-2.2c2.6-2.7,2.7-4.4,2.7-5.6c0-0.7,0-1,0.4-1.5
		c0.8-1,2.4-1.6,3.5-1.8l9.9,10.9c-1.2,0.4-2.7,1-3.6,2.3c-0.8,1-0.8,1.9-0.9,2.7c0,0.3,0,0.7-0.1,1l0.8,0.5
		c0.5-1.6-0.1-2.4,0.9-3.7c1.5-1.9,4.8-2.3,4.8-2.3L20.6,0.2c-0.4,0.1-3.3,0.5-4.7,2.3c-1.5,1.9,0.8,3.2-3,7.1
		c-1.6,1.7-3,1.9-4.3,1.9c-0.7,0-1.3-0.1-1.9-0.1c-1,0-2,0.2-3,1.2c-3,2.8-3.6,7.1-3.6,7.1V20c0,0.1,0,0.2,0,0.2l11.3,12
		c0,0,0.5-4.3,3.6-7.1c0.3-0.2,0.5-0.4,0.8-0.6L15.9,23.5z"/>
</g>
<path class="st1" d="M27.1,23.5c0.1,1.9-1.4,3.5-3.2,3.7c-2.1,0.2-3.8-1.3-4-3.2c-0.2-2.2,1.3-3.9,3.5-4
	C25.4,19.9,27.1,21.5,27.1,23.5z M23.5,20.9c-1.5,0-2.7,1.2-2.7,2.7c0,1.5,1.2,2.7,2.7,2.7c1.5,0,2.7-1.2,2.7-2.7
	C26.2,22.1,25,20.9,23.5,20.9z"/>
<path class="st1" d="M22.5,15.2c0.6,0,1.3,0,1.9,0c0.6,0.2,0.8,0.6,0.9,1.2c0,0.2,0.1,0.5,0.1,0.7c0,0.1,0.1,0.2,0.2,0.2
	c0.3,0.1,0.6,0.3,0.9,0.4c0.1,0,0.2,0,0.3,0c0.3-0.2,0.6-0.4,0.8-0.6c0.5-0.3,1-0.3,1.3,0.1c0.4,0.3,0.7,0.7,1.1,1.1
	c0.4,0.4,0.4,0.9,0.1,1.4c-0.1,0.2-0.2,0.4-0.4,0.5c-0.3,0.3-0.3,0.6-0.1,0.9c0.1,0.2,0.2,0.5,0.4,0.7c0.2,0.1,0.5,0.1,0.8,0.2
	c0.6,0.1,1,0.3,1.2,0.8c0,0.6,0,1.3,0,1.9c-0.2,0.6-0.6,0.8-1.2,0.9c-0.2,0-0.5,0.1-0.7,0.1c-0.1,0-0.2,0.1-0.2,0.2
	c-0.1,0.3-0.2,0.6-0.3,0.8c0,0.1,0,0.2,0,0.3c0.2,0.3,0.4,0.6,0.6,0.8c0.3,0.5,0.3,1-0.1,1.3c-0.3,0.4-0.7,0.7-1.1,1.1
	c-0.4,0.4-0.9,0.4-1.3,0.1c-0.3-0.2-0.6-0.4-0.8-0.6c-0.1,0-0.2-0.1-0.3,0c-0.3,0.1-0.6,0.2-0.8,0.4c-0.1,0-0.2,0.1-0.2,0.2
	c-0.1,0.2-0.1,0.5-0.1,0.7c-0.1,0.6-0.3,1-0.9,1.2c-0.6,0-1.2,0-1.9,0c-0.6-0.2-0.8-0.6-0.9-1.1c0-0.2-0.1-0.5-0.1-0.7
	c0-0.1-0.1-0.2-0.2-0.3c-0.3-0.1-0.5-0.2-0.8-0.3c-0.1,0-0.2,0-0.3,0c-0.3,0.2-0.5,0.4-0.8,0.6c-0.4,0.3-0.9,0.3-1.3-0.1
	c-0.4-0.4-0.8-0.7-1.1-1.1c-0.3-0.4-0.4-0.8-0.1-1.3c0.1-0.2,0.2-0.4,0.4-0.5c0.3-0.3,0.3-0.6,0.1-0.9c-0.1-0.1-0.1-0.2-0.1-0.4
	c-0.1-0.2-0.2-0.3-0.4-0.3c-0.2,0-0.4-0.1-0.6-0.1c-0.6-0.1-0.9-0.3-1.1-0.9c0-0.6,0-1.2,0-1.9c0.2-0.6,0.6-0.8,1.2-0.9
	c0.2,0,0.5-0.1,0.7-0.1c0.1,0,0.2-0.1,0.2-0.2c0.1-0.3,0.2-0.6,0.4-0.8c0.1-0.1,0-0.2,0-0.3c-0.2-0.3-0.4-0.6-0.6-0.8
	c-0.3-0.4-0.3-0.9,0.1-1.3c0.3-0.4,0.7-0.7,1.1-1.1c0.4-0.4,0.9-0.4,1.4-0.1c0.3,0.2,0.5,0.4,0.8,0.6c0.1,0.1,0.2,0.1,0.3,0
	c0.2-0.1,0.5-0.2,0.7-0.3c0.2-0.1,0.3-0.2,0.3-0.3c0-0.2,0.1-0.5,0.1-0.7C21.7,15.7,22,15.4,22.5,15.2z M28.2,29.5
	c0.4-0.4,0.7-0.7,1.1-1.1c0,0,0-0.2,0-0.2c-0.2-0.4-0.5-0.7-0.8-1.1c-0.1-0.2-0.2-0.4-0.1-0.6c0.2-0.5,0.4-0.9,0.6-1.4
	c0.1-0.2,0.2-0.4,0.5-0.4c0.4-0.1,0.8-0.1,1.3-0.2c0.2,0,0.2-0.1,0.2-0.3c0-0.4,0-0.8,0-1.2c0-0.2-0.1-0.2-0.2-0.2
	c-0.4-0.1-0.8-0.1-1.3-0.2c-0.3,0-0.4-0.2-0.5-0.4c-0.2-0.5-0.4-0.9-0.6-1.4c-0.1-0.2-0.1-0.4,0-0.6c0.3-0.3,0.5-0.7,0.7-1
	c0.1-0.1,0.1-0.2,0-0.3c-0.3-0.3-0.6-0.6-0.9-0.9c-0.1-0.1-0.2-0.1-0.3,0c-0.3,0.2-0.7,0.5-1,0.7c-0.2,0.2-0.4,0.2-0.7,0.1
	c-0.4-0.2-0.9-0.4-1.4-0.6c-0.3-0.1-0.4-0.3-0.4-0.5c-0.1-0.4-0.1-0.8-0.2-1.2c0-0.2-0.1-0.2-0.3-0.2c-0.4,0-0.8,0-1.1,0
	c-0.2,0-0.3,0.1-0.3,0.3c-0.1,0.4-0.1,0.8-0.2,1.2c0,0.3-0.2,0.4-0.5,0.5c-0.4,0.2-0.9,0.4-1.3,0.6c-0.2,0.1-0.5,0.1-0.7,0
	c-0.3-0.3-0.7-0.5-1-0.7c-0.1-0.1-0.2-0.1-0.3,0c-0.3,0.3-0.6,0.6-0.9,0.9c-0.1,0.1-0.1,0.2,0,0.3c0.3,0.3,0.5,0.7,0.8,1
	c0.2,0.2,0.2,0.4,0.1,0.7c-0.2,0.4-0.4,0.9-0.6,1.4c-0.1,0.3-0.2,0.4-0.5,0.4c-0.4,0.1-0.8,0.1-1.2,0.2c-0.2,0-0.2,0.1-0.2,0.3
	c0,0.4,0,0.8,0,1.2c0,0.2,0,0.2,0.2,0.2c0.4,0.1,0.9,0.2,1.3,0.2c0.2,0,0.4,0.2,0.5,0.4c0.2,0.5,0.4,0.9,0.6,1.3
	c0.1,0.3,0.1,0.5,0,0.7c-0.2,0.3-0.5,0.7-0.7,1c-0.1,0.1-0.1,0.2,0,0.4c0.3,0.3,0.5,0.5,0.8,0.8c0.1,0.1,0.2,0.2,0.4,0
	c0.3-0.3,0.7-0.5,1-0.7c0.2-0.2,0.4-0.2,0.7,0c0.4,0.2,0.9,0.4,1.3,0.5c0.2,0.1,0.4,0.2,0.4,0.5c0.1,0.4,0.2,0.9,0.2,1.3
	c0,0.1,0.1,0.2,0.2,0.2c0.4,0,0.8,0,1.3,0c0.1,0,0.2-0.1,0.2-0.2c0.1-0.4,0.1-0.8,0.2-1.2c0-0.3,0.2-0.4,0.5-0.5
	c0.4-0.2,0.9-0.3,1.3-0.5c0.3-0.1,0.5-0.1,0.7,0C27.4,28.9,27.8,29.2,28.2,29.5z"/>
</svg>
